<mxfile modified="2023-02-15T09:00:21.950Z" host="app.diagrams.net" agent="5.0 (Windows NT 10.0; Win64; x64) AppleWebKit/537.36 (KHTML, like Gecko) Chrome/110.0.0.0 Safari/537.36" etag="3mgAx-ASYQUihFxZ2nci" version="20.8.18" type="github" pages="3">
  <diagram id="d1ab7348-05c3-a1e3-ca4d-12c340fd6b49" name="Page-1">
    <mxGraphModel dx="1434" dy="764" grid="1" gridSize="10" guides="1" tooltips="1" connect="1" arrows="1" fold="1" page="1" pageScale="1" pageWidth="1169" pageHeight="827" background="none" math="0" shadow="0">
      <root>
        <mxCell id="0" />
        <mxCell id="1" parent="0" />
        <mxCell id="2" value="&lt;b&gt;Google &lt;/b&gt;Cloud Platform" style="fillColor=#F6F6F6;strokeColor=none;shadow=0;gradientColor=none;fontSize=14;align=left;spacing=10;fontColor=#717171;9E9E9E;verticalAlign=top;spacingTop=-4;fontStyle=0;spacingLeft=40;html=1;" parent="1" vertex="1">
          <mxGeometry x="228.5" y="45" width="640" height="520" as="geometry" />
        </mxCell>
        <mxCell id="3" value="" style="shape=mxgraph.gcp2.google_cloud_platform;fillColor=#F6F6F6;strokeColor=none;shadow=0;gradientColor=none;" parent="2" vertex="1">
          <mxGeometry width="23" height="20" relative="1" as="geometry">
            <mxPoint x="20" y="10" as="offset" />
          </mxGeometry>
        </mxCell>
        <mxCell id="406" style="edgeStyle=orthogonalEdgeStyle;rounded=0;html=1;dashed=0;labelBackgroundColor=none;startArrow=none;startFill=0;startSize=4;endArrow=blockThin;endFill=1;endSize=4;strokeColor=#4284F3;strokeWidth=2;fontSize=12;" parent="1" source="371" target="384" edge="1">
          <mxGeometry relative="1" as="geometry">
            <Array as="points">
              <mxPoint x="648.5" y="550" />
              <mxPoint x="648.5" y="440" />
            </Array>
          </mxGeometry>
        </mxCell>
        <mxCell id="407" style="edgeStyle=orthogonalEdgeStyle;rounded=0;html=1;dashed=0;labelBackgroundColor=none;startArrow=none;startFill=0;startSize=4;endArrow=blockThin;endFill=1;endSize=4;strokeColor=#4284F3;strokeWidth=2;fontSize=12;" parent="1" source="371" target="380" edge="1">
          <mxGeometry relative="1" as="geometry">
            <Array as="points">
              <mxPoint x="648.5" y="550" />
              <mxPoint x="648.5" y="235" />
            </Array>
          </mxGeometry>
        </mxCell>
        <mxCell id="371" value="Streaming" style="rounded=1;absoluteArcSize=1;arcSize=2;html=1;strokeColor=#4284F3;gradientColor=none;shadow=0;dashed=1;fontSize=12;fontColor=#9E9E9E;align=left;verticalAlign=top;spacing=10;spacingTop=-4;fillColor=none;dashPattern=1 2;strokeWidth=2;" parent="1" vertex="1">
          <mxGeometry x="428.5" y="465" width="170" height="170" as="geometry" />
        </mxCell>
        <mxCell id="341" value="Streaming" style="rounded=1;absoluteArcSize=1;arcSize=2;html=1;strokeColor=#4284F3;gradientColor=none;shadow=0;dashed=1;fontSize=12;fontColor=#9E9E9E;align=left;verticalAlign=top;spacing=10;spacingTop=-4;fillColor=none;dashPattern=1 2;strokeWidth=2;" parent="1" vertex="1">
          <mxGeometry x="100.5" y="95" width="508" height="210" as="geometry" />
        </mxCell>
        <mxCell id="397" style="edgeStyle=orthogonalEdgeStyle;rounded=0;html=1;dashed=0;labelBackgroundColor=none;startArrow=none;startFill=0;startSize=4;endArrow=blockThin;endFill=1;endSize=4;strokeColor=#4284F3;strokeWidth=2;fontSize=12;" parent="1" source="340" target="361" edge="1">
          <mxGeometry relative="1" as="geometry">
            <Array as="points">
              <mxPoint x="234.5" y="255" />
              <mxPoint x="234.5" y="255" />
            </Array>
          </mxGeometry>
        </mxCell>
        <mxCell id="340" value="On-Premises&lt;br&gt;&lt;font style=&quot;font-size: 10px&quot;&gt;Applications&lt;/font&gt;&lt;br&gt;" style="rounded=1;absoluteArcSize=1;arcSize=2;html=1;strokeColor=none;gradientColor=none;shadow=0;dashed=0;fontSize=12;fontColor=#9E9E9E;align=left;verticalAlign=top;spacing=10;spacingTop=-4;fillColor=#EFEBE9;" parent="1" vertex="1">
          <mxGeometry x="110.5" y="165" width="110" height="130" as="geometry" />
        </mxCell>
        <mxCell id="338" value="" style="strokeColor=#dddddd;fillColor=#ffffff;shadow=1;strokeWidth=1;rounded=1;absoluteArcSize=1;arcSize=2;labelPosition=center;verticalLabelPosition=middle;align=center;verticalAlign=bottom;spacingLeft=0;fontColor=#999999;fontSize=12;whiteSpace=wrap;spacingBottom=2;html=1;" parent="1" vertex="1">
          <mxGeometry x="130.5" y="215" width="70" height="70" as="geometry" />
        </mxCell>
        <mxCell id="339" value="" style="dashed=0;connectable=0;html=1;fillColor=#757575;strokeColor=none;shape=mxgraph.gcp2.application;part=1;" parent="338" vertex="1">
          <mxGeometry x="0.5" width="50" height="40" relative="1" as="geometry">
            <mxPoint x="-25" y="15" as="offset" />
          </mxGeometry>
        </mxCell>
        <mxCell id="355" value="Batch" style="rounded=1;absoluteArcSize=1;arcSize=2;html=1;strokeColor=#4284F3;gradientColor=none;shadow=0;dashed=1;fontSize=12;fontColor=#9E9E9E;align=left;verticalAlign=top;spacing=10;spacingTop=-4;fillColor=none;dashPattern=1 2;strokeWidth=2;" parent="1" vertex="1">
          <mxGeometry x="100.5" y="375" width="308" height="210" as="geometry" />
        </mxCell>
        <mxCell id="401" style="edgeStyle=orthogonalEdgeStyle;rounded=0;html=1;dashed=0;labelBackgroundColor=none;startArrow=none;startFill=0;startSize=4;endArrow=blockThin;endFill=1;endSize=4;strokeColor=#4284F3;strokeWidth=2;fontSize=12;" parent="1" source="356" target="365" edge="1">
          <mxGeometry relative="1" as="geometry">
            <Array as="points">
              <mxPoint x="228.5" y="440" />
              <mxPoint x="228.5" y="440" />
            </Array>
          </mxGeometry>
        </mxCell>
        <mxCell id="356" value="On-Premises&lt;br&gt;&lt;font style=&quot;font-size: 10px&quot;&gt;Databases&lt;/font&gt;&lt;br&gt;" style="rounded=1;absoluteArcSize=1;arcSize=2;html=1;strokeColor=none;gradientColor=none;shadow=0;dashed=0;fontSize=12;fontColor=#9E9E9E;align=left;verticalAlign=top;spacing=10;spacingTop=-4;fillColor=#EFEBE9;" parent="1" vertex="1">
          <mxGeometry x="110.5" y="403.5" width="110" height="130" as="geometry" />
        </mxCell>
        <mxCell id="357" value="" style="strokeColor=#dddddd;fillColor=#ffffff;shadow=1;strokeWidth=1;rounded=1;absoluteArcSize=1;arcSize=2;labelPosition=center;verticalLabelPosition=middle;align=center;verticalAlign=bottom;spacingLeft=0;fontColor=#999999;fontSize=12;whiteSpace=wrap;spacingBottom=2;html=1;" parent="1" vertex="1">
          <mxGeometry x="130.5" y="452.5" width="70" height="69" as="geometry" />
        </mxCell>
        <mxCell id="358" value="" style="dashed=0;connectable=0;html=1;fillColor=#757575;strokeColor=none;shape=mxgraph.gcp2.database;part=1;" parent="357" vertex="1">
          <mxGeometry x="0.5" width="50" height="45" relative="1" as="geometry">
            <mxPoint x="-25" y="12.5" as="offset" />
          </mxGeometry>
        </mxCell>
        <mxCell id="398" style="edgeStyle=orthogonalEdgeStyle;rounded=0;html=1;dashed=0;labelBackgroundColor=none;startArrow=none;startFill=0;startSize=4;endArrow=blockThin;endFill=1;endSize=4;strokeColor=#4284F3;strokeWidth=2;fontSize=12;" parent="1" source="359" target="361" edge="1">
          <mxGeometry relative="1" as="geometry">
            <Array as="points">
              <mxPoint x="328.5" y="215" />
              <mxPoint x="328.5" y="215" />
            </Array>
          </mxGeometry>
        </mxCell>
        <mxCell id="359" value="" style="shape=mxgraph.gcp2.doubleRect;strokeColor=#dddddd;fillColor=#ffffff;shadow=1;strokeWidth=1;fontSize=12;fontColor=#9E9E9E;align=center;html=1;" parent="1" vertex="1">
          <mxGeometry x="248.5" y="121" width="160" height="68" as="geometry" />
        </mxCell>
        <mxCell id="360" value="&lt;font color=&quot;#000000&quot;&gt;Cloud Apps&lt;/font&gt;&lt;br&gt;Compute Engine" style="dashed=0;connectable=0;html=1;fillColor=#5184F3;strokeColor=none;shape=mxgraph.gcp2.hexIcon;prIcon=compute_engine;part=1;labelPosition=right;verticalLabelPosition=middle;align=left;verticalAlign=middle;spacingLeft=5;fontColor=#999999;fontSize=12;" parent="359" vertex="1">
          <mxGeometry y="0.5" width="44" height="39" relative="1" as="geometry">
            <mxPoint x="5" y="-19.5" as="offset" />
          </mxGeometry>
        </mxCell>
        <mxCell id="399" style="edgeStyle=orthogonalEdgeStyle;rounded=0;html=1;dashed=0;labelBackgroundColor=none;startArrow=none;startFill=0;startSize=4;endArrow=blockThin;endFill=1;endSize=4;strokeColor=#4284F3;strokeWidth=2;fontSize=12;" parent="1" source="361" target="363" edge="1">
          <mxGeometry relative="1" as="geometry" />
        </mxCell>
        <mxCell id="361" value="" style="strokeColor=#dddddd;fillColor=#ffffff;shadow=1;strokeWidth=1;rounded=1;absoluteArcSize=1;arcSize=2;fontSize=12;fontColor=#9E9E9E;align=center;html=1;" parent="1" vertex="1">
          <mxGeometry x="248.5" y="220" width="150" height="70" as="geometry" />
        </mxCell>
        <mxCell id="362" value="&lt;font color=&quot;#000000&quot;&gt;Streaming&lt;/font&gt;&lt;br&gt;Cloud Pub/Sub&lt;hr&gt;&lt;font style=&quot;font-size: 11px&quot;&gt;Transactions&lt;/font&gt;" style="dashed=0;connectable=0;html=1;fillColor=#5184F3;strokeColor=none;shape=mxgraph.gcp2.hexIcon;prIcon=cloud_pubsub;part=1;labelPosition=right;verticalLabelPosition=middle;align=left;verticalAlign=top;spacingLeft=5;fontColor=#999999;fontSize=12;spacingTop=-8;" parent="361" vertex="1">
          <mxGeometry width="44" height="39" relative="1" as="geometry">
            <mxPoint x="5" y="7" as="offset" />
          </mxGeometry>
        </mxCell>
        <mxCell id="400" style="edgeStyle=orthogonalEdgeStyle;rounded=0;html=1;exitX=0.5;exitY=1;dashed=0;labelBackgroundColor=none;startArrow=none;startFill=0;startSize=4;endArrow=blockThin;endFill=1;endSize=4;strokeColor=#4284F3;strokeWidth=2;fontSize=12;" parent="1" source="363" target="369" edge="1">
          <mxGeometry relative="1" as="geometry" />
        </mxCell>
        <mxCell id="405" style="edgeStyle=orthogonalEdgeStyle;rounded=0;html=1;dashed=0;labelBackgroundColor=none;startArrow=none;startFill=0;startSize=4;endArrow=blockThin;endFill=1;endSize=4;strokeColor=#4284F3;strokeWidth=2;fontSize=12;" parent="1" source="363" target="371" edge="1">
          <mxGeometry relative="1" as="geometry">
            <Array as="points">
              <mxPoint x="618.5" y="255" />
              <mxPoint x="618.5" y="435" />
              <mxPoint x="528.5" y="435" />
            </Array>
          </mxGeometry>
        </mxCell>
        <mxCell id="363" value="" style="strokeColor=#dddddd;fillColor=#ffffff;shadow=1;strokeWidth=1;rounded=1;absoluteArcSize=1;arcSize=2;fontSize=12;fontColor=#9E9E9E;align=center;html=1;" parent="1" vertex="1">
          <mxGeometry x="430.5" y="220" width="168" height="70" as="geometry" />
        </mxCell>
        <mxCell id="364" value="&lt;font color=&quot;#000000&quot;&gt;Processing&lt;/font&gt;&lt;br&gt;Cloud Dataflow&lt;hr&gt;&lt;font style=&quot;font-size: 11px&quot;&gt;Transaction Streams&lt;/font&gt;" style="dashed=0;connectable=0;html=1;fillColor=#5184F3;strokeColor=none;shape=mxgraph.gcp2.hexIcon;prIcon=cloud_dataflow;part=1;labelPosition=right;verticalLabelPosition=middle;align=left;verticalAlign=top;spacingLeft=5;fontColor=#999999;fontSize=12;spacingTop=-8;" parent="363" vertex="1">
          <mxGeometry width="44" height="39" relative="1" as="geometry">
            <mxPoint x="5" y="7" as="offset" />
          </mxGeometry>
        </mxCell>
        <mxCell id="403" style="edgeStyle=orthogonalEdgeStyle;rounded=0;html=1;dashed=0;labelBackgroundColor=none;startArrow=none;startFill=0;startSize=4;endArrow=blockThin;endFill=1;endSize=4;strokeColor=#4284F3;strokeWidth=2;fontSize=12;" parent="1" source="365" target="371" edge="1">
          <mxGeometry relative="1" as="geometry">
            <Array as="points">
              <mxPoint x="498.5" y="435" />
            </Array>
          </mxGeometry>
        </mxCell>
        <mxCell id="404" style="edgeStyle=orthogonalEdgeStyle;rounded=0;html=1;dashed=0;labelBackgroundColor=none;startArrow=none;startFill=0;startSize=4;endArrow=blockThin;endFill=1;endSize=4;strokeColor=#4284F3;strokeWidth=2;fontSize=12;" parent="1" source="365" target="369" edge="1">
          <mxGeometry relative="1" as="geometry">
            <Array as="points">
              <mxPoint x="498.5" y="435" />
            </Array>
          </mxGeometry>
        </mxCell>
        <mxCell id="365" value="" style="strokeColor=#dddddd;fillColor=#ffffff;shadow=1;strokeWidth=1;rounded=1;absoluteArcSize=1;arcSize=2;fontSize=12;fontColor=#9E9E9E;align=center;html=1;" parent="1" vertex="1">
          <mxGeometry x="248.5" y="405" width="150" height="70" as="geometry" />
        </mxCell>
        <mxCell id="366" value="&lt;font color=&quot;#000000&quot;&gt;ETL&lt;/font&gt;&lt;br&gt;Cloud Dataflow&lt;hr&gt;&lt;font style=&quot;font-size: 11px&quot;&gt;Transform Data&lt;/font&gt;" style="dashed=0;connectable=0;html=1;fillColor=#5184F3;strokeColor=none;shape=mxgraph.gcp2.hexIcon;prIcon=cloud_dataflow;part=1;labelPosition=right;verticalLabelPosition=middle;align=left;verticalAlign=top;spacingLeft=5;fontColor=#999999;fontSize=12;spacingTop=-8;" parent="365" vertex="1">
          <mxGeometry width="44" height="39" relative="1" as="geometry">
            <mxPoint x="5" y="7" as="offset" />
          </mxGeometry>
        </mxCell>
        <mxCell id="402" style="edgeStyle=orthogonalEdgeStyle;rounded=0;html=1;exitX=0.5;exitY=0;dashed=0;labelBackgroundColor=none;startArrow=none;startFill=0;startSize=4;endArrow=blockThin;endFill=1;endSize=4;strokeColor=#4284F3;strokeWidth=2;fontSize=12;" parent="1" source="367" target="365" edge="1">
          <mxGeometry relative="1" as="geometry" />
        </mxCell>
        <mxCell id="367" value="" style="strokeColor=#dddddd;fillColor=#ffffff;shadow=1;strokeWidth=1;rounded=1;absoluteArcSize=1;arcSize=2;fontSize=12;fontColor=#9E9E9E;align=center;html=1;" parent="1" vertex="1">
          <mxGeometry x="248.5" y="515" width="150" height="60" as="geometry" />
        </mxCell>
        <mxCell id="368" value="&lt;font color=&quot;#000000&quot;&gt;Cloud Data&lt;/font&gt;&lt;br&gt;Cloud Storage" style="dashed=0;connectable=0;html=1;fillColor=#5184F3;strokeColor=none;shape=mxgraph.gcp2.hexIcon;prIcon=cloud_storage;part=1;labelPosition=right;verticalLabelPosition=middle;align=left;verticalAlign=middle;spacingLeft=5;fontColor=#999999;fontSize=12;" parent="367" vertex="1">
          <mxGeometry y="0.5" width="44" height="39" relative="1" as="geometry">
            <mxPoint x="5" y="-19.5" as="offset" />
          </mxGeometry>
        </mxCell>
        <mxCell id="369" value="" style="strokeColor=#dddddd;fillColor=#ffffff;shadow=1;strokeWidth=1;rounded=1;absoluteArcSize=1;arcSize=2;fontSize=12;fontColor=#9E9E9E;align=center;html=1;" parent="1" vertex="1">
          <mxGeometry x="433" y="335" width="163" height="70" as="geometry" />
        </mxCell>
        <mxCell id="370" value="&lt;font color=&quot;#000000&quot;&gt;Processed Events&lt;/font&gt;&lt;br&gt;Cloud Bigtable&lt;hr&gt;&lt;font style=&quot;font-size: 11px&quot;&gt;Events Time Series&lt;/font&gt;" style="dashed=0;connectable=0;html=1;fillColor=#5184F3;strokeColor=none;shape=mxgraph.gcp2.hexIcon;prIcon=cloud_bigtable;part=1;labelPosition=right;verticalLabelPosition=middle;align=left;verticalAlign=top;spacingLeft=5;fontColor=#999999;fontSize=12;spacingTop=-8;" parent="369" vertex="1">
          <mxGeometry width="44" height="39" relative="1" as="geometry">
            <mxPoint x="5" y="7" as="offset" />
          </mxGeometry>
        </mxCell>
        <mxCell id="372" value="" style="strokeColor=#dddddd;fillColor=#ffffff;shadow=1;strokeWidth=1;rounded=1;absoluteArcSize=1;arcSize=2;fontSize=12;fontColor=#9E9E9E;align=center;html=1;" parent="1" vertex="1">
          <mxGeometry x="439.5" y="495" width="150" height="60" as="geometry" />
        </mxCell>
        <mxCell id="373" value="&lt;font color=&quot;#000000&quot;&gt;Rules Engine&lt;/font&gt;&lt;br&gt;Cloud Dataflow" style="dashed=0;connectable=0;html=1;fillColor=#5184F3;strokeColor=none;shape=mxgraph.gcp2.hexIcon;prIcon=cloud_dataflow;part=1;labelPosition=right;verticalLabelPosition=middle;align=left;verticalAlign=middle;spacingLeft=5;fontColor=#999999;fontSize=12;" parent="372" vertex="1">
          <mxGeometry y="0.5" width="44" height="39" relative="1" as="geometry">
            <mxPoint x="5" y="-19.5" as="offset" />
          </mxGeometry>
        </mxCell>
        <mxCell id="374" value="" style="strokeColor=#dddddd;fillColor=#ffffff;shadow=1;strokeWidth=1;rounded=1;absoluteArcSize=1;arcSize=2;fontSize=12;fontColor=#9E9E9E;align=center;html=1;" parent="1" vertex="1">
          <mxGeometry x="439.5" y="565" width="150" height="60" as="geometry" />
        </mxCell>
        <mxCell id="375" value="&lt;font color=&quot;#000000&quot;&gt;Rules Engine&lt;/font&gt;&lt;br&gt;Cloud Dataproc" style="dashed=0;connectable=0;html=1;fillColor=#5184F3;strokeColor=none;shape=mxgraph.gcp2.hexIcon;prIcon=cloud_dataproc;part=1;labelPosition=right;verticalLabelPosition=middle;align=left;verticalAlign=middle;spacingLeft=5;fontColor=#999999;fontSize=12;" parent="374" vertex="1">
          <mxGeometry y="0.5" width="44" height="39" relative="1" as="geometry">
            <mxPoint x="5" y="-19.5" as="offset" />
          </mxGeometry>
        </mxCell>
        <mxCell id="408" style="edgeStyle=orthogonalEdgeStyle;rounded=0;html=1;dashed=0;labelBackgroundColor=none;startArrow=none;startFill=0;startSize=4;endArrow=blockThin;endFill=1;endSize=4;strokeColor=#4284F3;strokeWidth=2;fontSize=12;" parent="1" source="376" target="388" edge="1">
          <mxGeometry relative="1" as="geometry">
            <Array as="points">
              <mxPoint x="888.5" y="145" />
              <mxPoint x="888.5" y="145" />
            </Array>
          </mxGeometry>
        </mxCell>
        <mxCell id="376" value="" style="strokeColor=#dddddd;fillColor=#ffffff;shadow=1;strokeWidth=1;rounded=1;absoluteArcSize=1;arcSize=2;fontSize=12;fontColor=#9E9E9E;align=center;html=1;" parent="1" vertex="1">
          <mxGeometry x="680.5" y="115" width="158" height="60" as="geometry" />
        </mxCell>
        <mxCell id="377" value="&lt;font color=&quot;#000000&quot;&gt;Push to Devices&lt;/font&gt;&lt;br&gt;App Engine" style="dashed=0;connectable=0;html=1;fillColor=#5184F3;strokeColor=none;shape=mxgraph.gcp2.hexIcon;prIcon=app_engine;part=1;labelPosition=right;verticalLabelPosition=middle;align=left;verticalAlign=middle;spacingLeft=5;fontColor=#999999;fontSize=12;" parent="376" vertex="1">
          <mxGeometry y="0.5" width="44" height="39" relative="1" as="geometry">
            <mxPoint x="5" y="-19.5" as="offset" />
          </mxGeometry>
        </mxCell>
        <mxCell id="409" style="edgeStyle=orthogonalEdgeStyle;rounded=0;html=1;dashed=0;labelBackgroundColor=none;startArrow=none;startFill=0;startSize=4;endArrow=blockThin;endFill=1;endSize=4;strokeColor=#4284F3;strokeWidth=2;fontSize=12;" parent="1" source="380" target="376" edge="1">
          <mxGeometry relative="1" as="geometry" />
        </mxCell>
        <mxCell id="410" style="edgeStyle=orthogonalEdgeStyle;rounded=0;html=1;dashed=0;labelBackgroundColor=none;startArrow=none;startFill=0;startSize=4;endArrow=blockThin;endFill=1;endSize=4;strokeColor=#4284F3;strokeWidth=2;fontSize=12;" parent="1" source="380" target="382" edge="1">
          <mxGeometry relative="1" as="geometry">
            <Array as="points">
              <mxPoint x="759.5" y="295" />
              <mxPoint x="759.5" y="295" />
            </Array>
          </mxGeometry>
        </mxCell>
        <mxCell id="380" value="" style="strokeColor=#dddddd;fillColor=#ffffff;shadow=1;strokeWidth=1;rounded=1;absoluteArcSize=1;arcSize=2;fontSize=12;fontColor=#9E9E9E;align=center;html=1;" parent="1" vertex="1">
          <mxGeometry x="680.5" y="200" width="158" height="70" as="geometry" />
        </mxCell>
        <mxCell id="381" value="&lt;font color=&quot;#000000&quot;&gt;Messaging&lt;/font&gt;&lt;br&gt;Cloud Pub/Sub&lt;hr&gt;&lt;font style=&quot;font-size: 11px&quot;&gt;Rules Actions&lt;/font&gt;" style="dashed=0;connectable=0;html=1;fillColor=#5184F3;strokeColor=none;shape=mxgraph.gcp2.hexIcon;prIcon=cloud_pubsub;part=1;labelPosition=right;verticalLabelPosition=middle;align=left;verticalAlign=top;spacingLeft=5;fontColor=#999999;fontSize=12;spacingTop=-8;" parent="380" vertex="1">
          <mxGeometry width="44" height="39" relative="1" as="geometry">
            <mxPoint x="5" y="7" as="offset" />
          </mxGeometry>
        </mxCell>
        <mxCell id="382" value="" style="shape=mxgraph.gcp2.doubleRect;strokeColor=#dddddd;fillColor=#ffffff;shadow=1;strokeWidth=1;fontSize=12;fontColor=#9E9E9E;align=center;html=1;" parent="1" vertex="1">
          <mxGeometry x="680.5" y="301" width="168" height="68" as="geometry" />
        </mxCell>
        <mxCell id="383" value="&lt;font color=&quot;#000000&quot;&gt;Cloud Apps&lt;/font&gt;&lt;br&gt;Compute Engine" style="dashed=0;connectable=0;html=1;fillColor=#5184F3;strokeColor=none;shape=mxgraph.gcp2.hexIcon;prIcon=compute_engine;part=1;labelPosition=right;verticalLabelPosition=middle;align=left;verticalAlign=middle;spacingLeft=5;fontColor=#999999;fontSize=12;" parent="382" vertex="1">
          <mxGeometry y="0.5" width="44" height="39" relative="1" as="geometry">
            <mxPoint x="5" y="-19.5" as="offset" />
          </mxGeometry>
        </mxCell>
        <mxCell id="411" style="edgeStyle=orthogonalEdgeStyle;rounded=0;html=1;dashed=0;labelBackgroundColor=none;startArrow=none;startFill=0;startSize=4;endArrow=blockThin;endFill=1;endSize=4;strokeColor=#4284F3;strokeWidth=2;fontSize=12;" parent="1" source="384" target="391" edge="1">
          <mxGeometry relative="1" as="geometry" />
        </mxCell>
        <mxCell id="412" style="edgeStyle=orthogonalEdgeStyle;rounded=0;html=1;dashed=0;labelBackgroundColor=none;startArrow=none;startFill=0;startSize=4;endArrow=blockThin;endFill=1;endSize=4;strokeColor=#4284F3;strokeWidth=2;fontSize=12;" parent="1" source="384" target="386" edge="1">
          <mxGeometry relative="1" as="geometry">
            <Array as="points">
              <mxPoint x="759.5" y="505" />
              <mxPoint x="759.5" y="505" />
            </Array>
          </mxGeometry>
        </mxCell>
        <mxCell id="384" value="" style="strokeColor=#dddddd;fillColor=#ffffff;shadow=1;strokeWidth=1;rounded=1;absoluteArcSize=1;arcSize=2;fontSize=12;fontColor=#9E9E9E;align=center;html=1;" parent="1" vertex="1">
          <mxGeometry x="680.5" y="405" width="157" height="70" as="geometry" />
        </mxCell>
        <mxCell id="385" value="&lt;font color=&quot;#000000&quot;&gt;Data Warehouse&lt;/font&gt;&lt;br&gt;BigQuery&lt;hr&gt;&lt;font style=&quot;font-size: 11px&quot;&gt;Execution Results&lt;/font&gt;" style="dashed=0;connectable=0;html=1;fillColor=#5184F3;strokeColor=none;shape=mxgraph.gcp2.hexIcon;prIcon=bigquery;part=1;labelPosition=right;verticalLabelPosition=middle;align=left;verticalAlign=top;spacingLeft=5;fontColor=#999999;fontSize=12;spacingTop=-8;" parent="384" vertex="1">
          <mxGeometry width="44" height="39" relative="1" as="geometry">
            <mxPoint x="5" y="7" as="offset" />
          </mxGeometry>
        </mxCell>
        <mxCell id="386" value="" style="strokeColor=#dddddd;fillColor=#ffffff;shadow=1;strokeWidth=1;rounded=1;absoluteArcSize=1;arcSize=2;fontSize=12;fontColor=#9E9E9E;align=center;html=1;" parent="1" vertex="1">
          <mxGeometry x="680.5" y="515" width="158" height="60" as="geometry" />
        </mxCell>
        <mxCell id="387" value="&lt;font color=&quot;#000000&quot;&gt;Data Analysis&lt;/font&gt;&lt;br&gt;Cloud Datalab" style="dashed=0;connectable=0;html=1;fillColor=#5184F3;strokeColor=none;shape=mxgraph.gcp2.hexIcon;prIcon=cloud_datalab;part=1;labelPosition=right;verticalLabelPosition=middle;align=left;verticalAlign=middle;spacingLeft=5;fontColor=#999999;fontSize=12;" parent="386" vertex="1">
          <mxGeometry y="0.5" width="44" height="39" relative="1" as="geometry">
            <mxPoint x="5" y="-19.5" as="offset" />
          </mxGeometry>
        </mxCell>
        <mxCell id="388" value="Mobile Devices&lt;br&gt;&lt;font style=&quot;font-size: 10px&quot;&gt;Push Notification&lt;/font&gt;&lt;br&gt;" style="rounded=1;absoluteArcSize=1;arcSize=2;html=1;strokeColor=none;gradientColor=none;shadow=0;dashed=0;fontSize=12;fontColor=#9E9E9E;align=left;verticalAlign=top;spacing=10;spacingTop=-4;fillColor=#F1F8E9;" parent="1" vertex="1">
          <mxGeometry x="898.5" y="95" width="110" height="130" as="geometry" />
        </mxCell>
        <mxCell id="389" value="" style="strokeColor=#dddddd;fillColor=#ffffff;shadow=1;strokeWidth=1;rounded=1;absoluteArcSize=1;arcSize=2;labelPosition=center;verticalLabelPosition=middle;align=center;verticalAlign=bottom;spacingLeft=0;fontColor=#999999;fontSize=12;whiteSpace=wrap;spacingBottom=2;html=1;" parent="1" vertex="1">
          <mxGeometry x="918.5" y="140" width="70" height="70" as="geometry" />
        </mxCell>
        <mxCell id="390" value="" style="dashed=0;connectable=0;html=1;fillColor=#757575;strokeColor=none;shape=mxgraph.gcp2.mobile_devices;part=1;" parent="389" vertex="1">
          <mxGeometry x="0.5" width="50" height="36.5" relative="1" as="geometry">
            <mxPoint x="-25" y="16.75" as="offset" />
          </mxGeometry>
        </mxCell>
        <mxCell id="391" value="Report &amp;amp; Share&lt;br&gt;&lt;font style=&quot;font-size: 10px&quot;&gt;Business Analysis&lt;/font&gt;&lt;br&gt;" style="rounded=1;absoluteArcSize=1;arcSize=2;html=1;strokeColor=none;gradientColor=none;shadow=0;dashed=0;fontSize=12;fontColor=#9E9E9E;align=left;verticalAlign=top;spacing=10;spacingTop=-4;fillColor=#F3E5F5;" parent="1" vertex="1">
          <mxGeometry x="898.5" y="376" width="170" height="128" as="geometry" />
        </mxCell>
        <mxCell id="392" value="" style="strokeColor=#dddddd;fillColor=#ffffff;shadow=1;strokeWidth=1;rounded=1;absoluteArcSize=1;arcSize=2;labelPosition=center;verticalLabelPosition=middle;align=center;verticalAlign=bottom;spacingLeft=0;fontColor=#999999;fontSize=12;whiteSpace=wrap;spacingBottom=2;html=1;" parent="1" vertex="1">
          <mxGeometry x="908.5" y="423" width="70" height="70" as="geometry" />
        </mxCell>
        <mxCell id="393" value="" style="dashed=0;connectable=0;html=1;fillColor=#757575;strokeColor=none;shape=mxgraph.gcp2.report;part=1;" parent="392" vertex="1">
          <mxGeometry x="0.5" width="50" height="50" relative="1" as="geometry">
            <mxPoint x="-25" y="10" as="offset" />
          </mxGeometry>
        </mxCell>
        <mxCell id="394" value="" style="strokeColor=#dddddd;fillColor=#ffffff;shadow=1;strokeWidth=1;rounded=1;absoluteArcSize=1;arcSize=2;labelPosition=center;verticalLabelPosition=middle;align=center;verticalAlign=bottom;spacingLeft=0;fontColor=#999999;fontSize=12;whiteSpace=wrap;spacingBottom=2;html=1;" parent="1" vertex="1">
          <mxGeometry x="988.5" y="423" width="70" height="70" as="geometry" />
        </mxCell>
        <mxCell id="395" value="" style="dashed=0;connectable=0;html=1;fillColor=#757575;strokeColor=none;shape=mxgraph.gcp2.users;part=1;" parent="394" vertex="1">
          <mxGeometry x="0.5" width="50" height="31.5" relative="1" as="geometry">
            <mxPoint x="-25" y="19.25" as="offset" />
          </mxGeometry>
        </mxCell>
      </root>
    </mxGraphModel>
  </diagram>
  <diagram id="pKjLDIvy_vEmeLbc8ogv" name="第 2 页">
    <mxGraphModel dx="1434" dy="764" grid="1" gridSize="10" guides="1" tooltips="1" connect="1" arrows="1" fold="1" page="1" pageScale="1" pageWidth="850" pageHeight="1100" math="0" shadow="0">
      <root>
        <mxCell id="0" />
        <mxCell id="1" parent="0" />
        <mxCell id="kE3XrE7DXtP0te7mfZ7Q-1" value="" style="shape=image;verticalLabelPosition=bottom;verticalAlign=top;imageAspect=0;aspect=fixed;image=data:image/svg+xml,PHN2ZyB4bWxuczpkYz0iaHR0cDovL3B1cmwub3JnL2RjL2VsZW1lbnRzLzEuMS8iIHhtbG5zOmNjPSJodHRwOi8vY3JlYXRpdmVjb21tb25zLm9yZy9ucyMiIHhtbG5zOnJkZj0iaHR0cDovL3d3dy53My5vcmcvMTk5OS8wMi8yMi1yZGYtc3ludGF4LW5zIyIgeG1sbnM6c3ZnPSJodHRwOi8vd3d3LnczLm9yZy8yMDAwL3N2ZyIgeG1sbnM9Imh0dHA6Ly93d3cudzMub3JnLzIwMDAvc3ZnIiB4bWxuczpzb2RpcG9kaT0iaHR0cDovL3NvZGlwb2RpLnNvdXJjZWZvcmdlLm5ldC9EVEQvc29kaXBvZGktMC5kdGQiIHhtbG5zOmlua3NjYXBlPSJodHRwOi8vd3d3Lmlua3NjYXBlLm9yZy9uYW1lc3BhY2VzL2lua3NjYXBlIiB3aWR0aD0iMTguMDM1MzM0bW0iIGhlaWdodD0iMTcuNTAwMzc4bW0iIHZpZXdCb3g9IjAgMCAxOC4wMzUzMzQgMTcuNTAwMzc4IiB2ZXJzaW9uPSIxLjEiIGlkPSJzdmcxMzgyNiIgaW5rc2NhcGU6dmVyc2lvbj0iMC45MSByMTM3MjUiIHNvZGlwb2RpOmRvY25hbWU9ImNyZC5zdmciPiYjeGE7ICA8ZGVmcyBpZD0iZGVmczEzODIwIi8+JiN4YTsgIDxzb2RpcG9kaTpuYW1lZHZpZXcgaWQ9ImJhc2UiIHBhZ2Vjb2xvcj0iI2ZmZmZmZiIgYm9yZGVyY29sb3I9IiM2NjY2NjYiIGJvcmRlcm9wYWNpdHk9IjEuMCIgaW5rc2NhcGU6cGFnZW9wYWNpdHk9IjAuMCIgaW5rc2NhcGU6cGFnZXNoYWRvdz0iMiIgaW5rc2NhcGU6em9vbT0iOCIgaW5rc2NhcGU6Y3g9Ii0yLjA5MDAwNCIgaW5rc2NhcGU6Y3k9IjMzLjc1MjIzOSIgaW5rc2NhcGU6ZG9jdW1lbnQtdW5pdHM9Im1tIiBpbmtzY2FwZTpjdXJyZW50LWxheWVyPSJsYXllcjEiIHNob3dncmlkPSJmYWxzZSIgaW5rc2NhcGU6d2luZG93LXdpZHRoPSIxNDQwIiBpbmtzY2FwZTp3aW5kb3ctaGVpZ2h0PSI3NzUiIGlua3NjYXBlOndpbmRvdy14PSIwIiBpbmtzY2FwZTp3aW5kb3cteT0iMSIgaW5rc2NhcGU6d2luZG93LW1heGltaXplZD0iMSIgZml0LW1hcmdpbi10b3A9IjAiIGZpdC1tYXJnaW4tbGVmdD0iMCIgZml0LW1hcmdpbi1yaWdodD0iMCIgZml0LW1hcmdpbi1ib3R0b209IjAiLz4mI3hhOyAgPG1ldGFkYXRhIGlkPSJtZXRhZGF0YTEzODIzIj4mI3hhOyAgICA8cmRmOlJERj4mI3hhOyAgICAgIDxjYzpXb3JrIHJkZjphYm91dD0iIj4mI3hhOyAgICAgICAgPGRjOmZvcm1hdD5pbWFnZS9zdmcreG1sPC9kYzpmb3JtYXQ+JiN4YTsgICAgICAgIDxkYzp0eXBlIHJkZjpyZXNvdXJjZT0iaHR0cDovL3B1cmwub3JnL2RjL2RjbWl0eXBlL1N0aWxsSW1hZ2UiLz4mI3hhOyAgICAgICAgPGRjOnRpdGxlLz4mI3hhOyAgICAgIDwvY2M6V29yaz4mI3hhOyAgICA8L3JkZjpSREY+JiN4YTsgIDwvbWV0YWRhdGE+JiN4YTsgIDxnIGlua3NjYXBlOmxhYmVsPSJDYWxxdWUgMSIgaW5rc2NhcGU6Z3JvdXBtb2RlPSJsYXllciIgaWQ9ImxheWVyMSIgdHJhbnNmb3JtPSJ0cmFuc2xhdGUoLTAuOTkyNjI2MzgsLTEuMTc0MTgxKSI+JiN4YTsgICAgPGcgaWQ9Imc3MCIgdHJhbnNmb3JtPSJtYXRyaXgoMS4wMTQ4ODg3LDAsMCwxLjAxNDg4ODcsMTYuOTAyMTQ2LC0yLjY5ODcyNikiPiYjeGE7ICAgICAgPHBhdGggaW5rc2NhcGU6ZXhwb3J0LXlkcGk9IjI1MC41NSIgaW5rc2NhcGU6ZXhwb3J0LXhkcGk9IjI1MC41NSIgaW5rc2NhcGU6ZXhwb3J0LWZpbGVuYW1lPSJuZXcucG5nIiBpbmtzY2FwZTpjb25uZWN0b3ItY3VydmF0dXJlPSIwIiBpZD0icGF0aDMwNTUiIGQ9Im0gLTYuODQ5MjAxNSw0LjI3MjQ2NjggYSAxLjExOTEyNTUsMS4xMDk5NjcxIDAgMCAwIC0wLjQyODg4MTgsMC4xMDg1MzAzIGwgLTUuODUyNDAzNywyLjc5NjMzOTQgYSAxLjExOTEyNTUsMS4xMDk5NjcxIDAgMCAwIC0wLjYwNTUyNCwwLjc1Mjk3NTkgbCAtMS40NDM4MjgsNi4yODEyODQ2IGEgMS4xMTkxMjU1LDEuMTA5OTY3MSAwIDAgMCAwLjE1MTk0MywwLjg1MTAyOCAxLjExOTEyNTUsMS4xMDk5NjcxIDAgMCAwIDAuMDYzNjIsMC4wODgzMiBsIDQuMDUwOCw1LjAzNjU1NSBhIDEuMTE5MTI1NSwxLjEwOTk2NzEgMCAwIDAgMC44NzQ5NzksMC40MTc2NTQgbCA2LjQ5NjEwMTEsLTAuMDAxNSBhIDEuMTE5MTI1NSwxLjEwOTk2NzEgMCAwIDAgMC44NzQ5Nzg4LC0wLjQxNjkwNiBMIDEuMzgxODg3MiwxNS4xNDk0NTMgQSAxLjExOTEyNTUsMS4xMDk5NjcxIDAgMCAwIDEuNTk4MTk4NiwxNC4yMTAxMDQgTCAwLjE1MjEyNjU3LDcuOTI4ODE1NCBBIDEuMTE5MTI1NSwxLjEwOTk2NzEgMCAwIDAgLTAuNDUzMzk3OTQsNy4xNzU4Mzk2IEwgLTYuMzA2NTQ5Niw0LjM4MDk5NzEgQSAxLjExOTEyNTUsMS4xMDk5NjcxIDAgMCAwIC02Ljg0OTIwMTUsNC4yNzI0NjY4IFoiIHN0eWxlPSJmaWxsOiMzMjZjZTU7ZmlsbC1vcGFjaXR5OjE7c3Ryb2tlOm5vbmU7c3Ryb2tlLXdpZHRoOjA7c3Ryb2tlLW1pdGVybGltaXQ6NDtzdHJva2UtZGFzaGFycmF5Om5vbmU7c3Ryb2tlLW9wYWNpdHk6MSIvPiYjeGE7ICAgICAgPHBhdGggaWQ9InBhdGgzMDU0LTItOSIgZD0iTSAtNi44NTIzNDM1LDMuODE3NjM3MiBBIDEuMTgxNDMwNCwxLjE3MTc2MiAwIDAgMCAtNy4zMDQ0Mjg0LDMuOTMyOTA0IGwgLTYuMTc4NzQyNiwyLjk1MTI3NTggYSAxLjE4MTQzMDQsMS4xNzE3NjIgMCAwIDAgLTAuNjM5MjA2LDAuNzk0ODkxIGwgLTEuNTIzOTE1LDYuNjMwODI4MiBhIDEuMTgxNDMwNCwxLjE3MTc2MiAwIDAgMCAwLjE2MDE3NSwwLjg5ODkzIDEuMTgxNDMwNCwxLjE3MTc2MiAwIDAgMCAwLjA2NzM2LDAuMDkyODEgbCA0LjI3NjA5NCw1LjMxNzIzNiBhIDEuMTgxNDMwNCwxLjE3MTc2MiAwIDAgMCAwLjkyMzYzLDAuNDQwODU4IGwgNi44NTc2MTg4LC0wLjAwMTUgYSAxLjE4MTQzMDQsMS4xNzE3NjIgMCAwIDAgMC45MjM2MzA4LC0wLjQ0MDExIGwgNC4yNzQ1OTY2LC01LjMxNzk4NSBhIDEuMTgxNDMwNCwxLjE3MTc2MiAwIDAgMCAwLjIyODI4OCwtMC45OTA5OTMgTCAwLjUzODk0NDM5LDcuNjc3NTczOCBBIDEuMTgxNDMwNCwxLjE3MTc2MiAwIDAgMCAtMC4xMDAyNjEwMSw2Ljg4MzQzMTMgTCAtNi4yNzkwMDM3LDMuOTMyMTU1NSBBIDEuMTgxNDMwNCwxLjE3MTc2MiAwIDAgMCAtNi44NTIzNDM1LDMuODE3NjM3MiBaIG0gMC4wMDI5OSwwLjQ1NTA3ODkgYSAxLjExOTEyNTUsMS4xMDk5NjcxIDAgMCAxIDAuNTQyNjUxNywwLjEwODUzMDMgbCA1Ljg1MzE1MTY5LDIuNzk0ODQyNSBBIDEuMTE5MTI1NSwxLjEwOTk2NzEgMCAwIDEgMC4xNTE5NzgxMSw3LjkyOTA2NDggTCAxLjU5ODA1MSwxNC4yMTAzNSBhIDEuMTE5MTI1NSwxLjEwOTk2NzEgMCAwIDEgLTAuMjE2MzEyMywwLjkzOTM0OCBsIC00LjA0OTMwMzIsNS4wMzczMDQgYSAxLjExOTEyNTUsMS4xMDk5NjcxIDAgMCAxIC0wLjg3NDk3ODksMC40MTY5MDYgbCAtNi40OTYxMDA2LDAuMDAxNSBhIDEuMTE5MTI1NSwxLjEwOTk2NzEgMCAwIDEgLTAuODc0OTc5LC0wLjQxNzY1MiBsIC00LjA1MDgsLTUuMDM2NTU0IGEgMS4xMTkxMjU1LDEuMTA5OTY3MSAwIDAgMSAtMC4wNjM2MiwtMC4wODgzMiAxLjExOTEyNTUsMS4xMDk5NjcxIDAgMCAxIC0wLjE1MTk0MiwtMC44NTEwMjggbCAxLjQ0MzgyNywtNi4yODEyODUzIGEgMS4xMTkxMjU1LDEuMTA5OTY3MSAwIDAgMSAwLjYwNTUyNCwtMC43NTI5NzU4IGwgNS44NTI0MDM2LC0yLjc5NjMzOTUgYSAxLjExOTEyNTUsMS4xMDk5NjcxIDAgMCAxIDAuNDI4ODgxOSwtMC4xMDg1MzAzIHoiIHN0eWxlPSJjb2xvcjojMDAwMDAwO2ZvbnQtc3R5bGU6bm9ybWFsO2ZvbnQtdmFyaWFudDpub3JtYWw7Zm9udC13ZWlnaHQ6bm9ybWFsO2ZvbnQtc3RyZXRjaDpub3JtYWw7Zm9udC1zaXplOm1lZGl1bTtsaW5lLWhlaWdodDpub3JtYWw7Zm9udC1mYW1pbHk6U2FuczstaW5rc2NhcGUtZm9udC1zcGVjaWZpY2F0aW9uOlNhbnM7dGV4dC1pbmRlbnQ6MDt0ZXh0LWFsaWduOnN0YXJ0O3RleHQtZGVjb3JhdGlvbjpub25lO3RleHQtZGVjb3JhdGlvbi1saW5lOm5vbmU7bGV0dGVyLXNwYWNpbmc6bm9ybWFsO3dvcmQtc3BhY2luZzpub3JtYWw7dGV4dC10cmFuc2Zvcm06bm9uZTt3cml0aW5nLW1vZGU6bHItdGI7ZGlyZWN0aW9uOmx0cjtiYXNlbGluZS1zaGlmdDpiYXNlbGluZTt0ZXh0LWFuY2hvcjpzdGFydDtkaXNwbGF5OmlubGluZTtvdmVyZmxvdzp2aXNpYmxlO3Zpc2liaWxpdHk6dmlzaWJsZTtmaWxsOiNmZmZmZmY7ZmlsbC1vcGFjaXR5OjE7ZmlsbC1ydWxlOm5vbnplcm87c3Ryb2tlOm5vbmU7c3Ryb2tlLXdpZHRoOjA7c3Ryb2tlLW1pdGVybGltaXQ6NDtzdHJva2UtZGFzaGFycmF5Om5vbmU7bWFya2VyOm5vbmU7ZW5hYmxlLWJhY2tncm91bmQ6YWNjdW11bGF0ZSIgaW5rc2NhcGU6Y29ubmVjdG9yLWN1cnZhdHVyZT0iMCIvPiYjeGE7ICAgIDwvZz4mI3hhOyAgICA8dGV4dCBpZD0idGV4dDIwNjYiIHk9IjE2LjgxMTc3NSIgeD0iMTAuMDU1MDc5IiBzdHlsZT0iZm9udC1zdHlsZTpub3JtYWw7Zm9udC13ZWlnaHQ6bm9ybWFsO2ZvbnQtc2l6ZToxMC41ODMzMzMwMnB4O2xpbmUtaGVpZ2h0OjYuNjE0NTgzNDlweDtmb250LWZhbWlseTpTYW5zO2xldHRlci1zcGFjaW5nOjBweDt3b3JkLXNwYWNpbmc6MHB4O2ZpbGw6I2ZmZmZmZjtmaWxsLW9wYWNpdHk6MTtzdHJva2U6bm9uZTtzdHJva2Utd2lkdGg6MC4yNjQ1ODMzMnB4O3N0cm9rZS1saW5lY2FwOmJ1dHQ7c3Ryb2tlLWxpbmVqb2luOm1pdGVyO3N0cm9rZS1vcGFjaXR5OjEiIHhtbDpzcGFjZT0icHJlc2VydmUiPjx0c3BhbiBzdHlsZT0iZm9udC1zdHlsZTpub3JtYWw7Zm9udC12YXJpYW50Om5vcm1hbDtmb250LXdlaWdodDpub3JtYWw7Zm9udC1zdHJldGNoOm5vcm1hbDtmb250LXNpemU6Mi44MjIyMjIyM3B4O2ZvbnQtZmFtaWx5OkFyaWFsOy1pbmtzY2FwZS1mb250LXNwZWNpZmljYXRpb246J0FyaWFsLCBOb3JtYWwnO3RleHQtYWxpZ246Y2VudGVyO3dyaXRpbmctbW9kZTpsci10Yjt0ZXh0LWFuY2hvcjptaWRkbGU7ZmlsbDojZmZmZmZmO2ZpbGwtb3BhY2l0eToxO3N0cm9rZS13aWR0aDowLjI2NDU4MzMycHgiIHk9IjE2LjgxMTc3NSIgeD0iMTAuMDU1MDc5IiBpZD0idHNwYW4yMDY0IiBzb2RpcG9kaTpyb2xlPSJsaW5lIj5jcmQ8L3RzcGFuPjwvdGV4dD4mI3hhOyAgICA8cGF0aCBzdHlsZT0iZmlsbDojZmZmZmZmO2ZpbGwtb3BhY2l0eToxO3N0cm9rZS13aWR0aDowLjQ2MTg1MzY4IiBpbmtzY2FwZTpjb25uZWN0b3ItY3VydmF0dXJlPSIwIiBkPSJtIDE0LjI2OTU2Niw4Ljc3NzUyMTkgLTAuNjkyNzgxLDAgMCwtMS44NDc0MTYgYyAwLC0wLjUwODAzODMgLTAuNDE1NjY4LC0wLjkyMzcwNjMgLTAuOTIzNzA2LC0wLjkyMzcwNjMgbCAtMS44NDc0MTYsMCAwLC0wLjY5Mjc4IGMgMCwtMC42MzczNTkgLTAuNTE3Mjc1LC0xLjE1NDYzNiAtMS4xNTQ2MzM0LC0xLjE1NDYzNiAtMC42MzczNTc4LDAgLTEuMTU0NjMzOCwwLjUxNzI3NyAtMS4xNTQ2MzM4LDEuMTU0NjM2IGwgMCwwLjY5Mjc4IC0xLjg0NzQxNiwwIGMgLTAuNTA4MDM4LDAgLTAuOTE5MDg5LDAuNDE1NjY4IC0wLjkxOTA4OSwwLjkyMzcwNjMgbCAwLDEuNzU1MDQ1IDAuNjg4MTY0LDAgYyAwLjY4ODE2MSwwIDEuMjQ3MDA1LDAuNTU4ODQzIDEuMjQ3MDA1LDEuMjQ3MDA1IDAsMC42ODgxNjIxIC0wLjU1ODg0NCwxLjI0NzAwNTEgLTEuMjQ3MDA1LDEuMjQ3MDA1MSBsIC0wLjY5Mjc4MSwwIDAsMS43NTUwNDUgYyAwLDAuNTA4MDM4IDAuNDE1NjY4LDAuOTIzNzA2IDAuOTIzNzA2LDAuOTIzNzA2IGwgMS43NTUwNDUsMCAwLC0wLjY5Mjc4MSBjIDAsLTAuNjg4MTYxIDAuNTU4ODQzLC0xLjI0NzAwNSAxLjI0NzAwNDgsLTEuMjQ3MDA1IDAuNjg4MTYyNCwwIDEuMjQ3MDA0NCwwLjU1ODg0NCAxLjI0NzAwNDQsMS4yNDcwMDUgbCAwLDAuNjkyNzgxIDEuNzU1MDQ1LDAgYyAwLjUwODAzOCwwIDAuOTIzNzA2LC0wLjQxNTY2OCAwLjkyMzcwNiwtMC45MjM3MDYgbCAwLC0xLjg0NzQxNiAwLjY5Mjc4MSwwIGMgMC42MzczNTgsMCAxLjE1NDYzNSwtMC41MTcyNzYgMS4xNTQ2MzUsLTEuMTU0NjM0MSAwLC0wLjYzNzM1OCAtMC41MTcyNzcsLTEuMTU0NjM0IC0xLjE1NDYzNSwtMS4xNTQ2MzQgeiIgaWQ9InBhdGg3NDE1Ii8+JiN4YTsgIDwvZz4mI3hhOzwvc3ZnPg==" vertex="1" parent="1">
          <mxGeometry x="300" y="330" width="80" height="80" as="geometry" />
        </mxCell>
        <mxCell id="kE3XrE7DXtP0te7mfZ7Q-2" value="" style="shape=image;verticalLabelPosition=bottom;verticalAlign=top;imageAspect=0;aspect=fixed;image=data:image/svg+xml,PHN2ZyB4bWxuczpkYz0iaHR0cDovL3B1cmwub3JnL2RjL2VsZW1lbnRzLzEuMS8iIHhtbG5zOmNjPSJodHRwOi8vY3JlYXRpdmVjb21tb25zLm9yZy9ucyMiIHhtbG5zOnJkZj0iaHR0cDovL3d3dy53My5vcmcvMTk5OS8wMi8yMi1yZGYtc3ludGF4LW5zIyIgeG1sbnM6c3ZnPSJodHRwOi8vd3d3LnczLm9yZy8yMDAwL3N2ZyIgeG1sbnM9Imh0dHA6Ly93d3cudzMub3JnLzIwMDAvc3ZnIiB4bWxuczpzb2RpcG9kaT0iaHR0cDovL3NvZGlwb2RpLnNvdXJjZWZvcmdlLm5ldC9EVEQvc29kaXBvZGktMC5kdGQiIHhtbG5zOmlua3NjYXBlPSJodHRwOi8vd3d3Lmlua3NjYXBlLm9yZy9uYW1lc3BhY2VzL2lua3NjYXBlIiB3aWR0aD0iMTguMDM1MzM0bW0iIGhlaWdodD0iMTcuNTAwMzc4bW0iIHZpZXdCb3g9IjAgMCAxOC4wMzUzMzQgMTcuNTAwMzc4IiB2ZXJzaW9uPSIxLjEiIGlkPSJzdmcxMzgyNiIgaW5rc2NhcGU6dmVyc2lvbj0iMC45MSByMTM3MjUiIHNvZGlwb2RpOmRvY25hbWU9InBvZC5zdmciPiYjeGE7ICA8ZGVmcyBpZD0iZGVmczEzODIwIi8+JiN4YTsgIDxzb2RpcG9kaTpuYW1lZHZpZXcgaWQ9ImJhc2UiIHBhZ2Vjb2xvcj0iI2ZmZmZmZiIgYm9yZGVyY29sb3I9IiM2NjY2NjYiIGJvcmRlcm9wYWNpdHk9IjEuMCIgaW5rc2NhcGU6cGFnZW9wYWNpdHk9IjAuMCIgaW5rc2NhcGU6cGFnZXNoYWRvdz0iMiIgaW5rc2NhcGU6em9vbT0iOCIgaW5rc2NhcGU6Y3g9IjE2Ljg0NzQ5NiIgaW5rc2NhcGU6Y3k9IjMzLjc1MjIzOSIgaW5rc2NhcGU6ZG9jdW1lbnQtdW5pdHM9Im1tIiBpbmtzY2FwZTpjdXJyZW50LWxheWVyPSJsYXllcjEiIHNob3dncmlkPSJmYWxzZSIgaW5rc2NhcGU6d2luZG93LXdpZHRoPSIxNDQwIiBpbmtzY2FwZTp3aW5kb3ctaGVpZ2h0PSI3NzUiIGlua3NjYXBlOndpbmRvdy14PSIwIiBpbmtzY2FwZTp3aW5kb3cteT0iMSIgaW5rc2NhcGU6d2luZG93LW1heGltaXplZD0iMSIgZml0LW1hcmdpbi10b3A9IjAiIGZpdC1tYXJnaW4tbGVmdD0iMCIgZml0LW1hcmdpbi1yaWdodD0iMCIgZml0LW1hcmdpbi1ib3R0b209IjAiLz4mI3hhOyAgPG1ldGFkYXRhIGlkPSJtZXRhZGF0YTEzODIzIj4mI3hhOyAgICA8cmRmOlJERj4mI3hhOyAgICAgIDxjYzpXb3JrIHJkZjphYm91dD0iIj4mI3hhOyAgICAgICAgPGRjOmZvcm1hdD5pbWFnZS9zdmcreG1sPC9kYzpmb3JtYXQ+JiN4YTsgICAgICAgIDxkYzp0eXBlIHJkZjpyZXNvdXJjZT0iaHR0cDovL3B1cmwub3JnL2RjL2RjbWl0eXBlL1N0aWxsSW1hZ2UiLz4mI3hhOyAgICAgICAgPGRjOnRpdGxlLz4mI3hhOyAgICAgIDwvY2M6V29yaz4mI3hhOyAgICA8L3JkZjpSREY+JiN4YTsgIDwvbWV0YWRhdGE+JiN4YTsgIDxnIGlua3NjYXBlOmxhYmVsPSJDYWxxdWUgMSIgaW5rc2NhcGU6Z3JvdXBtb2RlPSJsYXllciIgaWQ9ImxheWVyMSIgdHJhbnNmb3JtPSJ0cmFuc2xhdGUoLTAuOTkyNjI2MzgsLTEuMTc0MTgxKSI+JiN4YTsgICAgPGcgaWQ9Imc3MCIgdHJhbnNmb3JtPSJtYXRyaXgoMS4wMTQ4ODg3LDAsMCwxLjAxNDg4ODcsMTYuOTAyMTQ2LC0yLjY5ODcyNikiPiYjeGE7ICAgICAgPHBhdGggaW5rc2NhcGU6ZXhwb3J0LXlkcGk9IjI1MC41NSIgaW5rc2NhcGU6ZXhwb3J0LXhkcGk9IjI1MC41NSIgaW5rc2NhcGU6ZXhwb3J0LWZpbGVuYW1lPSJuZXcucG5nIiBpbmtzY2FwZTpjb25uZWN0b3ItY3VydmF0dXJlPSIwIiBpZD0icGF0aDMwNTUiIGQ9Im0gLTYuODQ5MjAxNSw0LjI3MjQ2NjggYSAxLjExOTEyNTUsMS4xMDk5NjcxIDAgMCAwIC0wLjQyODg4MTgsMC4xMDg1MzAzIGwgLTUuODUyNDAzNywyLjc5NjMzOTQgYSAxLjExOTEyNTUsMS4xMDk5NjcxIDAgMCAwIC0wLjYwNTUyNCwwLjc1Mjk3NTkgbCAtMS40NDM4MjgsNi4yODEyODQ2IGEgMS4xMTkxMjU1LDEuMTA5OTY3MSAwIDAgMCAwLjE1MTk0MywwLjg1MTAyOCAxLjExOTEyNTUsMS4xMDk5NjcxIDAgMCAwIDAuMDYzNjIsMC4wODgzMiBsIDQuMDUwOCw1LjAzNjU1NSBhIDEuMTE5MTI1NSwxLjEwOTk2NzEgMCAwIDAgMC44NzQ5NzksMC40MTc2NTQgbCA2LjQ5NjEwMTEsLTAuMDAxNSBhIDEuMTE5MTI1NSwxLjEwOTk2NzEgMCAwIDAgMC44NzQ5Nzg4LC0wLjQxNjkwNiBMIDEuMzgxODg3MiwxNS4xNDk0NTMgQSAxLjExOTEyNTUsMS4xMDk5NjcxIDAgMCAwIDEuNTk4MTk4NiwxNC4yMTAxMDQgTCAwLjE1MjEyNjU3LDcuOTI4ODE1NCBBIDEuMTE5MTI1NSwxLjEwOTk2NzEgMCAwIDAgLTAuNDUzMzk3OTQsNy4xNzU4Mzk2IEwgLTYuMzA2NTQ5Niw0LjM4MDk5NzEgQSAxLjExOTEyNTUsMS4xMDk5NjcxIDAgMCAwIC02Ljg0OTIwMTUsNC4yNzI0NjY4IFoiIHN0eWxlPSJmaWxsOiMzMjZjZTU7ZmlsbC1vcGFjaXR5OjE7c3Ryb2tlOm5vbmU7c3Ryb2tlLXdpZHRoOjA7c3Ryb2tlLW1pdGVybGltaXQ6NDtzdHJva2UtZGFzaGFycmF5Om5vbmU7c3Ryb2tlLW9wYWNpdHk6MSIvPiYjeGE7ICAgICAgPHBhdGggaWQ9InBhdGgzMDU0LTItOSIgZD0iTSAtNi44NTIzNDM1LDMuODE3NjM3MiBBIDEuMTgxNDMwNCwxLjE3MTc2MiAwIDAgMCAtNy4zMDQ0Mjg0LDMuOTMyOTA0IGwgLTYuMTc4NzQyNiwyLjk1MTI3NTggYSAxLjE4MTQzMDQsMS4xNzE3NjIgMCAwIDAgLTAuNjM5MjA2LDAuNzk0ODkxIGwgLTEuNTIzOTE1LDYuNjMwODI4MiBhIDEuMTgxNDMwNCwxLjE3MTc2MiAwIDAgMCAwLjE2MDE3NSwwLjg5ODkzIDEuMTgxNDMwNCwxLjE3MTc2MiAwIDAgMCAwLjA2NzM2LDAuMDkyODEgbCA0LjI3NjA5NCw1LjMxNzIzNiBhIDEuMTgxNDMwNCwxLjE3MTc2MiAwIDAgMCAwLjkyMzYzLDAuNDQwODU4IGwgNi44NTc2MTg4LC0wLjAwMTUgYSAxLjE4MTQzMDQsMS4xNzE3NjIgMCAwIDAgMC45MjM2MzA4LC0wLjQ0MDExIGwgNC4yNzQ1OTY2LC01LjMxNzk4NSBhIDEuMTgxNDMwNCwxLjE3MTc2MiAwIDAgMCAwLjIyODI4OCwtMC45OTA5OTMgTCAwLjUzODk0NDM5LDcuNjc3NTczOCBBIDEuMTgxNDMwNCwxLjE3MTc2MiAwIDAgMCAtMC4xMDAyNjEwMSw2Ljg4MzQzMTMgTCAtNi4yNzkwMDM3LDMuOTMyMTU1NSBBIDEuMTgxNDMwNCwxLjE3MTc2MiAwIDAgMCAtNi44NTIzNDM1LDMuODE3NjM3MiBaIG0gMC4wMDI5OSwwLjQ1NTA3ODkgYSAxLjExOTEyNTUsMS4xMDk5NjcxIDAgMCAxIDAuNTQyNjUxNywwLjEwODUzMDMgbCA1Ljg1MzE1MTY5LDIuNzk0ODQyNSBBIDEuMTE5MTI1NSwxLjEwOTk2NzEgMCAwIDEgMC4xNTE5NzgxMSw3LjkyOTA2NDggTCAxLjU5ODA1MSwxNC4yMTAzNSBhIDEuMTE5MTI1NSwxLjEwOTk2NzEgMCAwIDEgLTAuMjE2MzEyMywwLjkzOTM0OCBsIC00LjA0OTMwMzIsNS4wMzczMDQgYSAxLjExOTEyNTUsMS4xMDk5NjcxIDAgMCAxIC0wLjg3NDk3ODksMC40MTY5MDYgbCAtNi40OTYxMDA2LDAuMDAxNSBhIDEuMTE5MTI1NSwxLjEwOTk2NzEgMCAwIDEgLTAuODc0OTc5LC0wLjQxNzY1MiBsIC00LjA1MDgsLTUuMDM2NTU0IGEgMS4xMTkxMjU1LDEuMTA5OTY3MSAwIDAgMSAtMC4wNjM2MiwtMC4wODgzMiAxLjExOTEyNTUsMS4xMDk5NjcxIDAgMCAxIC0wLjE1MTk0MiwtMC44NTEwMjggbCAxLjQ0MzgyNywtNi4yODEyODUzIGEgMS4xMTkxMjU1LDEuMTA5OTY3MSAwIDAgMSAwLjYwNTUyNCwtMC43NTI5NzU4IGwgNS44NTI0MDM2LC0yLjc5NjMzOTUgYSAxLjExOTEyNTUsMS4xMDk5NjcxIDAgMCAxIDAuNDI4ODgxOSwtMC4xMDg1MzAzIHoiIHN0eWxlPSJjb2xvcjojMDAwMDAwO2ZvbnQtc3R5bGU6bm9ybWFsO2ZvbnQtdmFyaWFudDpub3JtYWw7Zm9udC13ZWlnaHQ6bm9ybWFsO2ZvbnQtc3RyZXRjaDpub3JtYWw7Zm9udC1zaXplOm1lZGl1bTtsaW5lLWhlaWdodDpub3JtYWw7Zm9udC1mYW1pbHk6U2FuczstaW5rc2NhcGUtZm9udC1zcGVjaWZpY2F0aW9uOlNhbnM7dGV4dC1pbmRlbnQ6MDt0ZXh0LWFsaWduOnN0YXJ0O3RleHQtZGVjb3JhdGlvbjpub25lO3RleHQtZGVjb3JhdGlvbi1saW5lOm5vbmU7bGV0dGVyLXNwYWNpbmc6bm9ybWFsO3dvcmQtc3BhY2luZzpub3JtYWw7dGV4dC10cmFuc2Zvcm06bm9uZTt3cml0aW5nLW1vZGU6bHItdGI7ZGlyZWN0aW9uOmx0cjtiYXNlbGluZS1zaGlmdDpiYXNlbGluZTt0ZXh0LWFuY2hvcjpzdGFydDtkaXNwbGF5OmlubGluZTtvdmVyZmxvdzp2aXNpYmxlO3Zpc2liaWxpdHk6dmlzaWJsZTtmaWxsOiNmZmZmZmY7ZmlsbC1vcGFjaXR5OjE7ZmlsbC1ydWxlOm5vbnplcm87c3Ryb2tlOm5vbmU7c3Ryb2tlLXdpZHRoOjA7c3Ryb2tlLW1pdGVybGltaXQ6NDtzdHJva2UtZGFzaGFycmF5Om5vbmU7bWFya2VyOm5vbmU7ZW5hYmxlLWJhY2tncm91bmQ6YWNjdW11bGF0ZSIgaW5rc2NhcGU6Y29ubmVjdG9yLWN1cnZhdHVyZT0iMCIvPiYjeGE7ICAgIDwvZz4mI3hhOyAgICA8dGV4dCBpZD0idGV4dDIwNjYiIHk9IjE2LjgxMTc3NSIgeD0iMTAuMDE3MTgzIiBzdHlsZT0iZm9udC1zdHlsZTpub3JtYWw7Zm9udC13ZWlnaHQ6bm9ybWFsO2ZvbnQtc2l6ZToxMC41ODMzMzMwMnB4O2xpbmUtaGVpZ2h0OjYuNjE0NTgzNDlweDtmb250LWZhbWlseTpTYW5zO2xldHRlci1zcGFjaW5nOjBweDt3b3JkLXNwYWNpbmc6MHB4O2ZpbGw6I2ZmZmZmZjtmaWxsLW9wYWNpdHk6MTtzdHJva2U6bm9uZTtzdHJva2Utd2lkdGg6MC4yNjQ1ODMzMnB4O3N0cm9rZS1saW5lY2FwOmJ1dHQ7c3Ryb2tlLWxpbmVqb2luOm1pdGVyO3N0cm9rZS1vcGFjaXR5OjEiIHhtbDpzcGFjZT0icHJlc2VydmUiPjx0c3BhbiBzdHlsZT0iZm9udC1zdHlsZTpub3JtYWw7Zm9udC12YXJpYW50Om5vcm1hbDtmb250LXdlaWdodDpub3JtYWw7Zm9udC1zdHJldGNoOm5vcm1hbDtmb250LXNpemU6Mi44MjIyMjIyM3B4O2ZvbnQtZmFtaWx5OkFyaWFsOy1pbmtzY2FwZS1mb250LXNwZWNpZmljYXRpb246J0FyaWFsLCBOb3JtYWwnO3RleHQtYWxpZ246Y2VudGVyO3dyaXRpbmctbW9kZTpsci10Yjt0ZXh0LWFuY2hvcjptaWRkbGU7ZmlsbDojZmZmZmZmO2ZpbGwtb3BhY2l0eToxO3N0cm9rZS13aWR0aDowLjI2NDU4MzMycHgiIHk9IjE2LjgxMTc3NSIgeD0iMTAuMDE3MTgzIiBpZD0idHNwYW4yMDY0IiBzb2RpcG9kaTpyb2xlPSJsaW5lIj5wb2Q8L3RzcGFuPjwvdGV4dD4mI3hhOyAgICA8ZyBpZD0iZzMzNDEiIHRyYW5zZm9ybT0idHJhbnNsYXRlKDAuMTI3NjY2NjEsMCkiPiYjeGE7ICAgICAgPHBhdGggaW5rc2NhcGU6ZXhwb3J0LXlkcGk9IjM3Ni41Nzk5OSIgaW5rc2NhcGU6ZXhwb3J0LXhkcGk9IjM3Ni41Nzk5OSIgc3R5bGU9ImZpbGw6I2ZmZmZmZjtmaWxsLXJ1bGU6ZXZlbm9kZDtzdHJva2U6bm9uZTtzdHJva2Utd2lkdGg6MC4yNjQ1ODMzMjtzdHJva2UtbGluZWNhcDpzcXVhcmU7c3Ryb2tlLW1pdGVybGltaXQ6MTAiIGlua3NjYXBlOmNvbm5lY3Rvci1jdXJ2YXR1cmU9IjAiIGQ9Ik0gNi4yNjE3OTE0LDcuMDM2MDg2IDkuODgyNjMxNyw1Ljk4NjA4NyAxMy41MDM0NjIsNy4wMzYwODYgOS44ODI2MzE3LDguMDg2MDg3IFoiIGlkPSJwYXRoOTEwIi8+JiN4YTsgICAgICA8cGF0aCBpbmtzY2FwZTpleHBvcnQteWRwaT0iMzc2LjU3OTk5IiBpbmtzY2FwZTpleHBvcnQteGRwaT0iMzc2LjU3OTk5IiBzdHlsZT0iZmlsbDojZmZmZmZmO2ZpbGwtcnVsZTpldmVub2RkO3N0cm9rZTpub25lO3N0cm9rZS13aWR0aDowLjI2NDU4MzMyO3N0cm9rZS1saW5lY2FwOnNxdWFyZTtzdHJva2UtbWl0ZXJsaW1pdDoxMCIgaW5rc2NhcGU6Y29ubmVjdG9yLWN1cnZhdHVyZT0iMCIgZD0ibSA2LjI2MTc5MTQsNy40MzgxNyAwLDMuODUyNzc4IDMuMzczNjEwMywxLjg2ODc0OSAwLjAxNjcsLTQuNzEzMTkzIHoiIGlkPSJwYXRoOTEyIi8+JiN4YTsgICAgICA8cGF0aCBpbmtzY2FwZTpleHBvcnQteWRwaT0iMzc2LjU3OTk5IiBpbmtzY2FwZTpleHBvcnQteGRwaT0iMzc2LjU3OTk5IiBzdHlsZT0iZmlsbDojZmZmZmZmO2ZpbGwtcnVsZTpldmVub2RkO3N0cm9rZTpub25lO3N0cm9rZS13aWR0aDowLjI2NDU4MzMyO3N0cm9rZS1saW5lY2FwOnNxdWFyZTtzdHJva2UtbWl0ZXJsaW1pdDoxMCIgaW5rc2NhcGU6Y29ubmVjdG9yLWN1cnZhdHVyZT0iMCIgZD0ibSAxMy41MDM0NjIsNy40MzgxNyAwLDMuODUyNzc4IC0zLjM3MzYxLDEuODY4NzQ5IC0wLjAxNjcsLTQuNzEzMTkzIHoiIGlkPSJwYXRoOTE0Ii8+JiN4YTsgICAgPC9nPiYjeGE7ICA8L2c+JiN4YTs8L3N2Zz4=" vertex="1" parent="1">
          <mxGeometry x="120" y="40" width="80" height="80" as="geometry" />
        </mxCell>
        <mxCell id="kE3XrE7DXtP0te7mfZ7Q-3" value="" style="shape=image;verticalLabelPosition=bottom;verticalAlign=top;imageAspect=0;aspect=fixed;image=data:image/svg+xml,PHN2ZyB4bWxuczpkYz0iaHR0cDovL3B1cmwub3JnL2RjL2VsZW1lbnRzLzEuMS8iIHhtbG5zOmNjPSJodHRwOi8vY3JlYXRpdmVjb21tb25zLm9yZy9ucyMiIHhtbG5zOnJkZj0iaHR0cDovL3d3dy53My5vcmcvMTk5OS8wMi8yMi1yZGYtc3ludGF4LW5zIyIgeG1sbnM6c3ZnPSJodHRwOi8vd3d3LnczLm9yZy8yMDAwL3N2ZyIgeG1sbnM9Imh0dHA6Ly93d3cudzMub3JnLzIwMDAvc3ZnIiB4bWxuczpzb2RpcG9kaT0iaHR0cDovL3NvZGlwb2RpLnNvdXJjZWZvcmdlLm5ldC9EVEQvc29kaXBvZGktMC5kdGQiIHhtbG5zOmlua3NjYXBlPSJodHRwOi8vd3d3Lmlua3NjYXBlLm9yZy9uYW1lc3BhY2VzL2lua3NjYXBlIiB3aWR0aD0iMTguMDM1MzM0bW0iIGhlaWdodD0iMTcuNTAwMzc4bW0iIHZpZXdCb3g9IjAgMCAxOC4wMzUzMzQgMTcuNTAwMzc4IiB2ZXJzaW9uPSIxLjEiIGlkPSJzdmcxMTUzMSIgaW5rc2NhcGU6dmVyc2lvbj0iMC45MSByMTM3MjUiIHNvZGlwb2RpOmRvY25hbWU9ImFwaS5zdmciPiYjeGE7ICA8ZGVmcyBpZD0iZGVmczExNTI1Ii8+JiN4YTsgIDxzb2RpcG9kaTpuYW1lZHZpZXcgaWQ9ImJhc2UiIHBhZ2Vjb2xvcj0iI2ZmZmZmZiIgYm9yZGVyY29sb3I9IiM2NjY2NjYiIGJvcmRlcm9wYWNpdHk9IjEuMCIgaW5rc2NhcGU6cGFnZW9wYWNpdHk9IjAuMCIgaW5rc2NhcGU6cGFnZXNoYWRvdz0iMiIgaW5rc2NhcGU6em9vbT0iOCIgaW5rc2NhcGU6Y3g9IjE2Ljk2ODYyMSIgaW5rc2NhcGU6Y3k9IjMzLjUwOTA4MSIgaW5rc2NhcGU6ZG9jdW1lbnQtdW5pdHM9Im1tIiBpbmtzY2FwZTpjdXJyZW50LWxheWVyPSJsYXllcjEiIHNob3dncmlkPSJmYWxzZSIgaW5rc2NhcGU6d2luZG93LXdpZHRoPSIxNDQwIiBpbmtzY2FwZTp3aW5kb3ctaGVpZ2h0PSI3NzEiIGlua3NjYXBlOndpbmRvdy14PSI1NSIgaW5rc2NhcGU6d2luZG93LXk9IjAiIGlua3NjYXBlOndpbmRvdy1tYXhpbWl6ZWQ9IjAiIGZpdC1tYXJnaW4tdG9wPSIwIiBmaXQtbWFyZ2luLWxlZnQ9IjAiIGZpdC1tYXJnaW4tcmlnaHQ9IjAiIGZpdC1tYXJnaW4tYm90dG9tPSIwIi8+JiN4YTsgIDxtZXRhZGF0YSBpZD0ibWV0YWRhdGExMTUyOCI+JiN4YTsgICAgPHJkZjpSREY+JiN4YTsgICAgICA8Y2M6V29yayByZGY6YWJvdXQ9IiI+JiN4YTsgICAgICAgIDxkYzpmb3JtYXQ+aW1hZ2Uvc3ZnK3htbDwvZGM6Zm9ybWF0PiYjeGE7ICAgICAgICA8ZGM6dHlwZSByZGY6cmVzb3VyY2U9Imh0dHA6Ly9wdXJsLm9yZy9kYy9kY21pdHlwZS9TdGlsbEltYWdlIi8+JiN4YTsgICAgICAgIDxkYzp0aXRsZS8+JiN4YTsgICAgICA8L2NjOldvcms+JiN4YTsgICAgPC9yZGY6UkRGPiYjeGE7ICA8L21ldGFkYXRhPiYjeGE7ICA8ZyBpbmtzY2FwZTpsYWJlbD0iQ2FscXVlIDEiIGlua3NjYXBlOmdyb3VwbW9kZT0ibGF5ZXIiIGlkPSJsYXllcjEiIHRyYW5zZm9ybT0idHJhbnNsYXRlKC0wLjk5MjYyNjM4LC0xLjE3NDE4MSkiPiYjeGE7ICAgIDxnIGlkPSJnNzAiIHRyYW5zZm9ybT0ibWF0cml4KDEuMDE0ODg4NywwLDAsMS4wMTQ4ODg3LDE2LjkwMjE0NiwtMi42OTg3MjYpIj4mI3hhOyAgICAgIDxwYXRoIGlua3NjYXBlOmV4cG9ydC15ZHBpPSIyNTAuNTUiIGlua3NjYXBlOmV4cG9ydC14ZHBpPSIyNTAuNTUiIGlua3NjYXBlOmV4cG9ydC1maWxlbmFtZT0ibmV3LnBuZyIgaW5rc2NhcGU6Y29ubmVjdG9yLWN1cnZhdHVyZT0iMCIgaWQ9InBhdGgzMDU1IiBkPSJtIC02Ljg0OTIwMTUsNC4yNzI0NjY4IGEgMS4xMTkxMjU1LDEuMTA5OTY3MSAwIDAgMCAtMC40Mjg4ODE4LDAuMTA4NTMwMyBsIC01Ljg1MjQwMzcsMi43OTYzMzk0IGEgMS4xMTkxMjU1LDEuMTA5OTY3MSAwIDAgMCAtMC42MDU1MjQsMC43NTI5NzU5IGwgLTEuNDQzODI4LDYuMjgxMjg0NiBhIDEuMTE5MTI1NSwxLjEwOTk2NzEgMCAwIDAgMC4xNTE5NDMsMC44NTEwMjggMS4xMTkxMjU1LDEuMTA5OTY3MSAwIDAgMCAwLjA2MzYyLDAuMDg4MzIgbCA0LjA1MDgsNS4wMzY1NTUgYSAxLjExOTEyNTUsMS4xMDk5NjcxIDAgMCAwIDAuODc0OTc5LDAuNDE3NjU0IGwgNi40OTYxMDExLC0wLjAwMTUgYSAxLjExOTEyNTUsMS4xMDk5NjcxIDAgMCAwIDAuODc0OTc4OCwtMC40MTY5MDYgTCAxLjM4MTg4NzIsMTUuMTQ5NDUzIEEgMS4xMTkxMjU1LDEuMTA5OTY3MSAwIDAgMCAxLjU5ODE5ODYsMTQuMjEwMTA0IEwgMC4xNTIxMjY1Nyw3LjkyODgxNTQgQSAxLjExOTEyNTUsMS4xMDk5NjcxIDAgMCAwIC0wLjQ1MzM5Nzk0LDcuMTc1ODM5NiBMIC02LjMwNjU0OTYsNC4zODA5OTcxIEEgMS4xMTkxMjU1LDEuMTA5OTY3MSAwIDAgMCAtNi44NDkyMDE1LDQuMjcyNDY2OCBaIiBzdHlsZT0iZmlsbDojMzI2Y2U1O2ZpbGwtb3BhY2l0eToxO3N0cm9rZTpub25lO3N0cm9rZS13aWR0aDowO3N0cm9rZS1taXRlcmxpbWl0OjQ7c3Ryb2tlLWRhc2hhcnJheTpub25lO3N0cm9rZS1vcGFjaXR5OjEiLz4mI3hhOyAgICAgIDxwYXRoIGlkPSJwYXRoMzA1NC0yLTkiIGQ9Ik0gLTYuODUyMzQzNSwzLjgxNzYzNzIgQSAxLjE4MTQzMDQsMS4xNzE3NjIgMCAwIDAgLTcuMzA0NDI4NCwzLjkzMjkwNCBsIC02LjE3ODc0MjYsMi45NTEyNzU4IGEgMS4xODE0MzA0LDEuMTcxNzYyIDAgMCAwIC0wLjYzOTIwNiwwLjc5NDg5MSBsIC0xLjUyMzkxNSw2LjYzMDgyODIgYSAxLjE4MTQzMDQsMS4xNzE3NjIgMCAwIDAgMC4xNjAxNzUsMC44OTg5MyAxLjE4MTQzMDQsMS4xNzE3NjIgMCAwIDAgMC4wNjczNiwwLjA5MjgxIGwgNC4yNzYwOTQsNS4zMTcyMzYgYSAxLjE4MTQzMDQsMS4xNzE3NjIgMCAwIDAgMC45MjM2MywwLjQ0MDg1OCBsIDYuODU3NjE4OCwtMC4wMDE1IGEgMS4xODE0MzA0LDEuMTcxNzYyIDAgMCAwIDAuOTIzNjMwOCwtMC40NDAxMSBsIDQuMjc0NTk2NiwtNS4zMTc5ODUgYSAxLjE4MTQzMDQsMS4xNzE3NjIgMCAwIDAgMC4yMjgyODgsLTAuOTkwOTkzIEwgMC41Mzg5NDQzOSw3LjY3NzU3MzggQSAxLjE4MTQzMDQsMS4xNzE3NjIgMCAwIDAgLTAuMTAwMjYxMDEsNi44ODM0MzEzIEwgLTYuMjc5MDAzNywzLjkzMjE1NTUgQSAxLjE4MTQzMDQsMS4xNzE3NjIgMCAwIDAgLTYuODUyMzQzNSwzLjgxNzYzNzIgWiBtIDAuMDAyOTksMC40NTUwNzg5IGEgMS4xMTkxMjU1LDEuMTA5OTY3MSAwIDAgMSAwLjU0MjY1MTcsMC4xMDg1MzAzIGwgNS44NTMxNTE2OSwyLjc5NDg0MjUgQSAxLjExOTEyNTUsMS4xMDk5NjcxIDAgMCAxIDAuMTUxOTc4MTEsNy45MjkwNjQ4IEwgMS41OTgwNTEsMTQuMjEwMzUgYSAxLjExOTEyNTUsMS4xMDk5NjcxIDAgMCAxIC0wLjIxNjMxMjMsMC45MzkzNDggbCAtNC4wNDkzMDMyLDUuMDM3MzA0IGEgMS4xMTkxMjU1LDEuMTA5OTY3MSAwIDAgMSAtMC44NzQ5Nzg5LDAuNDE2OTA2IGwgLTYuNDk2MTAwNiwwLjAwMTUgYSAxLjExOTEyNTUsMS4xMDk5NjcxIDAgMCAxIC0wLjg3NDk3OSwtMC40MTc2NTIgbCAtNC4wNTA4LC01LjAzNjU1NCBhIDEuMTE5MTI1NSwxLjEwOTk2NzEgMCAwIDEgLTAuMDYzNjIsLTAuMDg4MzIgMS4xMTkxMjU1LDEuMTA5OTY3MSAwIDAgMSAtMC4xNTE5NDIsLTAuODUxMDI4IGwgMS40NDM4MjcsLTYuMjgxMjg1MyBhIDEuMTE5MTI1NSwxLjEwOTk2NzEgMCAwIDEgMC42MDU1MjQsLTAuNzUyOTc1OCBsIDUuODUyNDAzNiwtMi43OTYzMzk1IGEgMS4xMTkxMjU1LDEuMTA5OTY3MSAwIDAgMSAwLjQyODg4MTksLTAuMTA4NTMwMyB6IiBzdHlsZT0iY29sb3I6IzAwMDAwMDtmb250LXN0eWxlOm5vcm1hbDtmb250LXZhcmlhbnQ6bm9ybWFsO2ZvbnQtd2VpZ2h0Om5vcm1hbDtmb250LXN0cmV0Y2g6bm9ybWFsO2ZvbnQtc2l6ZTptZWRpdW07bGluZS1oZWlnaHQ6bm9ybWFsO2ZvbnQtZmFtaWx5OlNhbnM7LWlua3NjYXBlLWZvbnQtc3BlY2lmaWNhdGlvbjpTYW5zO3RleHQtaW5kZW50OjA7dGV4dC1hbGlnbjpzdGFydDt0ZXh0LWRlY29yYXRpb246bm9uZTt0ZXh0LWRlY29yYXRpb24tbGluZTpub25lO2xldHRlci1zcGFjaW5nOm5vcm1hbDt3b3JkLXNwYWNpbmc6bm9ybWFsO3RleHQtdHJhbnNmb3JtOm5vbmU7d3JpdGluZy1tb2RlOmxyLXRiO2RpcmVjdGlvbjpsdHI7YmFzZWxpbmUtc2hpZnQ6YmFzZWxpbmU7dGV4dC1hbmNob3I6c3RhcnQ7ZGlzcGxheTppbmxpbmU7b3ZlcmZsb3c6dmlzaWJsZTt2aXNpYmlsaXR5OnZpc2libGU7ZmlsbDojZmZmZmZmO2ZpbGwtb3BhY2l0eToxO2ZpbGwtcnVsZTpub256ZXJvO3N0cm9rZTpub25lO3N0cm9rZS13aWR0aDowO3N0cm9rZS1taXRlcmxpbWl0OjQ7c3Ryb2tlLWRhc2hhcnJheTpub25lO21hcmtlcjpub25lO2VuYWJsZS1iYWNrZ3JvdW5kOmFjY3VtdWxhdGUiIGlua3NjYXBlOmNvbm5lY3Rvci1jdXJ2YXR1cmU9IjAiLz4mI3hhOyAgICA8L2c+JiN4YTsgICAgPHRleHQgaWQ9InRleHQyMDY2IiB5PSIxNi44MTE3NzUiIHg9IjEwLjA1NTc2OSIgc3R5bGU9ImZvbnQtc3R5bGU6bm9ybWFsO2ZvbnQtd2VpZ2h0Om5vcm1hbDtmb250LXNpemU6MTAuNTgzMzMzMDJweDtsaW5lLWhlaWdodDo2LjYxNDU4MzQ5cHg7Zm9udC1mYW1pbHk6U2FucztsZXR0ZXItc3BhY2luZzowcHg7d29yZC1zcGFjaW5nOjBweDtmaWxsOiNmZmZmZmY7ZmlsbC1vcGFjaXR5OjE7c3Ryb2tlOm5vbmU7c3Ryb2tlLXdpZHRoOjAuMjY0NTgzMzJweDtzdHJva2UtbGluZWNhcDpidXR0O3N0cm9rZS1saW5lam9pbjptaXRlcjtzdHJva2Utb3BhY2l0eToxIiB4bWw6c3BhY2U9InByZXNlcnZlIj48dHNwYW4gc3R5bGU9ImZvbnQtc3R5bGU6bm9ybWFsO2ZvbnQtdmFyaWFudDpub3JtYWw7Zm9udC13ZWlnaHQ6bm9ybWFsO2ZvbnQtc3RyZXRjaDpub3JtYWw7Zm9udC1zaXplOjIuODIyMjIyMjNweDtmb250LWZhbWlseTpBcmlhbDstaW5rc2NhcGUtZm9udC1zcGVjaWZpY2F0aW9uOidBcmlhbCwgTm9ybWFsJzt0ZXh0LWFsaWduOmNlbnRlcjt3cml0aW5nLW1vZGU6bHItdGI7dGV4dC1hbmNob3I6bWlkZGxlO2ZpbGw6I2ZmZmZmZjtmaWxsLW9wYWNpdHk6MTtzdHJva2Utd2lkdGg6MC4yNjQ1ODMzMnB4IiB5PSIxNi44MTE3NzUiIHg9IjEwLjA1NTc2OSIgaWQ9InRzcGFuMjA2NCIgc29kaXBvZGk6cm9sZT0ibGluZSI+YXBpPC90c3Bhbj48L3RleHQ+JiN4YTsgICAgPHBhdGggaWQ9InBhdGgxOTg0IiBkPSJtIDkuOTkyMjU3NCw0LjQ0Njk5MjUgYyAtMC4xMzgzMjM0LC0wLjAwNDQgLTMuOTk1MzEzOSwxLjg5MTc3OTEgLTQuMDQ1NzQyOSwxLjk4OTAyNDEgLTAuMTIxMTUzLDAuMjMzNjgyIC0wLjk5ODgwMiw0LjI4MTQ3ODQgLTAuOTQ3MjM1LDQuMzY4NzI0NCAwLjAzLDAuMDUwNjUgMC42NjIxOTksMC44NTIzMDUgMS40MDQ1NjcsMS43ODA3NzEgbCAxLjM0OTc5OCwxLjY4Nzc1NCAyLjIyMTU3NDMsMC4wMDExIDIuMjIxNTcyMiwwLjAwMTEgMS40MTI4MTksLTEuNzY1Nzg0IDEuNDEzODgsLTEuNzY1MjY1IC0wLjQ5NDU2LC0yLjE2ODg2MDcgQyAxNC4yNTY3Myw3LjM4MjgxNTUgMTQuMDEzMjksNi4zODcyNzU2IDEzLjk4ODQyLDYuMzYzMjg1NiAxMy45MTg5Miw2LjI5NjQwNTYgMTAuMDY3MjQsNC40NDk1NDY1IDkuOTkyMjU3NCw0LjQ0NzEyNTUgWiBtIDAuMjM2MTY2NiwxLjk4MjgyNDEgYyAwLjE4NjYzNywwLjAwOCAwLjIwNTc5MiwwLjI5MTU3MSAwLjYwNTEyOCwwLjMyMTQyNyAwLjUyMTYsMC4wMzkgMC40NjU1MDgsLTAuNDQ2NjUxIDAuODY0NTUzLC0wLjEwODUyMiAwLjM5OTA0NCwwLjMzODEyNSAtMC4wODg5LDAuMzYyNjQxIDAuMDM1MTQsMC44NzA3NDkgMC4xMjQwOSwwLjUwODEwNDEgMC41Njg4MDEsMC4zMDUwOTkxIDAuMzcwNTIzLDAuNzg5MDk4NyAtMC4xOTgyNzksMC40ODQwMDIgLTAuMzcyNjEzLDAuMDI3MjggLTAuODE3NTEsMC4zMDIzMDggLTAuNDQ0ODk3LDAuMjc1MDIzIC0wLjExNDU2NCwwLjYzNTM0NiAtMC42MzYxMzgsMC41OTYzNDcgLTAuNTIxNjUyLC0wLjAzOSAtMC4xNDA0NjcsLTAuMzQ2MDY1IC0wLjUzOTUxLC0wLjY4NDE5NyBDIDkuNzExNTY2LDguMTc4ODk1NSA5LjQ3MDM3MTgsOC42MDQ0ODczIDkuMzQ2MzA4OCw4LjA5NjM3OTcgOS4yMjIyMTg4LDcuNTg4MjcxNiA5LjYzMjI0NCw3Ljg1NTM2MjUgOS44MzA1MjMsNy4zNzEzNjA3IDEwLjAyOTIyNCw2Ljg4NzMxMzYgOS41NDk0Mjg4LDYuNzkwMTA3NiA5Ljk5NDM1MjQsNi41MTUwODE2IGMgMC4wNTU2NCwtMC4wMzQzNCAwLjEwMTg5MDYsLTAuMDU2ODggMC4xNDIxMDU2LC0wLjA3MDI4IDAuMDM1MDgsLTAuMDExNjcgMC4wNjUzMywtMC4wMTYxNCAwLjA5MTk3LC0wLjAxNDk3IHogbSAwLjUyMTQ5MywwLjU3MjA1OSBjIC0wLjA3NTc4LC01LjMwNmUtNCAtMC4xNTEyMDksMC4wMTAyMSAtMC4yMjM3NTgsMC4wMzIwNCAtMC40MDAzOTMsMC4xMjA3MzIgLTAuNjI2OTU0LDAuNTQzMzIxOSAtMC41MDU5MDksMC45NDM2MTMgMC4xMjA5NCwwLjM5OTkxOTcgMC41NDMxMSwwLjYyNjE0ODcgMC45NDMxMDcsMC41MDUzOTM3IDAuMzk5ODM4LC0wLjEyMDc0NiAwLjYyNjI2OCwtMC41NDI2MTA3IDAuNTA1OTA5LC0wLjk0MjU3ODggQyAxMS4zNzM1MTYsNy4yMjI1MjM2IDExLjA4MTgzNyw3LjAwNDE4OTYgMTAuNzQ5OTE3LDcuMDAxODc3NiBaIE0gNy43NTcyNjk1LDguMzAzNjAzMyBjIDAuMDM5NjksNy45ZS00IDAuMDg4MzIsMC4wMDkgMC4xNDgyOTkxLDAuMDI3MzkgMC40Nzk5Mjc5LDAuMTQ3MTM4IC0wLjAwNzcsMC4zOTk1MDMgMC4zMzQzNTQsMC43NjY4NzkgMC4zNDIwNTMxLDAuMzY3Mzc3IDAuNjI4NTE4MiwtMC4xMDEwODYgMC43NDEwNDUyLDAuMzg4MDkxIDAuMTEyNTI3LDAuNDg5MTc3NyAtMC4zNDk5OTEzLDAuMTkyOTIxIC0wLjQ5NzEyNjEsMC42NzI4Mjc3IC0wLjE0NzE2MTIsMC40Nzk5MDQgMC40MDE0NzkxLDAuNDk0MDgzIDAuMDM0MTEsMC44MzYxMjMgLTAuMzY3Mzc0LDAuMzQyMDQxIC0wLjM0MTgxNTEsLTAuMjA2MDYgLTAuODMwOTUwMSwtMC4wOTM1MyAtMC40ODkxODgsMC4xMTI1MjcgLTAuMjI3MDM5LDAuNTk0NjU0IC0wLjcwNjk0LDAuNDQ3NTE2IC0wLjQ3OTkyOCwtMC4xNDcxMzcgMC4wMDc3LC0wLjM5OTUgLTAuMzM0MzU0LC0wLjc2Njg3NiAtMC4zNDIwNTQsLTAuMzY3Mzc5IC0wLjYyODUxOCwwLjEwMDU3MSAtMC43NDEwNDUsLTAuMzg4NjA3IC0wLjExMjUyOCwtMC40ODkxOCAwLjM0OTk5MSwtMC4xOTI5MjQgMC40OTcxMjUsLTAuNjcyODI2NyAwLjE0NzE2MiwtMC40Nzk5MDcgLTAuNDAxOTgxLC0wLjQ5MzU3IC0wLjAzNDYxLC0wLjgzNTYxIDAuMzY3Mzc0LC0wLjM0MjA0MyAwLjM0MjI5MSwwLjIwNjA2NSAwLjgzMTQ1MywwLjA5MzU0IDAuNDI4MDQzLC0wLjA5ODQ2IDAuMjgwNjQzLC0wLjQ3OTYwNyAwLjU1ODY0MSwtMC40NzQ5MDYgeiBtIDMuNTY3MjE2NSwwLjUyNDUxNiBjIDAuMDQ1NTEsNS4zNmUtNCAwLjEwMDgwNywwLjAxMjQzIDAuMTcwMDIyLDAuMDM5MjcgMC41NTMyNywwLjIxNDczOSAtMC4xNzUyMzQsMC41NDU4OTQgMC4yNTM3MzUsMC45NTYwMTM3IDAuNDI4OTY5LDAuNDEwMTE4IDAuNzI3NDcyLC0wLjMzMjc0MTcgMC45NjY4NjcsMC4yMTAzMjMgMC4yMzkzNjksMC41NDMwNjUgLTAuNTEwNDM0LDAuMjYyNDMyIC0wLjQ5NzEyNiwwLjg1NTc2MyAwLjAxMzIzLDAuNTkzMzMxIDAuNzQ5NTkxLDAuMjc4NzIgMC41MzQ4MjksMC44MzE5OSAtMC4yMTQ3MDksMC41NTMyNjggLTAuNTQ1ODg4LC0wLjE3NTI0NyAtMC45NTU5OTIsMC4yNTM3MyAtMC40MTAxMzEsMC40Mjg5NzcgMC4zMzIyMSwwLjcyNjk3MiAtMC4yMTA4NDcsMC45NjYzNDggLTAuNTQzMDU3LDAuMjM5MzggLTAuMjYxMzgyLC0wLjUwOTkzOSAtMC44NTQ3MzYsLTAuNDk2NjA5IC0wLjU5MzMyOCwwLjAxMzMzIC0wLjI3OTIxNSwwLjc0OTA3MiAtMC44MzI1MSwwLjUzNDMzNCBDIDkuMzQ1NDg0OCwxMi43NjQ1NDMgMTAuMDczOTg3LDEyLjQzMzM4OCA5LjY0NDk5MywxMi4wMjMyNjggOS4yMTYwMjM4LDExLjYxMzE0OCA4LjkxODAyMzgsMTIuMzU2MDA4IDguNjc4NjU0NiwxMS44MTI5NDUgOC40MzkyODY3LDExLjI2OTg4IDkuMTg4NTU5OCwxMS41NTEwMzIgOS4xNzUyNzc4LDEwLjk1NzcwMSA5LjE2MTc4NzgsMTAuMzY0MzcgOC40MjU2ODY3LDEwLjY3ODQ2MiA4LjY0MDQyMjUsMTAuMTI1MTkyIDguODU1MTU4OCw5LjU3MTkyMjMgOS4xODY4MTM4LDEwLjMwMDk1NSA5LjU5Njk0NSw5Ljg3MTk3OCAxMC4wMDcwNDgsOS40NDMwMDEzIDkuMjY0MTc3OCw5LjE0NDQ5MDMgOS44MDcyNjIsOC45MDUxMTQzIGMgMC41NDMwNTUsLTAuMjM5Mzc3IDAuMjYxOTEsMC41MDk5MzkgMC44NTUyMzcsMC40OTY2MDkgMC41MTkxOTIsLTAuMDExNjcgMC4zNDM0MjksLTAuNTc2NDA4IDAuNjYxOTg3LC0wLjU3MzYwOCB6IG0gLTMuODgxNDA5NSwwLjI1NTI4IGMgLTAuNDE3OTg4LC0xLjU4ZS00IC0wLjc1Njk0NiwwLjMzODU2NCAtMC43NTcwNzgsMC43NTY1NDQ3IC0xLjU5ZS00LDAuNDE4MTgyIDAuMzM4OTA1LDAuNzU3MjE5IDAuNzU3MDc4LDAuNzU3MDYgMC40MTc5NjMxLC0xLjQ4ZS00IDAuNzU2NjgyLC0wLjMzOTA5NSAwLjc1NjUyMzksLTAuNzU3MDYgQyA4LjE5OTQ2NzUsOS40MjIxODAzIDcuODYwODI3Niw5LjA4MzU0NzMgNy40NDMwNzY1LDkuMDgzMzk5MyBaIE0gMTAuNjk2NjMsOS44MDg0MjEgYyAtMC42MTU2ODQsNC4yZS01IC0xLjExNDg0NiwwLjQ5ODk4MyAtMS4xMTUxOSwxLjExNDY2MSAtMi4zOGUtNCwwLjYxNjA4MiAwLjQ5OTEwOSwxLjExNTY1IDEuMTE1MTksMS4xMTU2OTIgMC42MTYyNjgsMi4yMmUtNCAxLjExNTkwNywtMC40OTk0MjUgMS4xMTU2NjksLTEuMTE1NjkyIDAsLTAuNjE1ODY2IC0wLjQ5OTc5OCwtMS4xMTQ4ODMgLTEuMTE1NjY5LC0xLjExNDY2MSB6IiBzdHlsZT0ib3BhY2l0eToxO2ZpbGw6I2ZmZmZmZjtmaWxsLW9wYWNpdHk6MTtzdHJva2U6I2VlZWVlZTtzdHJva2Utd2lkdGg6MDtzdHJva2UtbWl0ZXJsaW1pdDoxMDtzdHJva2UtZGFzaGFycmF5Om5vbmU7c3Ryb2tlLWRhc2hvZmZzZXQ6MTEuMjM2NDIzNDk7c3Ryb2tlLW9wYWNpdHk6MSIgaW5rc2NhcGU6Y29ubmVjdG9yLWN1cnZhdHVyZT0iMCIgc29kaXBvZGk6bm9kZXR5cGVzPSJjY2NjY2NjY2NjY2Njc2NjY2Njc2NjY2NjY2NjY2NjY2Njc2NzY2NjY2NjY2NjY2NjY2NjY2NjY2Njc2NjY2NjY2NjY2NjY2NjIi8+JiN4YTsgIDwvZz4mI3hhOzwvc3ZnPg==" vertex="1" parent="1">
          <mxGeometry x="100" y="210" width="80" height="80" as="geometry" />
        </mxCell>
        <mxCell id="kE3XrE7DXtP0te7mfZ7Q-4" value="" style="shape=image;verticalLabelPosition=bottom;verticalAlign=top;imageAspect=0;aspect=fixed;image=data:image/svg+xml,PHN2ZyB4bWxuczpkYz0iaHR0cDovL3B1cmwub3JnL2RjL2VsZW1lbnRzLzEuMS8iIHhtbG5zOmNjPSJodHRwOi8vY3JlYXRpdmVjb21tb25zLm9yZy9ucyMiIHhtbG5zOnJkZj0iaHR0cDovL3d3dy53My5vcmcvMTk5OS8wMi8yMi1yZGYtc3ludGF4LW5zIyIgeG1sbnM6c3ZnPSJodHRwOi8vd3d3LnczLm9yZy8yMDAwL3N2ZyIgeG1sbnM9Imh0dHA6Ly93d3cudzMub3JnLzIwMDAvc3ZnIiB4bWxuczpzb2RpcG9kaT0iaHR0cDovL3NvZGlwb2RpLnNvdXJjZWZvcmdlLm5ldC9EVEQvc29kaXBvZGktMC5kdGQiIHhtbG5zOmlua3NjYXBlPSJodHRwOi8vd3d3Lmlua3NjYXBlLm9yZy9uYW1lc3BhY2VzL2lua3NjYXBlIiB3aWR0aD0iMTguMDM1MzM0bW0iIGhlaWdodD0iMTcuNTAwMzc4bW0iIHZpZXdCb3g9IjAgMCAxOC4wMzUzMzQgMTcuNTAwMzc4IiB2ZXJzaW9uPSIxLjEiIGlkPSJzdmcxMzgyNiIgaW5rc2NhcGU6dmVyc2lvbj0iMC45MSByMTM3MjUiIHNvZGlwb2RpOmRvY25hbWU9ImRzLnN2ZyI+JiN4YTsgIDxkZWZzIGlkPSJkZWZzMTM4MjAiLz4mI3hhOyAgPHNvZGlwb2RpOm5hbWVkdmlldyBpZD0iYmFzZSIgcGFnZWNvbG9yPSIjZmZmZmZmIiBib3JkZXJjb2xvcj0iIzY2NjY2NiIgYm9yZGVyb3BhY2l0eT0iMS4wIiBpbmtzY2FwZTpwYWdlb3BhY2l0eT0iMC4wIiBpbmtzY2FwZTpwYWdlc2hhZG93PSIyIiBpbmtzY2FwZTp6b29tPSI5LjE4MTA0NDYiIGlua3NjYXBlOmN4PSIyOC43MzM0NTIiIGlua3NjYXBlOmN5PSIzMC40MjcxMjIiIGlua3NjYXBlOmRvY3VtZW50LXVuaXRzPSJtbSIgaW5rc2NhcGU6Y3VycmVudC1sYXllcj0ibGF5ZXIxIiBzaG93Z3JpZD0iZmFsc2UiIGlua3NjYXBlOndpbmRvdy13aWR0aD0iMTQ0MCIgaW5rc2NhcGU6d2luZG93LWhlaWdodD0iNzc1IiBpbmtzY2FwZTp3aW5kb3cteD0iMCIgaW5rc2NhcGU6d2luZG93LXk9IjEiIGlua3NjYXBlOndpbmRvdy1tYXhpbWl6ZWQ9IjEiIGZpdC1tYXJnaW4tdG9wPSIwIiBmaXQtbWFyZ2luLWxlZnQ9IjAiIGZpdC1tYXJnaW4tcmlnaHQ9IjAiIGZpdC1tYXJnaW4tYm90dG9tPSIwIi8+JiN4YTsgIDxtZXRhZGF0YSBpZD0ibWV0YWRhdGExMzgyMyI+JiN4YTsgICAgPHJkZjpSREY+JiN4YTsgICAgICA8Y2M6V29yayByZGY6YWJvdXQ9IiI+JiN4YTsgICAgICAgIDxkYzpmb3JtYXQ+aW1hZ2Uvc3ZnK3htbDwvZGM6Zm9ybWF0PiYjeGE7ICAgICAgICA8ZGM6dHlwZSByZGY6cmVzb3VyY2U9Imh0dHA6Ly9wdXJsLm9yZy9kYy9kY21pdHlwZS9TdGlsbEltYWdlIi8+JiN4YTsgICAgICAgIDxkYzp0aXRsZS8+JiN4YTsgICAgICA8L2NjOldvcms+JiN4YTsgICAgPC9yZGY6UkRGPiYjeGE7ICA8L21ldGFkYXRhPiYjeGE7ICA8ZyBpbmtzY2FwZTpsYWJlbD0iQ2FscXVlIDEiIGlua3NjYXBlOmdyb3VwbW9kZT0ibGF5ZXIiIGlkPSJsYXllcjEiIHRyYW5zZm9ybT0idHJhbnNsYXRlKC0wLjk5MjYyNjM4LC0xLjE3NDE4MSkiPiYjeGE7ICAgIDxnIGlkPSJnNzAiIHRyYW5zZm9ybT0ibWF0cml4KDEuMDE0ODg4NywwLDAsMS4wMTQ4ODg3LDE2LjkwMjE0NiwtMi42OTg3MjYpIj4mI3hhOyAgICAgIDxwYXRoIGlua3NjYXBlOmV4cG9ydC15ZHBpPSIyNTAuNTUiIGlua3NjYXBlOmV4cG9ydC14ZHBpPSIyNTAuNTUiIGlua3NjYXBlOmV4cG9ydC1maWxlbmFtZT0ibmV3LnBuZyIgaW5rc2NhcGU6Y29ubmVjdG9yLWN1cnZhdHVyZT0iMCIgaWQ9InBhdGgzMDU1IiBkPSJtIC02Ljg0OTIwMTUsNC4yNzI0NjY4IGEgMS4xMTkxMjU1LDEuMTA5OTY3MSAwIDAgMCAtMC40Mjg4ODE4LDAuMTA4NTMwMyBsIC01Ljg1MjQwMzcsMi43OTYzMzk0IGEgMS4xMTkxMjU1LDEuMTA5OTY3MSAwIDAgMCAtMC42MDU1MjQsMC43NTI5NzU5IGwgLTEuNDQzODI4LDYuMjgxMjg0NiBhIDEuMTE5MTI1NSwxLjEwOTk2NzEgMCAwIDAgMC4xNTE5NDMsMC44NTEwMjggMS4xMTkxMjU1LDEuMTA5OTY3MSAwIDAgMCAwLjA2MzYyLDAuMDg4MzIgbCA0LjA1MDgsNS4wMzY1NTUgYSAxLjExOTEyNTUsMS4xMDk5NjcxIDAgMCAwIDAuODc0OTc5LDAuNDE3NjU0IGwgNi40OTYxMDExLC0wLjAwMTUgYSAxLjExOTEyNTUsMS4xMDk5NjcxIDAgMCAwIDAuODc0OTc4OCwtMC40MTY5MDYgTCAxLjM4MTg4NzIsMTUuMTQ5NDUzIEEgMS4xMTkxMjU1LDEuMTA5OTY3MSAwIDAgMCAxLjU5ODE5ODYsMTQuMjEwMTA0IEwgMC4xNTIxMjY1Nyw3LjkyODgxNTQgQSAxLjExOTEyNTUsMS4xMDk5NjcxIDAgMCAwIC0wLjQ1MzM5Nzk0LDcuMTc1ODM5NiBMIC02LjMwNjU0OTYsNC4zODA5OTcxIEEgMS4xMTkxMjU1LDEuMTA5OTY3MSAwIDAgMCAtNi44NDkyMDE1LDQuMjcyNDY2OCBaIiBzdHlsZT0iZmlsbDojMzI2Y2U1O2ZpbGwtb3BhY2l0eToxO3N0cm9rZTpub25lO3N0cm9rZS13aWR0aDowO3N0cm9rZS1taXRlcmxpbWl0OjQ7c3Ryb2tlLWRhc2hhcnJheTpub25lO3N0cm9rZS1vcGFjaXR5OjEiLz4mI3hhOyAgICAgIDxwYXRoIGlkPSJwYXRoMzA1NC0yLTkiIGQ9Ik0gLTYuODUyMzQzNSwzLjgxNzYzNzIgQSAxLjE4MTQzMDQsMS4xNzE3NjIgMCAwIDAgLTcuMzA0NDI4NCwzLjkzMjkwNCBsIC02LjE3ODc0MjYsMi45NTEyNzU4IGEgMS4xODE0MzA0LDEuMTcxNzYyIDAgMCAwIC0wLjYzOTIwNiwwLjc5NDg5MSBsIC0xLjUyMzkxNSw2LjYzMDgyODIgYSAxLjE4MTQzMDQsMS4xNzE3NjIgMCAwIDAgMC4xNjAxNzUsMC44OTg5MyAxLjE4MTQzMDQsMS4xNzE3NjIgMCAwIDAgMC4wNjczNiwwLjA5MjgxIGwgNC4yNzYwOTQsNS4zMTcyMzYgYSAxLjE4MTQzMDQsMS4xNzE3NjIgMCAwIDAgMC45MjM2MywwLjQ0MDg1OCBsIDYuODU3NjE4OCwtMC4wMDE1IGEgMS4xODE0MzA0LDEuMTcxNzYyIDAgMCAwIDAuOTIzNjMwOCwtMC40NDAxMSBsIDQuMjc0NTk2NiwtNS4zMTc5ODUgYSAxLjE4MTQzMDQsMS4xNzE3NjIgMCAwIDAgMC4yMjgyODgsLTAuOTkwOTkzIEwgMC41Mzg5NDQzOSw3LjY3NzU3MzggQSAxLjE4MTQzMDQsMS4xNzE3NjIgMCAwIDAgLTAuMTAwMjYxMDEsNi44ODM0MzEzIEwgLTYuMjc5MDAzNywzLjkzMjE1NTUgQSAxLjE4MTQzMDQsMS4xNzE3NjIgMCAwIDAgLTYuODUyMzQzNSwzLjgxNzYzNzIgWiBtIDAuMDAyOTksMC40NTUwNzg5IGEgMS4xMTkxMjU1LDEuMTA5OTY3MSAwIDAgMSAwLjU0MjY1MTcsMC4xMDg1MzAzIGwgNS44NTMxNTE2OSwyLjc5NDg0MjUgQSAxLjExOTEyNTUsMS4xMDk5NjcxIDAgMCAxIDAuMTUxOTc4MTEsNy45MjkwNjQ4IEwgMS41OTgwNTEsMTQuMjEwMzUgYSAxLjExOTEyNTUsMS4xMDk5NjcxIDAgMCAxIC0wLjIxNjMxMjMsMC45MzkzNDggbCAtNC4wNDkzMDMyLDUuMDM3MzA0IGEgMS4xMTkxMjU1LDEuMTA5OTY3MSAwIDAgMSAtMC44NzQ5Nzg5LDAuNDE2OTA2IGwgLTYuNDk2MTAwNiwwLjAwMTUgYSAxLjExOTEyNTUsMS4xMDk5NjcxIDAgMCAxIC0wLjg3NDk3OSwtMC40MTc2NTIgbCAtNC4wNTA4LC01LjAzNjU1NCBhIDEuMTE5MTI1NSwxLjEwOTk2NzEgMCAwIDEgLTAuMDYzNjIsLTAuMDg4MzIgMS4xMTkxMjU1LDEuMTA5OTY3MSAwIDAgMSAtMC4xNTE5NDIsLTAuODUxMDI4IGwgMS40NDM4MjcsLTYuMjgxMjg1MyBhIDEuMTE5MTI1NSwxLjEwOTk2NzEgMCAwIDEgMC42MDU1MjQsLTAuNzUyOTc1OCBsIDUuODUyNDAzNiwtMi43OTYzMzk1IGEgMS4xMTkxMjU1LDEuMTA5OTY3MSAwIDAgMSAwLjQyODg4MTksLTAuMTA4NTMwMyB6IiBzdHlsZT0iY29sb3I6IzAwMDAwMDtmb250LXN0eWxlOm5vcm1hbDtmb250LXZhcmlhbnQ6bm9ybWFsO2ZvbnQtd2VpZ2h0Om5vcm1hbDtmb250LXN0cmV0Y2g6bm9ybWFsO2ZvbnQtc2l6ZTptZWRpdW07bGluZS1oZWlnaHQ6bm9ybWFsO2ZvbnQtZmFtaWx5OlNhbnM7LWlua3NjYXBlLWZvbnQtc3BlY2lmaWNhdGlvbjpTYW5zO3RleHQtaW5kZW50OjA7dGV4dC1hbGlnbjpzdGFydDt0ZXh0LWRlY29yYXRpb246bm9uZTt0ZXh0LWRlY29yYXRpb24tbGluZTpub25lO2xldHRlci1zcGFjaW5nOm5vcm1hbDt3b3JkLXNwYWNpbmc6bm9ybWFsO3RleHQtdHJhbnNmb3JtOm5vbmU7d3JpdGluZy1tb2RlOmxyLXRiO2RpcmVjdGlvbjpsdHI7YmFzZWxpbmUtc2hpZnQ6YmFzZWxpbmU7dGV4dC1hbmNob3I6c3RhcnQ7ZGlzcGxheTppbmxpbmU7b3ZlcmZsb3c6dmlzaWJsZTt2aXNpYmlsaXR5OnZpc2libGU7ZmlsbDojZmZmZmZmO2ZpbGwtb3BhY2l0eToxO2ZpbGwtcnVsZTpub256ZXJvO3N0cm9rZTpub25lO3N0cm9rZS13aWR0aDowO3N0cm9rZS1taXRlcmxpbWl0OjQ7c3Ryb2tlLWRhc2hhcnJheTpub25lO21hcmtlcjpub25lO2VuYWJsZS1iYWNrZ3JvdW5kOmFjY3VtdWxhdGUiIGlua3NjYXBlOmNvbm5lY3Rvci1jdXJ2YXR1cmU9IjAiLz4mI3hhOyAgICA8L2c+JiN4YTsgICAgPHRleHQgaWQ9InRleHQyMDY2IiB5PSIxNi44MTE3NzUiIHg9IjEwLjAxNjQ5NSIgc3R5bGU9ImZvbnQtc3R5bGU6bm9ybWFsO2ZvbnQtd2VpZ2h0Om5vcm1hbDtmb250LXNpemU6MTAuNTgzMzMzMDJweDtsaW5lLWhlaWdodDo2LjYxNDU4MzQ5cHg7Zm9udC1mYW1pbHk6U2FucztsZXR0ZXItc3BhY2luZzowcHg7d29yZC1zcGFjaW5nOjBweDtmaWxsOiNmZmZmZmY7ZmlsbC1vcGFjaXR5OjE7c3Ryb2tlOm5vbmU7c3Ryb2tlLXdpZHRoOjAuMjY0NTgzMzJweDtzdHJva2UtbGluZWNhcDpidXR0O3N0cm9rZS1saW5lam9pbjptaXRlcjtzdHJva2Utb3BhY2l0eToxIiB4bWw6c3BhY2U9InByZXNlcnZlIj48dHNwYW4gc3R5bGU9ImZvbnQtc3R5bGU6bm9ybWFsO2ZvbnQtdmFyaWFudDpub3JtYWw7Zm9udC13ZWlnaHQ6bm9ybWFsO2ZvbnQtc3RyZXRjaDpub3JtYWw7Zm9udC1zaXplOjIuODIyMjIyMjNweDtmb250LWZhbWlseTpBcmlhbDstaW5rc2NhcGUtZm9udC1zcGVjaWZpY2F0aW9uOidBcmlhbCwgTm9ybWFsJzt0ZXh0LWFsaWduOmNlbnRlcjt3cml0aW5nLW1vZGU6bHItdGI7dGV4dC1hbmNob3I6bWlkZGxlO2ZpbGw6I2ZmZmZmZjtmaWxsLW9wYWNpdHk6MTtzdHJva2Utd2lkdGg6MC4yNjQ1ODMzMnB4IiB5PSIxNi44MTE3NzUiIHg9IjEwLjAxNjQ5NSIgaWQ9InRzcGFuMjA2NCIgc29kaXBvZGk6cm9sZT0ibGluZSI+ZHM8L3RzcGFuPjwvdGV4dD4mI3hhOyAgICA8ZyBpZD0iZzMzNDMiIHRyYW5zZm9ybT0idHJhbnNsYXRlKDAuNTg2Mjc4MzUsMCkiPiYjeGE7ICAgICAgPHBhdGggaWQ9InBhdGg5MTYzIiBkPSJtIDcuNzA4Mjk5LDUuMjgyNzc0OCA2LjUyNDk4OSwwIDAsNC41ODMzMzQ4IC02LjUyNDk4OSwwIHoiIGlua3NjYXBlOmNvbm5lY3Rvci1jdXJ2YXR1cmU9IjAiIHN0eWxlPSJmaWxsOm5vbmU7ZmlsbC1ydWxlOmV2ZW5vZGQ7c3Ryb2tlOiNmZmZmZmY7c3Ryb2tlLXdpZHRoOjAuNTI5MTQ1ODQ7c3Ryb2tlLWxpbmVjYXA6c3F1YXJlO3N0cm9rZS1saW5lam9pbjpyb3VuZDtzdHJva2UtbWl0ZXJsaW1pdDoxMDtzdHJva2UtZGFzaGFycmF5OjEuNTg3NDM3NTYsIDEuNTg3NDM3NTY7c3Ryb2tlLWRhc2hvZmZzZXQ6My42NjY5ODA3NDtzdHJva2Utb3BhY2l0eToxIi8+JiN4YTsgICAgICA8cGF0aCBpbmtzY2FwZTpjb25uZWN0b3ItY3VydmF0dXJlPSIwIiBpZD0icGF0aDkxNzkiIGQ9Im0gNC4zNTAxNjksMTMuNjA2NzUyIDcuMDc0NTU5LDAiIHN0eWxlPSJmaWxsOm5vbmU7ZmlsbC1ydWxlOmV2ZW5vZGQ7c3Ryb2tlOiNmZmZmZmY7c3Ryb2tlLXdpZHRoOjAuNjE4MzMwMzY7c3Ryb2tlLWxpbmVjYXA6YnV0dDtzdHJva2UtbGluZWpvaW46bWl0ZXI7c3Ryb2tlLW1pdGVybGltaXQ6NDtzdHJva2UtZGFzaGFycmF5Om5vbmU7c3Ryb2tlLW9wYWNpdHk6MSIvPiYjeGE7ICAgICAgPHBhdGggaWQ9InBhdGg5MTY3IiBkPSJtIDYuMTY5NTQ5LDYuNjk0MDg1NSA2LjUyNDk4OSwwIDAsNC41ODMzMzU1IC02LjUyNDk4OSwwIHoiIGlua3NjYXBlOmNvbm5lY3Rvci1jdXJ2YXR1cmU9IjAiIHN0eWxlPSJmaWxsOiMzMjZjZTU7ZmlsbC1vcGFjaXR5OjE7ZmlsbC1ydWxlOmV2ZW5vZGQ7c3Ryb2tlOiNmZmZmZmY7c3Ryb2tlLXdpZHRoOjAuNTI5MTQ1ODQ7c3Ryb2tlLWxpbmVjYXA6c3F1YXJlO3N0cm9rZS1saW5lam9pbjpyb3VuZDtzdHJva2UtbWl0ZXJsaW1pdDoxMDtzdHJva2UtZGFzaGFycmF5OjEuNTg3NDM3NTYsIDEuNTg3NDM3NTY7c3Ryb2tlLWRhc2hvZmZzZXQ6My44Nzg2Mzg5ODtzdHJva2Utb3BhY2l0eToxIi8+JiN4YTsgICAgICA8cGF0aCBpZD0icGF0aDkxNzEiIGQ9Im0gNC42MzA3OTksOC4xMDUzOTgzIDYuNTI0OTk5LDAgMCw0LjU4MzMzNDcgLTYuNTI0OTk5LDAgeiIgaW5rc2NhcGU6Y29ubmVjdG9yLWN1cnZhdHVyZT0iMCIgc3R5bGU9ImZpbGw6bm9uZTtmaWxsLXJ1bGU6ZXZlbm9kZDtzdHJva2U6I2ZmZmZmZjtzdHJva2Utd2lkdGg6MC41MjkxNjY2NDtzdHJva2UtbGluZWNhcDpidXR0O3N0cm9rZS1saW5lam9pbjpyb3VuZDtzdHJva2UtbWl0ZXJsaW1pdDoxMDtzdHJva2Utb3BhY2l0eToxIi8+JiN4YTsgICAgICA8cGF0aCBpZD0icGF0aDkxNjkiIGQ9Im0gNC41ODY1MTkyLDguMTIyNjY2MSA2LjUyNTAwMTgsMCAwLDQuNTgzMzMzOSAtNi41MjUwMDE4LDAgeiIgaW5rc2NhcGU6Y29ubmVjdG9yLWN1cnZhdHVyZT0iMCIgc3R5bGU9ImZpbGw6I2ZmZmZmZjtmaWxsLXJ1bGU6ZXZlbm9kZDtzdHJva2U6bm9uZTtzdHJva2Utd2lkdGg6MC4yNjQ1ODMzMjtzdHJva2UtbGluZWNhcDpzcXVhcmU7c3Ryb2tlLW1pdGVybGltaXQ6MTAiLz4mI3hhOyAgICA8L2c+JiN4YTsgIDwvZz4mI3hhOzwvc3ZnPg==" vertex="1" parent="1">
          <mxGeometry x="270" y="500" width="80" height="80" as="geometry" />
        </mxCell>
        <mxCell id="kE3XrE7DXtP0te7mfZ7Q-5" value="" style="shape=image;verticalLabelPosition=bottom;verticalAlign=top;imageAspect=0;aspect=fixed;image=data:image/svg+xml,PHN2ZyB4bWxuczpkYz0iaHR0cDovL3B1cmwub3JnL2RjL2VsZW1lbnRzLzEuMS8iIHhtbG5zOmNjPSJodHRwOi8vY3JlYXRpdmVjb21tb25zLm9yZy9ucyMiIHhtbG5zOnJkZj0iaHR0cDovL3d3dy53My5vcmcvMTk5OS8wMi8yMi1yZGYtc3ludGF4LW5zIyIgeG1sbnM6c3ZnPSJodHRwOi8vd3d3LnczLm9yZy8yMDAwL3N2ZyIgeG1sbnM9Imh0dHA6Ly93d3cudzMub3JnLzIwMDAvc3ZnIiB4bWxuczpzb2RpcG9kaT0iaHR0cDovL3NvZGlwb2RpLnNvdXJjZWZvcmdlLm5ldC9EVEQvc29kaXBvZGktMC5kdGQiIHhtbG5zOmlua3NjYXBlPSJodHRwOi8vd3d3Lmlua3NjYXBlLm9yZy9uYW1lc3BhY2VzL2lua3NjYXBlIiB3aWR0aD0iMTguMDM1MzM0bW0iIGhlaWdodD0iMTcuNTAwMzc4bW0iIHZpZXdCb3g9IjAgMCAxOC4wMzUzMzQgMTcuNTAwMzc4IiB2ZXJzaW9uPSIxLjEiIGlkPSJzdmcxMzgyNiIgaW5rc2NhcGU6dmVyc2lvbj0iMC45MSByMTM3MjUiIHNvZGlwb2RpOmRvY25hbWU9InB2LnN2ZyI+JiN4YTsgIDxkZWZzIGlkPSJkZWZzMTM4MjAiLz4mI3hhOyAgPHNvZGlwb2RpOm5hbWVkdmlldyBpZD0iYmFzZSIgcGFnZWNvbG9yPSIjZmZmZmZmIiBib3JkZXJjb2xvcj0iIzY2NjY2NiIgYm9yZGVyb3BhY2l0eT0iMS4wIiBpbmtzY2FwZTpwYWdlb3BhY2l0eT0iMC4wIiBpbmtzY2FwZTpwYWdlc2hhZG93PSIyIiBpbmtzY2FwZTp6b29tPSI4IiBpbmtzY2FwZTpjeD0iNi44NDc0OTYiIGlua3NjYXBlOmN5PSIyOC43NTIyMzkiIGlua3NjYXBlOmRvY3VtZW50LXVuaXRzPSJtbSIgaW5rc2NhcGU6Y3VycmVudC1sYXllcj0ibGF5ZXIxIiBzaG93Z3JpZD0iZmFsc2UiIGlua3NjYXBlOndpbmRvdy13aWR0aD0iMTQ0MCIgaW5rc2NhcGU6d2luZG93LWhlaWdodD0iNzc1IiBpbmtzY2FwZTp3aW5kb3cteD0iMCIgaW5rc2NhcGU6d2luZG93LXk9IjEiIGlua3NjYXBlOndpbmRvdy1tYXhpbWl6ZWQ9IjEiIGZpdC1tYXJnaW4tdG9wPSIwIiBmaXQtbWFyZ2luLWxlZnQ9IjAiIGZpdC1tYXJnaW4tcmlnaHQ9IjAiIGZpdC1tYXJnaW4tYm90dG9tPSIwIi8+JiN4YTsgIDxtZXRhZGF0YSBpZD0ibWV0YWRhdGExMzgyMyI+JiN4YTsgICAgPHJkZjpSREY+JiN4YTsgICAgICA8Y2M6V29yayByZGY6YWJvdXQ9IiI+JiN4YTsgICAgICAgIDxkYzpmb3JtYXQ+aW1hZ2Uvc3ZnK3htbDwvZGM6Zm9ybWF0PiYjeGE7ICAgICAgICA8ZGM6dHlwZSByZGY6cmVzb3VyY2U9Imh0dHA6Ly9wdXJsLm9yZy9kYy9kY21pdHlwZS9TdGlsbEltYWdlIi8+JiN4YTsgICAgICAgIDxkYzp0aXRsZS8+JiN4YTsgICAgICA8L2NjOldvcms+JiN4YTsgICAgPC9yZGY6UkRGPiYjeGE7ICA8L21ldGFkYXRhPiYjeGE7ICA8ZyBpbmtzY2FwZTpsYWJlbD0iQ2FscXVlIDEiIGlua3NjYXBlOmdyb3VwbW9kZT0ibGF5ZXIiIGlkPSJsYXllcjEiIHRyYW5zZm9ybT0idHJhbnNsYXRlKC0wLjk5MjYyNjM4LC0xLjE3NDE4MSkiPiYjeGE7ICAgIDxnIGlkPSJnNzAiIHRyYW5zZm9ybT0ibWF0cml4KDEuMDE0ODg4NywwLDAsMS4wMTQ4ODg3LDE2LjkwMjE0NiwtMi42OTg3MjYpIj4mI3hhOyAgICAgIDxwYXRoIGlua3NjYXBlOmV4cG9ydC15ZHBpPSIyNTAuNTUiIGlua3NjYXBlOmV4cG9ydC14ZHBpPSIyNTAuNTUiIGlua3NjYXBlOmV4cG9ydC1maWxlbmFtZT0ibmV3LnBuZyIgaW5rc2NhcGU6Y29ubmVjdG9yLWN1cnZhdHVyZT0iMCIgaWQ9InBhdGgzMDU1IiBkPSJtIC02Ljg0OTIwMTUsNC4yNzI0NjY4IGEgMS4xMTkxMjU1LDEuMTA5OTY3MSAwIDAgMCAtMC40Mjg4ODE4LDAuMTA4NTMwMyBsIC01Ljg1MjQwMzcsMi43OTYzMzk0IGEgMS4xMTkxMjU1LDEuMTA5OTY3MSAwIDAgMCAtMC42MDU1MjQsMC43NTI5NzU5IGwgLTEuNDQzODI4LDYuMjgxMjg0NiBhIDEuMTE5MTI1NSwxLjEwOTk2NzEgMCAwIDAgMC4xNTE5NDMsMC44NTEwMjggMS4xMTkxMjU1LDEuMTA5OTY3MSAwIDAgMCAwLjA2MzYyLDAuMDg4MzIgbCA0LjA1MDgsNS4wMzY1NTUgYSAxLjExOTEyNTUsMS4xMDk5NjcxIDAgMCAwIDAuODc0OTc5LDAuNDE3NjU0IGwgNi40OTYxMDExLC0wLjAwMTUgYSAxLjExOTEyNTUsMS4xMDk5NjcxIDAgMCAwIDAuODc0OTc4OCwtMC40MTY5MDYgTCAxLjM4MTg4NzIsMTUuMTQ5NDUzIEEgMS4xMTkxMjU1LDEuMTA5OTY3MSAwIDAgMCAxLjU5ODE5ODYsMTQuMjEwMTA0IEwgMC4xNTIxMjY1Nyw3LjkyODgxNTQgQSAxLjExOTEyNTUsMS4xMDk5NjcxIDAgMCAwIC0wLjQ1MzM5Nzk0LDcuMTc1ODM5NiBMIC02LjMwNjU0OTYsNC4zODA5OTcxIEEgMS4xMTkxMjU1LDEuMTA5OTY3MSAwIDAgMCAtNi44NDkyMDE1LDQuMjcyNDY2OCBaIiBzdHlsZT0iZmlsbDojMzI2Y2U1O2ZpbGwtb3BhY2l0eToxO3N0cm9rZTpub25lO3N0cm9rZS13aWR0aDowO3N0cm9rZS1taXRlcmxpbWl0OjQ7c3Ryb2tlLWRhc2hhcnJheTpub25lO3N0cm9rZS1vcGFjaXR5OjEiLz4mI3hhOyAgICAgIDxwYXRoIGlkPSJwYXRoMzA1NC0yLTkiIGQ9Ik0gLTYuODUyMzQzNSwzLjgxNzYzNzIgQSAxLjE4MTQzMDQsMS4xNzE3NjIgMCAwIDAgLTcuMzA0NDI4NCwzLjkzMjkwNCBsIC02LjE3ODc0MjYsMi45NTEyNzU4IGEgMS4xODE0MzA0LDEuMTcxNzYyIDAgMCAwIC0wLjYzOTIwNiwwLjc5NDg5MSBsIC0xLjUyMzkxNSw2LjYzMDgyODIgYSAxLjE4MTQzMDQsMS4xNzE3NjIgMCAwIDAgMC4xNjAxNzUsMC44OTg5MyAxLjE4MTQzMDQsMS4xNzE3NjIgMCAwIDAgMC4wNjczNiwwLjA5MjgxIGwgNC4yNzYwOTQsNS4zMTcyMzYgYSAxLjE4MTQzMDQsMS4xNzE3NjIgMCAwIDAgMC45MjM2MywwLjQ0MDg1OCBsIDYuODU3NjE4OCwtMC4wMDE1IGEgMS4xODE0MzA0LDEuMTcxNzYyIDAgMCAwIDAuOTIzNjMwOCwtMC40NDAxMSBsIDQuMjc0NTk2NiwtNS4zMTc5ODUgYSAxLjE4MTQzMDQsMS4xNzE3NjIgMCAwIDAgMC4yMjgyODgsLTAuOTkwOTkzIEwgMC41Mzg5NDQzOSw3LjY3NzU3MzggQSAxLjE4MTQzMDQsMS4xNzE3NjIgMCAwIDAgLTAuMTAwMjYxMDEsNi44ODM0MzEzIEwgLTYuMjc5MDAzNywzLjkzMjE1NTUgQSAxLjE4MTQzMDQsMS4xNzE3NjIgMCAwIDAgLTYuODUyMzQzNSwzLjgxNzYzNzIgWiBtIDAuMDAyOTksMC40NTUwNzg5IGEgMS4xMTkxMjU1LDEuMTA5OTY3MSAwIDAgMSAwLjU0MjY1MTcsMC4xMDg1MzAzIGwgNS44NTMxNTE2OSwyLjc5NDg0MjUgQSAxLjExOTEyNTUsMS4xMDk5NjcxIDAgMCAxIDAuMTUxOTc4MTEsNy45MjkwNjQ4IEwgMS41OTgwNTEsMTQuMjEwMzUgYSAxLjExOTEyNTUsMS4xMDk5NjcxIDAgMCAxIC0wLjIxNjMxMjMsMC45MzkzNDggbCAtNC4wNDkzMDMyLDUuMDM3MzA0IGEgMS4xMTkxMjU1LDEuMTA5OTY3MSAwIDAgMSAtMC44NzQ5Nzg5LDAuNDE2OTA2IGwgLTYuNDk2MTAwNiwwLjAwMTUgYSAxLjExOTEyNTUsMS4xMDk5NjcxIDAgMCAxIC0wLjg3NDk3OSwtMC40MTc2NTIgbCAtNC4wNTA4LC01LjAzNjU1NCBhIDEuMTE5MTI1NSwxLjEwOTk2NzEgMCAwIDEgLTAuMDYzNjIsLTAuMDg4MzIgMS4xMTkxMjU1LDEuMTA5OTY3MSAwIDAgMSAtMC4xNTE5NDIsLTAuODUxMDI4IGwgMS40NDM4MjcsLTYuMjgxMjg1MyBhIDEuMTE5MTI1NSwxLjEwOTk2NzEgMCAwIDEgMC42MDU1MjQsLTAuNzUyOTc1OCBsIDUuODUyNDAzNiwtMi43OTYzMzk1IGEgMS4xMTkxMjU1LDEuMTA5OTY3MSAwIDAgMSAwLjQyODg4MTksLTAuMTA4NTMwMyB6IiBzdHlsZT0iY29sb3I6IzAwMDAwMDtmb250LXN0eWxlOm5vcm1hbDtmb250LXZhcmlhbnQ6bm9ybWFsO2ZvbnQtd2VpZ2h0Om5vcm1hbDtmb250LXN0cmV0Y2g6bm9ybWFsO2ZvbnQtc2l6ZTptZWRpdW07bGluZS1oZWlnaHQ6bm9ybWFsO2ZvbnQtZmFtaWx5OlNhbnM7LWlua3NjYXBlLWZvbnQtc3BlY2lmaWNhdGlvbjpTYW5zO3RleHQtaW5kZW50OjA7dGV4dC1hbGlnbjpzdGFydDt0ZXh0LWRlY29yYXRpb246bm9uZTt0ZXh0LWRlY29yYXRpb24tbGluZTpub25lO2xldHRlci1zcGFjaW5nOm5vcm1hbDt3b3JkLXNwYWNpbmc6bm9ybWFsO3RleHQtdHJhbnNmb3JtOm5vbmU7d3JpdGluZy1tb2RlOmxyLXRiO2RpcmVjdGlvbjpsdHI7YmFzZWxpbmUtc2hpZnQ6YmFzZWxpbmU7dGV4dC1hbmNob3I6c3RhcnQ7ZGlzcGxheTppbmxpbmU7b3ZlcmZsb3c6dmlzaWJsZTt2aXNpYmlsaXR5OnZpc2libGU7ZmlsbDojZmZmZmZmO2ZpbGwtb3BhY2l0eToxO2ZpbGwtcnVsZTpub256ZXJvO3N0cm9rZTpub25lO3N0cm9rZS13aWR0aDowO3N0cm9rZS1taXRlcmxpbWl0OjQ7c3Ryb2tlLWRhc2hhcnJheTpub25lO21hcmtlcjpub25lO2VuYWJsZS1iYWNrZ3JvdW5kOmFjY3VtdWxhdGUiIGlua3NjYXBlOmNvbm5lY3Rvci1jdXJ2YXR1cmU9IjAiLz4mI3hhOyAgICA8L2c+JiN4YTsgICAgPHRleHQgaWQ9InRleHQyMDY2IiB5PSIxNi44MTE3NzUiIHg9IjkuOTMzODEyMSIgc3R5bGU9ImZvbnQtc3R5bGU6bm9ybWFsO2ZvbnQtd2VpZ2h0Om5vcm1hbDtmb250LXNpemU6MTAuNTgzMzMzMDJweDtsaW5lLWhlaWdodDo2LjYxNDU4MzQ5cHg7Zm9udC1mYW1pbHk6U2FucztsZXR0ZXItc3BhY2luZzowcHg7d29yZC1zcGFjaW5nOjBweDtmaWxsOiNmZmZmZmY7ZmlsbC1vcGFjaXR5OjE7c3Ryb2tlOm5vbmU7c3Ryb2tlLXdpZHRoOjAuMjY0NTgzMzJweDtzdHJva2UtbGluZWNhcDpidXR0O3N0cm9rZS1saW5lam9pbjptaXRlcjtzdHJva2Utb3BhY2l0eToxIiB4bWw6c3BhY2U9InByZXNlcnZlIj48dHNwYW4gc3R5bGU9ImZvbnQtc3R5bGU6bm9ybWFsO2ZvbnQtdmFyaWFudDpub3JtYWw7Zm9udC13ZWlnaHQ6bm9ybWFsO2ZvbnQtc3RyZXRjaDpub3JtYWw7Zm9udC1zaXplOjIuODIyMjIyMjNweDtmb250LWZhbWlseTpBcmlhbDstaW5rc2NhcGUtZm9udC1zcGVjaWZpY2F0aW9uOidBcmlhbCwgTm9ybWFsJzt0ZXh0LWFsaWduOmNlbnRlcjt3cml0aW5nLW1vZGU6bHItdGI7dGV4dC1hbmNob3I6bWlkZGxlO2ZpbGw6I2ZmZmZmZjtmaWxsLW9wYWNpdHk6MTtzdHJva2Utd2lkdGg6MC4yNjQ1ODMzMnB4IiB5PSIxNi44MTE3NzUiIHg9IjkuOTMzODEyMSIgaWQ9InRzcGFuMjA2NCIgc29kaXBvZGk6cm9sZT0ibGluZSI+cHY8L3RzcGFuPjwvdGV4dD4mI3hhOyAgICA8ZyBpZD0iZzMzNDEiIHRyYW5zZm9ybT0idHJhbnNsYXRlKC0wLjE4OTgzMjg5LDApIj4mI3hhOyAgICAgIDxwYXRoIHN0eWxlPSJmaWxsOiNmZmZmZmY7ZmlsbC1ydWxlOmV2ZW5vZGQ7c3Ryb2tlOm5vbmU7c3Ryb2tlLXdpZHRoOjAuMjY0NTgzMzI7c3Ryb2tlLWxpbmVjYXA6c3F1YXJlO3N0cm9rZS1taXRlcmxpbWl0OjEwIiBpbmtzY2FwZTpjb25uZWN0b3ItY3VydmF0dXJlPSIwIiBkPSJtIDUuNTcwOTYxNCw3LjkxMDU4NDkgMCwwIGMgMCwwLjYyMTEyMSAyLjA3MjU0MDEsMS4xMjQ2MzkgNC42MjkxNzA2LDEuMTI0NjM5IDIuNTU2NjA5LDAgNC42MjkxNTksLTAuNTAzNTE4IDQuNjI5MTU5LC0xLjEyNDYzOSBsIDAsMy4wNDIzOTExIGMgMCwwLjYyMTEyIC0yLjA3MjU1LDEuMTI0NjM4IC00LjYyOTE1OSwxLjEyNDYzOCAtMi41NTY2MzA1LDAgLTQuNjI5MTcwNiwtMC41MDM1MTggLTQuNjI5MTcwNiwtMS4xMjQ2MzggeiIgaWQ9InBhdGgxMTE0Ii8+JiN4YTsgICAgICA8cGF0aCBzdHlsZT0iZmlsbDojZmZmZmZmO2ZpbGwtb3BhY2l0eToxO2ZpbGwtcnVsZTpldmVub2RkO3N0cm9rZTpub25lO3N0cm9rZS13aWR0aDowLjI2NDU4MzMyO3N0cm9rZS1saW5lY2FwOnNxdWFyZTtzdHJva2UtbWl0ZXJsaW1pdDoxMCIgaW5rc2NhcGU6Y29ubmVjdG9yLWN1cnZhdHVyZT0iMCIgZD0ibSA1LjU3MDk2MTQsNy45MTA1ODQ5IDAsMCBjIDAsLTAuNjIxMTE5IDIuMDcyNTQwMSwtMS4xMjQ2MzcgNC42MjkxNzA2LC0xLjEyNDYzNyAyLjU1NjYwOSwwIDQuNjI5MTU5LDAuNTAzNTE4IDQuNjI5MTU5LDEuMTI0NjM3IGwgMCwwIGMgMCwwLjYyMTEyMSAtMi4wNzI1NSwxLjEyNDYzOSAtNC42MjkxNTksMS4xMjQ2MzkgLTIuNTU2NjMwNSwwIC00LjYyOTE3MDYsLTAuNTAzNTE4IC00LjYyOTE3MDYsLTEuMTI0NjM5IHoiIGlkPSJwYXRoMTExNiIvPiYjeGE7ICAgICAgPHBhdGggc3R5bGU9ImZpbGw6bm9uZTtmaWxsLXJ1bGU6ZXZlbm9kZDtzdHJva2U6IzMyNmNlNTtzdHJva2Utd2lkdGg6MC4yNjQ1ODMzMjtzdHJva2UtbGluZWNhcDpidXR0O3N0cm9rZS1saW5lam9pbjpyb3VuZDtzdHJva2UtbWl0ZXJsaW1pdDoxMDtzdHJva2Utb3BhY2l0eToxIiBpbmtzY2FwZTpjb25uZWN0b3ItY3VydmF0dXJlPSIwIiBkPSJtIDE0LjgyOTI5MSw3LjkxMDU4NDkgMCwwIGMgMCwwLjYyMTEyMSAtMi4wNzI1NSwxLjEyNDYzOSAtNC42MjkxNTksMS4xMjQ2MzkgLTIuNTU2NjIwNSwwIC00LjYyOTE3MDYsLTAuNTAzNTE4IC00LjYyOTE3MDYsLTEuMTI0NjM5IGwgMCwwIGMgMCwtMC42MjExMTkgMi4wNzI1NTAxLC0xLjEyNDYzNyA0LjYyOTE3MDYsLTEuMTI0NjM3IDIuNTU2NjA5LDAgNC42MjkxNTksMC41MDM1MTggNC42MjkxNTksMS4xMjQ2MzcgbCAwLDMuMDQyMzkxMSBjIDAsMC42MjExMiAtMi4wNzI1NSwxLjEyNDYzOCAtNC42MjkxNTksMS4xMjQ2MzggLTIuNTU2NjIwNSwwIC00LjYyOTE3MDYsLTAuNTAzNTE4IC00LjYyOTE3MDYsLTEuMTI0NjM4IGwgMCwtMy4wNDIzOTExIiBpZD0icGF0aDExMjAiLz4mI3hhOyAgICA8L2c+JiN4YTsgIDwvZz4mI3hhOzwvc3ZnPg==" vertex="1" parent="1">
          <mxGeometry x="290" y="650" width="80" height="80" as="geometry" />
        </mxCell>
        <mxCell id="kE3XrE7DXtP0te7mfZ7Q-6" value="" style="shape=image;verticalLabelPosition=bottom;verticalAlign=top;imageAspect=0;aspect=fixed;image=data:image/svg+xml,PHN2ZyB4bWxuczpkYz0iaHR0cDovL3B1cmwub3JnL2RjL2VsZW1lbnRzLzEuMS8iIHhtbG5zOmNjPSJodHRwOi8vY3JlYXRpdmVjb21tb25zLm9yZy9ucyMiIHhtbG5zOnJkZj0iaHR0cDovL3d3dy53My5vcmcvMTk5OS8wMi8yMi1yZGYtc3ludGF4LW5zIyIgeG1sbnM6c3ZnPSJodHRwOi8vd3d3LnczLm9yZy8yMDAwL3N2ZyIgeG1sbnM9Imh0dHA6Ly93d3cudzMub3JnLzIwMDAvc3ZnIiB4bWxuczpzb2RpcG9kaT0iaHR0cDovL3NvZGlwb2RpLnNvdXJjZWZvcmdlLm5ldC9EVEQvc29kaXBvZGktMC5kdGQiIHhtbG5zOmlua3NjYXBlPSJodHRwOi8vd3d3Lmlua3NjYXBlLm9yZy9uYW1lc3BhY2VzL2lua3NjYXBlIiB3aWR0aD0iMTguMDM1MzM0bW0iIGhlaWdodD0iMTcuNTAwMzc4bW0iIHZpZXdCb3g9IjAgMCAxOC4wMzUzMzQgMTcuNTAwMzc4IiB2ZXJzaW9uPSIxLjEiIGlkPSJzdmcxMzgyNiIgaW5rc2NhcGU6dmVyc2lvbj0iMC45MSByMTM3MjUiIHNvZGlwb2RpOmRvY25hbWU9InB2Yy5zdmciPiYjeGE7ICA8ZGVmcyBpZD0iZGVmczEzODIwIi8+JiN4YTsgIDxzb2RpcG9kaTpuYW1lZHZpZXcgaWQ9ImJhc2UiIHBhZ2Vjb2xvcj0iI2ZmZmZmZiIgYm9yZGVyY29sb3I9IiM2NjY2NjYiIGJvcmRlcm9wYWNpdHk9IjEuMCIgaW5rc2NhcGU6cGFnZW9wYWNpdHk9IjAuMCIgaW5rc2NhcGU6cGFnZXNoYWRvdz0iMiIgaW5rc2NhcGU6em9vbT0iMTEuMzEzNzA4IiBpbmtzY2FwZTpjeD0iMjEuMjEyMzM4IiBpbmtzY2FwZTpjeT0iMjUuNjkyMDAxIiBpbmtzY2FwZTpkb2N1bWVudC11bml0cz0ibW0iIGlua3NjYXBlOmN1cnJlbnQtbGF5ZXI9ImxheWVyMSIgc2hvd2dyaWQ9ImZhbHNlIiBpbmtzY2FwZTp3aW5kb3ctd2lkdGg9IjE0NDAiIGlua3NjYXBlOndpbmRvdy1oZWlnaHQ9Ijc3NSIgaW5rc2NhcGU6d2luZG93LXg9IjAiIGlua3NjYXBlOndpbmRvdy15PSIxIiBpbmtzY2FwZTp3aW5kb3ctbWF4aW1pemVkPSIxIiBmaXQtbWFyZ2luLXRvcD0iMCIgZml0LW1hcmdpbi1sZWZ0PSIwIiBmaXQtbWFyZ2luLXJpZ2h0PSIwIiBmaXQtbWFyZ2luLWJvdHRvbT0iMCIvPiYjeGE7ICA8bWV0YWRhdGEgaWQ9Im1ldGFkYXRhMTM4MjMiPiYjeGE7ICAgIDxyZGY6UkRGPiYjeGE7ICAgICAgPGNjOldvcmsgcmRmOmFib3V0PSIiPiYjeGE7ICAgICAgICA8ZGM6Zm9ybWF0PmltYWdlL3N2Zyt4bWw8L2RjOmZvcm1hdD4mI3hhOyAgICAgICAgPGRjOnR5cGUgcmRmOnJlc291cmNlPSJodHRwOi8vcHVybC5vcmcvZGMvZGNtaXR5cGUvU3RpbGxJbWFnZSIvPiYjeGE7ICAgICAgICA8ZGM6dGl0bGUvPiYjeGE7ICAgICAgPC9jYzpXb3JrPiYjeGE7ICAgIDwvcmRmOlJERj4mI3hhOyAgPC9tZXRhZGF0YT4mI3hhOyAgPGcgaW5rc2NhcGU6bGFiZWw9IkNhbHF1ZSAxIiBpbmtzY2FwZTpncm91cG1vZGU9ImxheWVyIiBpZD0ibGF5ZXIxIiB0cmFuc2Zvcm09InRyYW5zbGF0ZSgtMC45OTI2MjYzOCwtMS4xNzQxODEpIj4mI3hhOyAgICA8ZyBpZD0iZzcwIiB0cmFuc2Zvcm09Im1hdHJpeCgxLjAxNDg4ODcsMCwwLDEuMDE0ODg4NywxNi45MDIxNDYsLTIuNjk4NzI2KSI+JiN4YTsgICAgICA8cGF0aCBpbmtzY2FwZTpleHBvcnQteWRwaT0iMjUwLjU1IiBpbmtzY2FwZTpleHBvcnQteGRwaT0iMjUwLjU1IiBpbmtzY2FwZTpleHBvcnQtZmlsZW5hbWU9Im5ldy5wbmciIGlua3NjYXBlOmNvbm5lY3Rvci1jdXJ2YXR1cmU9IjAiIGlkPSJwYXRoMzA1NSIgZD0ibSAtNi44NDkyMDE1LDQuMjcyNDY2OCBhIDEuMTE5MTI1NSwxLjEwOTk2NzEgMCAwIDAgLTAuNDI4ODgxOCwwLjEwODUzMDMgbCAtNS44NTI0MDM3LDIuNzk2MzM5NCBhIDEuMTE5MTI1NSwxLjEwOTk2NzEgMCAwIDAgLTAuNjA1NTI0LDAuNzUyOTc1OSBsIC0xLjQ0MzgyOCw2LjI4MTI4NDYgYSAxLjExOTEyNTUsMS4xMDk5NjcxIDAgMCAwIDAuMTUxOTQzLDAuODUxMDI4IDEuMTE5MTI1NSwxLjEwOTk2NzEgMCAwIDAgMC4wNjM2MiwwLjA4ODMyIGwgNC4wNTA4LDUuMDM2NTU1IGEgMS4xMTkxMjU1LDEuMTA5OTY3MSAwIDAgMCAwLjg3NDk3OSwwLjQxNzY1NCBsIDYuNDk2MTAxMSwtMC4wMDE1IGEgMS4xMTkxMjU1LDEuMTA5OTY3MSAwIDAgMCAwLjg3NDk3ODgsLTAuNDE2OTA2IEwgMS4zODE4ODcyLDE1LjE0OTQ1MyBBIDEuMTE5MTI1NSwxLjEwOTk2NzEgMCAwIDAgMS41OTgxOTg2LDE0LjIxMDEwNCBMIDAuMTUyMTI2NTcsNy45Mjg4MTU0IEEgMS4xMTkxMjU1LDEuMTA5OTY3MSAwIDAgMCAtMC40NTMzOTc5NCw3LjE3NTgzOTYgTCAtNi4zMDY1NDk2LDQuMzgwOTk3MSBBIDEuMTE5MTI1NSwxLjEwOTk2NzEgMCAwIDAgLTYuODQ5MjAxNSw0LjI3MjQ2NjggWiIgc3R5bGU9ImZpbGw6IzMyNmNlNTtmaWxsLW9wYWNpdHk6MTtzdHJva2U6bm9uZTtzdHJva2Utd2lkdGg6MDtzdHJva2UtbWl0ZXJsaW1pdDo0O3N0cm9rZS1kYXNoYXJyYXk6bm9uZTtzdHJva2Utb3BhY2l0eToxIi8+JiN4YTsgICAgICA8cGF0aCBpZD0icGF0aDMwNTQtMi05IiBkPSJNIC02Ljg1MjM0MzUsMy44MTc2MzcyIEEgMS4xODE0MzA0LDEuMTcxNzYyIDAgMCAwIC03LjMwNDQyODQsMy45MzI5MDQgbCAtNi4xNzg3NDI2LDIuOTUxMjc1OCBhIDEuMTgxNDMwNCwxLjE3MTc2MiAwIDAgMCAtMC42MzkyMDYsMC43OTQ4OTEgbCAtMS41MjM5MTUsNi42MzA4MjgyIGEgMS4xODE0MzA0LDEuMTcxNzYyIDAgMCAwIDAuMTYwMTc1LDAuODk4OTMgMS4xODE0MzA0LDEuMTcxNzYyIDAgMCAwIDAuMDY3MzYsMC4wOTI4MSBsIDQuMjc2MDk0LDUuMzE3MjM2IGEgMS4xODE0MzA0LDEuMTcxNzYyIDAgMCAwIDAuOTIzNjMsMC40NDA4NTggbCA2Ljg1NzYxODgsLTAuMDAxNSBhIDEuMTgxNDMwNCwxLjE3MTc2MiAwIDAgMCAwLjkyMzYzMDgsLTAuNDQwMTEgbCA0LjI3NDU5NjYsLTUuMzE3OTg1IGEgMS4xODE0MzA0LDEuMTcxNzYyIDAgMCAwIDAuMjI4Mjg4LC0wLjk5MDk5MyBMIDAuNTM4OTQ0MzksNy42Nzc1NzM4IEEgMS4xODE0MzA0LDEuMTcxNzYyIDAgMCAwIC0wLjEwMDI2MTAxLDYuODgzNDMxMyBMIC02LjI3OTAwMzcsMy45MzIxNTU1IEEgMS4xODE0MzA0LDEuMTcxNzYyIDAgMCAwIC02Ljg1MjM0MzUsMy44MTc2MzcyIFogbSAwLjAwMjk5LDAuNDU1MDc4OSBhIDEuMTE5MTI1NSwxLjEwOTk2NzEgMCAwIDEgMC41NDI2NTE3LDAuMTA4NTMwMyBsIDUuODUzMTUxNjksMi43OTQ4NDI1IEEgMS4xMTkxMjU1LDEuMTA5OTY3MSAwIDAgMSAwLjE1MTk3ODExLDcuOTI5MDY0OCBMIDEuNTk4MDUxLDE0LjIxMDM1IGEgMS4xMTkxMjU1LDEuMTA5OTY3MSAwIDAgMSAtMC4yMTYzMTIzLDAuOTM5MzQ4IGwgLTQuMDQ5MzAzMiw1LjAzNzMwNCBhIDEuMTE5MTI1NSwxLjEwOTk2NzEgMCAwIDEgLTAuODc0OTc4OSwwLjQxNjkwNiBsIC02LjQ5NjEwMDYsMC4wMDE1IGEgMS4xMTkxMjU1LDEuMTA5OTY3MSAwIDAgMSAtMC44NzQ5NzksLTAuNDE3NjUyIGwgLTQuMDUwOCwtNS4wMzY1NTQgYSAxLjExOTEyNTUsMS4xMDk5NjcxIDAgMCAxIC0wLjA2MzYyLC0wLjA4ODMyIDEuMTE5MTI1NSwxLjEwOTk2NzEgMCAwIDEgLTAuMTUxOTQyLC0wLjg1MTAyOCBsIDEuNDQzODI3LC02LjI4MTI4NTMgYSAxLjExOTEyNTUsMS4xMDk5NjcxIDAgMCAxIDAuNjA1NTI0LC0wLjc1Mjk3NTggbCA1Ljg1MjQwMzYsLTIuNzk2MzM5NSBhIDEuMTE5MTI1NSwxLjEwOTk2NzEgMCAwIDEgMC40Mjg4ODE5LC0wLjEwODUzMDMgeiIgc3R5bGU9ImNvbG9yOiMwMDAwMDA7Zm9udC1zdHlsZTpub3JtYWw7Zm9udC12YXJpYW50Om5vcm1hbDtmb250LXdlaWdodDpub3JtYWw7Zm9udC1zdHJldGNoOm5vcm1hbDtmb250LXNpemU6bWVkaXVtO2xpbmUtaGVpZ2h0Om5vcm1hbDtmb250LWZhbWlseTpTYW5zOy1pbmtzY2FwZS1mb250LXNwZWNpZmljYXRpb246U2Fuczt0ZXh0LWluZGVudDowO3RleHQtYWxpZ246c3RhcnQ7dGV4dC1kZWNvcmF0aW9uOm5vbmU7dGV4dC1kZWNvcmF0aW9uLWxpbmU6bm9uZTtsZXR0ZXItc3BhY2luZzpub3JtYWw7d29yZC1zcGFjaW5nOm5vcm1hbDt0ZXh0LXRyYW5zZm9ybTpub25lO3dyaXRpbmctbW9kZTpsci10YjtkaXJlY3Rpb246bHRyO2Jhc2VsaW5lLXNoaWZ0OmJhc2VsaW5lO3RleHQtYW5jaG9yOnN0YXJ0O2Rpc3BsYXk6aW5saW5lO292ZXJmbG93OnZpc2libGU7dmlzaWJpbGl0eTp2aXNpYmxlO2ZpbGw6I2ZmZmZmZjtmaWxsLW9wYWNpdHk6MTtmaWxsLXJ1bGU6bm9uemVybztzdHJva2U6bm9uZTtzdHJva2Utd2lkdGg6MDtzdHJva2UtbWl0ZXJsaW1pdDo0O3N0cm9rZS1kYXNoYXJyYXk6bm9uZTttYXJrZXI6bm9uZTtlbmFibGUtYmFja2dyb3VuZDphY2N1bXVsYXRlIiBpbmtzY2FwZTpjb25uZWN0b3ItY3VydmF0dXJlPSIwIi8+JiN4YTsgICAgPC9nPiYjeGE7ICAgIDx0ZXh0IGlkPSJ0ZXh0MjA2NiIgeT0iMTYuODExNzc1IiB4PSI5LjkzMDM2NzUiIHN0eWxlPSJmb250LXN0eWxlOm5vcm1hbDtmb250LXdlaWdodDpub3JtYWw7Zm9udC1zaXplOjEwLjU4MzMzMzAycHg7bGluZS1oZWlnaHQ6Ni42MTQ1ODM0OXB4O2ZvbnQtZmFtaWx5OlNhbnM7bGV0dGVyLXNwYWNpbmc6MHB4O3dvcmQtc3BhY2luZzowcHg7ZmlsbDojZmZmZmZmO2ZpbGwtb3BhY2l0eToxO3N0cm9rZTpub25lO3N0cm9rZS13aWR0aDowLjI2NDU4MzMycHg7c3Ryb2tlLWxpbmVjYXA6YnV0dDtzdHJva2UtbGluZWpvaW46bWl0ZXI7c3Ryb2tlLW9wYWNpdHk6MSIgeG1sOnNwYWNlPSJwcmVzZXJ2ZSI+PHRzcGFuIHN0eWxlPSJmb250LXN0eWxlOm5vcm1hbDtmb250LXZhcmlhbnQ6bm9ybWFsO2ZvbnQtd2VpZ2h0Om5vcm1hbDtmb250LXN0cmV0Y2g6bm9ybWFsO2ZvbnQtc2l6ZToyLjgyMjIyMjIzcHg7Zm9udC1mYW1pbHk6QXJpYWw7LWlua3NjYXBlLWZvbnQtc3BlY2lmaWNhdGlvbjonQXJpYWwsIE5vcm1hbCc7dGV4dC1hbGlnbjpjZW50ZXI7d3JpdGluZy1tb2RlOmxyLXRiO3RleHQtYW5jaG9yOm1pZGRsZTtmaWxsOiNmZmZmZmY7ZmlsbC1vcGFjaXR5OjE7c3Ryb2tlLXdpZHRoOjAuMjY0NTgzMzJweCIgeT0iMTYuODExNzc1IiB4PSI5LjkzMDM2NzUiIGlkPSJ0c3BhbjIwNjQiIHNvZGlwb2RpOnJvbGU9ImxpbmUiPnB2YzwvdHNwYW4+PC90ZXh0PiYjeGE7ICAgIDxwYXRoIGlkPSJwYXRoMTEzNCIgZD0ibSAxNC42Mzk0Niw4LjA3NjY0MTMgMCwwIGMgMCwwLjYyMTEyMDcgLTIuMDcyNTUsMS4xMjQ2MzkxIC00LjYyOTE2LDEuMTI0NjM5MSAtMi41NTY2MjI0LDAgLTQuNjI5MTczLC0wLjUwMzUxODQgLTQuNjI5MTczLC0xLjEyNDYzOTEgbCAwLDAgYyAwLC0wLjYyMTExOSAyLjA3MjU1MDYsLTEuMTI0NjM3IDQuNjI5MTczLC0xLjEyNDYzNyAyLjU1NjYxLDAgNC42MjkxNiwwLjUwMzUxOCA0LjYyOTE2LDEuMTI0NjM3IGwgMCwzLjA0MjM5MTcgYyAwLDAuNjIxMTIgLTIuMDcyNTUsMS4xMjQ2MzggLTQuNjI5MTYsMS4xMjQ2MzggLTIuNTU2NjIyNCwwIC00LjYyOTE3MywtMC41MDM1MTggLTQuNjI5MTczLC0xLjEyNDYzOCBsIDAsLTMuMDQyMzkxNyIgaW5rc2NhcGU6Y29ubmVjdG9yLWN1cnZhdHVyZT0iMCIgc3R5bGU9ImZpbGw6bm9uZTtmaWxsLXJ1bGU6ZXZlbm9kZDtzdHJva2U6I2ZmZmZmZjtzdHJva2Utd2lkdGg6MC41MjkxNjY2NDtzdHJva2UtbGluZWNhcDpidXR0O3N0cm9rZS1saW5lam9pbjpyb3VuZDtzdHJva2UtbWl0ZXJsaW1pdDoxMDtzdHJva2UtZGFzaGFycmF5OjIuMTE2NjY2NjksIDAuNTI5MTY2Njg7c3Ryb2tlLWRhc2hvZmZzZXQ6MDtzdHJva2Utb3BhY2l0eToxIi8+JiN4YTsgIDwvZz4mI3hhOzwvc3ZnPg==" vertex="1" parent="1">
          <mxGeometry x="480" y="650" width="80" height="80" as="geometry" />
        </mxCell>
      </root>
    </mxGraphModel>
  </diagram>
  <diagram id="a2jd4_ufMeetjMG6DQuV" name="第 3 页">
    <mxGraphModel dx="819" dy="437" grid="1" gridSize="10" guides="1" tooltips="1" connect="1" arrows="1" fold="1" page="1" pageScale="1" pageWidth="850" pageHeight="1100" math="0" shadow="0">
      <root>
        <mxCell id="0" />
        <mxCell id="1" parent="0" />
        <mxCell id="ke8J5Ebdfp0hx4Ng-5WA-20" value="" style="group" vertex="1" connectable="0" parent="1">
          <mxGeometry x="460" y="740" width="450" height="410" as="geometry" />
        </mxCell>
        <mxCell id="ke8J5Ebdfp0hx4Ng-5WA-6" value="atlantic" style="rounded=1;whiteSpace=wrap;html=1;arcSize=3;fillColor=none;labelPosition=center;verticalLabelPosition=top;align=center;verticalAlign=bottom;fontSize=10;dashed=1;" vertex="1" parent="ke8J5Ebdfp0hx4Ng-5WA-20">
          <mxGeometry x="10" y="10" width="440" height="400" as="geometry" />
        </mxCell>
        <mxCell id="ke8J5Ebdfp0hx4Ng-5WA-7" value="" style="shape=image;verticalLabelPosition=top;verticalAlign=bottom;imageAspect=0;aspect=fixed;image=data:image/svg+xml,PHN2ZyB4bWxuczpkYz0iaHR0cDovL3B1cmwub3JnL2RjL2VsZW1lbnRzLzEuMS8iIHhtbG5zOmNjPSJodHRwOi8vY3JlYXRpdmVjb21tb25zLm9yZy9ucyMiIHhtbG5zOnJkZj0iaHR0cDovL3d3dy53My5vcmcvMTk5OS8wMi8yMi1yZGYtc3ludGF4LW5zIyIgeG1sbnM6c3ZnPSJodHRwOi8vd3d3LnczLm9yZy8yMDAwL3N2ZyIgeG1sbnM9Imh0dHA6Ly93d3cudzMub3JnLzIwMDAvc3ZnIiB4bWxuczpzb2RpcG9kaT0iaHR0cDovL3NvZGlwb2RpLnNvdXJjZWZvcmdlLm5ldC9EVEQvc29kaXBvZGktMC5kdGQiIHhtbG5zOmlua3NjYXBlPSJodHRwOi8vd3d3Lmlua3NjYXBlLm9yZy9uYW1lc3BhY2VzL2lua3NjYXBlIiB3aWR0aD0iMTguMDM1MzM0bW0iIGhlaWdodD0iMTcuNTAwMzc4bW0iIHZpZXdCb3g9IjAgMCAxOC4wMzUzMzQgMTcuNTAwMzc4IiB2ZXJzaW9uPSIxLjEiIGlkPSJzdmcxMzgyNiIgaW5rc2NhcGU6dmVyc2lvbj0iMC45MSByMTM3MjUiIHNvZGlwb2RpOmRvY25hbWU9Im5zLnN2ZyI+JiN4YTsgIDxkZWZzIGlkPSJkZWZzMTM4MjAiLz4mI3hhOyAgPHNvZGlwb2RpOm5hbWVkdmlldyBpZD0iYmFzZSIgcGFnZWNvbG9yPSIjZmZmZmZmIiBib3JkZXJjb2xvcj0iIzY2NjY2NiIgYm9yZGVyb3BhY2l0eT0iMS4wIiBpbmtzY2FwZTpwYWdlb3BhY2l0eT0iMC4wIiBpbmtzY2FwZTpwYWdlc2hhZG93PSIyIiBpbmtzY2FwZTp6b29tPSI4IiBpbmtzY2FwZTpjeD0iMTYuODQ3NDk2IiBpbmtzY2FwZTpjeT0iMjMuNzUyMjM5IiBpbmtzY2FwZTpkb2N1bWVudC11bml0cz0ibW0iIGlua3NjYXBlOmN1cnJlbnQtbGF5ZXI9ImxheWVyMSIgc2hvd2dyaWQ9ImZhbHNlIiBpbmtzY2FwZTp3aW5kb3ctd2lkdGg9IjE0NDAiIGlua3NjYXBlOndpbmRvdy1oZWlnaHQ9Ijc3NSIgaW5rc2NhcGU6d2luZG93LXg9IjAiIGlua3NjYXBlOndpbmRvdy15PSIxIiBpbmtzY2FwZTp3aW5kb3ctbWF4aW1pemVkPSIxIiBmaXQtbWFyZ2luLXRvcD0iMCIgZml0LW1hcmdpbi1sZWZ0PSIwIiBmaXQtbWFyZ2luLXJpZ2h0PSIwIiBmaXQtbWFyZ2luLWJvdHRvbT0iMCIvPiYjeGE7ICA8bWV0YWRhdGEgaWQ9Im1ldGFkYXRhMTM4MjMiPiYjeGE7ICAgIDxyZGY6UkRGPiYjeGE7ICAgICAgPGNjOldvcmsgcmRmOmFib3V0PSIiPiYjeGE7ICAgICAgICA8ZGM6Zm9ybWF0PmltYWdlL3N2Zyt4bWw8L2RjOmZvcm1hdD4mI3hhOyAgICAgICAgPGRjOnR5cGUgcmRmOnJlc291cmNlPSJodHRwOi8vcHVybC5vcmcvZGMvZGNtaXR5cGUvU3RpbGxJbWFnZSIvPiYjeGE7ICAgICAgICA8ZGM6dGl0bGUvPiYjeGE7ICAgICAgPC9jYzpXb3JrPiYjeGE7ICAgIDwvcmRmOlJERj4mI3hhOyAgPC9tZXRhZGF0YT4mI3hhOyAgPGcgaW5rc2NhcGU6bGFiZWw9IkNhbHF1ZSAxIiBpbmtzY2FwZTpncm91cG1vZGU9ImxheWVyIiBpZD0ibGF5ZXIxIiB0cmFuc2Zvcm09InRyYW5zbGF0ZSgtMC45OTI2MjYzOCwtMS4xNzQxODEpIj4mI3hhOyAgICA8ZyBpZD0iZzcwIiB0cmFuc2Zvcm09Im1hdHJpeCgxLjAxNDg4ODcsMCwwLDEuMDE0ODg4NywxNi45MDIxNDYsLTIuNjk4NzI2KSI+JiN4YTsgICAgICA8cGF0aCBpbmtzY2FwZTpleHBvcnQteWRwaT0iMjUwLjU1IiBpbmtzY2FwZTpleHBvcnQteGRwaT0iMjUwLjU1IiBpbmtzY2FwZTpleHBvcnQtZmlsZW5hbWU9Im5ldy5wbmciIGlua3NjYXBlOmNvbm5lY3Rvci1jdXJ2YXR1cmU9IjAiIGlkPSJwYXRoMzA1NSIgZD0ibSAtNi44NDkyMDE1LDQuMjcyNDY2OCBhIDEuMTE5MTI1NSwxLjEwOTk2NzEgMCAwIDAgLTAuNDI4ODgxOCwwLjEwODUzMDMgbCAtNS44NTI0MDM3LDIuNzk2MzM5NCBhIDEuMTE5MTI1NSwxLjEwOTk2NzEgMCAwIDAgLTAuNjA1NTI0LDAuNzUyOTc1OSBsIC0xLjQ0MzgyOCw2LjI4MTI4NDYgYSAxLjExOTEyNTUsMS4xMDk5NjcxIDAgMCAwIDAuMTUxOTQzLDAuODUxMDI4IDEuMTE5MTI1NSwxLjEwOTk2NzEgMCAwIDAgMC4wNjM2MiwwLjA4ODMyIGwgNC4wNTA4LDUuMDM2NTU1IGEgMS4xMTkxMjU1LDEuMTA5OTY3MSAwIDAgMCAwLjg3NDk3OSwwLjQxNzY1NCBsIDYuNDk2MTAxMSwtMC4wMDE1IGEgMS4xMTkxMjU1LDEuMTA5OTY3MSAwIDAgMCAwLjg3NDk3ODgsLTAuNDE2OTA2IEwgMS4zODE4ODcyLDE1LjE0OTQ1MyBBIDEuMTE5MTI1NSwxLjEwOTk2NzEgMCAwIDAgMS41OTgxOTg2LDE0LjIxMDEwNCBMIDAuMTUyMTI2NTcsNy45Mjg4MTU0IEEgMS4xMTkxMjU1LDEuMTA5OTY3MSAwIDAgMCAtMC40NTMzOTc5NCw3LjE3NTgzOTYgTCAtNi4zMDY1NDk2LDQuMzgwOTk3MSBBIDEuMTE5MTI1NSwxLjEwOTk2NzEgMCAwIDAgLTYuODQ5MjAxNSw0LjI3MjQ2NjggWiIgc3R5bGU9ImZpbGw6IzMyNmNlNTtmaWxsLW9wYWNpdHk6MTtzdHJva2U6bm9uZTtzdHJva2Utd2lkdGg6MDtzdHJva2UtbWl0ZXJsaW1pdDo0O3N0cm9rZS1kYXNoYXJyYXk6bm9uZTtzdHJva2Utb3BhY2l0eToxIi8+JiN4YTsgICAgICA8cGF0aCBpZD0icGF0aDMwNTQtMi05IiBkPSJNIC02Ljg1MjM0MzUsMy44MTc2MzcyIEEgMS4xODE0MzA0LDEuMTcxNzYyIDAgMCAwIC03LjMwNDQyODQsMy45MzI5MDQgbCAtNi4xNzg3NDI2LDIuOTUxMjc1OCBhIDEuMTgxNDMwNCwxLjE3MTc2MiAwIDAgMCAtMC42MzkyMDYsMC43OTQ4OTEgbCAtMS41MjM5MTUsNi42MzA4MjgyIGEgMS4xODE0MzA0LDEuMTcxNzYyIDAgMCAwIDAuMTYwMTc1LDAuODk4OTMgMS4xODE0MzA0LDEuMTcxNzYyIDAgMCAwIDAuMDY3MzYsMC4wOTI4MSBsIDQuMjc2MDk0LDUuMzE3MjM2IGEgMS4xODE0MzA0LDEuMTcxNzYyIDAgMCAwIDAuOTIzNjMsMC40NDA4NTggbCA2Ljg1NzYxODgsLTAuMDAxNSBhIDEuMTgxNDMwNCwxLjE3MTc2MiAwIDAgMCAwLjkyMzYzMDgsLTAuNDQwMTEgbCA0LjI3NDU5NjYsLTUuMzE3OTg1IGEgMS4xODE0MzA0LDEuMTcxNzYyIDAgMCAwIDAuMjI4Mjg4LC0wLjk5MDk5MyBMIDAuNTM4OTQ0MzksNy42Nzc1NzM4IEEgMS4xODE0MzA0LDEuMTcxNzYyIDAgMCAwIC0wLjEwMDI2MTAxLDYuODgzNDMxMyBMIC02LjI3OTAwMzcsMy45MzIxNTU1IEEgMS4xODE0MzA0LDEuMTcxNzYyIDAgMCAwIC02Ljg1MjM0MzUsMy44MTc2MzcyIFogbSAwLjAwMjk5LDAuNDU1MDc4OSBhIDEuMTE5MTI1NSwxLjEwOTk2NzEgMCAwIDEgMC41NDI2NTE3LDAuMTA4NTMwMyBsIDUuODUzMTUxNjksMi43OTQ4NDI1IEEgMS4xMTkxMjU1LDEuMTA5OTY3MSAwIDAgMSAwLjE1MTk3ODExLDcuOTI5MDY0OCBMIDEuNTk4MDUxLDE0LjIxMDM1IGEgMS4xMTkxMjU1LDEuMTA5OTY3MSAwIDAgMSAtMC4yMTYzMTIzLDAuOTM5MzQ4IGwgLTQuMDQ5MzAzMiw1LjAzNzMwNCBhIDEuMTE5MTI1NSwxLjEwOTk2NzEgMCAwIDEgLTAuODc0OTc4OSwwLjQxNjkwNiBsIC02LjQ5NjEwMDYsMC4wMDE1IGEgMS4xMTkxMjU1LDEuMTA5OTY3MSAwIDAgMSAtMC44NzQ5NzksLTAuNDE3NjUyIGwgLTQuMDUwOCwtNS4wMzY1NTQgYSAxLjExOTEyNTUsMS4xMDk5NjcxIDAgMCAxIC0wLjA2MzYyLC0wLjA4ODMyIDEuMTE5MTI1NSwxLjEwOTk2NzEgMCAwIDEgLTAuMTUxOTQyLC0wLjg1MTAyOCBsIDEuNDQzODI3LC02LjI4MTI4NTMgYSAxLjExOTEyNTUsMS4xMDk5NjcxIDAgMCAxIDAuNjA1NTI0LC0wLjc1Mjk3NTggbCA1Ljg1MjQwMzYsLTIuNzk2MzM5NSBhIDEuMTE5MTI1NSwxLjEwOTk2NzEgMCAwIDEgMC40Mjg4ODE5LC0wLjEwODUzMDMgeiIgc3R5bGU9ImNvbG9yOiMwMDAwMDA7Zm9udC1zdHlsZTpub3JtYWw7Zm9udC12YXJpYW50Om5vcm1hbDtmb250LXdlaWdodDpub3JtYWw7Zm9udC1zdHJldGNoOm5vcm1hbDtmb250LXNpemU6bWVkaXVtO2xpbmUtaGVpZ2h0Om5vcm1hbDtmb250LWZhbWlseTpTYW5zOy1pbmtzY2FwZS1mb250LXNwZWNpZmljYXRpb246U2Fuczt0ZXh0LWluZGVudDowO3RleHQtYWxpZ246c3RhcnQ7dGV4dC1kZWNvcmF0aW9uOm5vbmU7dGV4dC1kZWNvcmF0aW9uLWxpbmU6bm9uZTtsZXR0ZXItc3BhY2luZzpub3JtYWw7d29yZC1zcGFjaW5nOm5vcm1hbDt0ZXh0LXRyYW5zZm9ybTpub25lO3dyaXRpbmctbW9kZTpsci10YjtkaXJlY3Rpb246bHRyO2Jhc2VsaW5lLXNoaWZ0OmJhc2VsaW5lO3RleHQtYW5jaG9yOnN0YXJ0O2Rpc3BsYXk6aW5saW5lO292ZXJmbG93OnZpc2libGU7dmlzaWJpbGl0eTp2aXNpYmxlO2ZpbGw6I2ZmZmZmZjtmaWxsLW9wYWNpdHk6MTtmaWxsLXJ1bGU6bm9uemVybztzdHJva2U6bm9uZTtzdHJva2Utd2lkdGg6MDtzdHJva2UtbWl0ZXJsaW1pdDo0O3N0cm9rZS1kYXNoYXJyYXk6bm9uZTttYXJrZXI6bm9uZTtlbmFibGUtYmFja2dyb3VuZDphY2N1bXVsYXRlIiBpbmtzY2FwZTpjb25uZWN0b3ItY3VydmF0dXJlPSIwIi8+JiN4YTsgICAgPC9nPiYjeGE7ICAgIDx0ZXh0IGlkPSJ0ZXh0MjA2NiIgeT0iMTYuODExNzc1IiB4PSI5Ljk3MTcwODMiIHN0eWxlPSJmb250LXN0eWxlOm5vcm1hbDtmb250LXdlaWdodDpub3JtYWw7Zm9udC1zaXplOjEwLjU4MzMzMzAycHg7bGluZS1oZWlnaHQ6Ni42MTQ1ODM0OXB4O2ZvbnQtZmFtaWx5OlNhbnM7bGV0dGVyLXNwYWNpbmc6MHB4O3dvcmQtc3BhY2luZzowcHg7ZmlsbDojZmZmZmZmO2ZpbGwtb3BhY2l0eToxO3N0cm9rZTpub25lO3N0cm9rZS13aWR0aDowLjI2NDU4MzMycHg7c3Ryb2tlLWxpbmVjYXA6YnV0dDtzdHJva2UtbGluZWpvaW46bWl0ZXI7c3Ryb2tlLW9wYWNpdHk6MSIgeG1sOnNwYWNlPSJwcmVzZXJ2ZSI+PHRzcGFuIHN0eWxlPSJmb250LXN0eWxlOm5vcm1hbDtmb250LXZhcmlhbnQ6bm9ybWFsO2ZvbnQtd2VpZ2h0Om5vcm1hbDtmb250LXN0cmV0Y2g6bm9ybWFsO2ZvbnQtc2l6ZToyLjgyMjIyMjIzcHg7Zm9udC1mYW1pbHk6QXJpYWw7LWlua3NjYXBlLWZvbnQtc3BlY2lmaWNhdGlvbjonQXJpYWwsIE5vcm1hbCc7dGV4dC1hbGlnbjpjZW50ZXI7d3JpdGluZy1tb2RlOmxyLXRiO3RleHQtYW5jaG9yOm1pZGRsZTtmaWxsOiNmZmZmZmY7ZmlsbC1vcGFjaXR5OjE7c3Ryb2tlLXdpZHRoOjAuMjY0NTgzMzJweCIgeT0iMTYuODExNzc1IiB4PSI5Ljk3MTcwODMiIGlkPSJ0c3BhbjIwNjQiIHNvZGlwb2RpOnJvbGU9ImxpbmUiPm5zPC90c3Bhbj48L3RleHQ+JiN4YTsgICAgPHJlY3QgeT0iNi4zNjg5NjI4IiB4PSI2LjE3MzQ5ODYiIGhlaWdodD0iNi42OTAwNzkyIiB3aWR0aD0iNy42NzM1ODkyIiBpZD0icmVjdDg3OTAiIHN0eWxlPSJvcGFjaXR5OjE7ZmlsbDpub25lO2ZpbGwtb3BhY2l0eToxO2ZpbGwtcnVsZTpub256ZXJvO3N0cm9rZTojZmZmZmZmO3N0cm9rZS13aWR0aDowLjQwMDAwMDAxO3N0cm9rZS1saW5lY2FwOmJ1dHQ7c3Ryb2tlLWxpbmVqb2luOnJvdW5kO3N0cm9rZS1taXRlcmxpbWl0OjEwO3N0cm9rZS1kYXNoYXJyYXk6MC44MDAwMDAwMSwgMC40O3N0cm9rZS1kYXNob2Zmc2V0OjMuNDQwMDAwMDY7c3Ryb2tlLW9wYWNpdHk6MSIvPiYjeGE7ICA8L2c+JiN4YTs8L3N2Zz4=;labelPosition=center;align=center;fontSize=10;" vertex="1" parent="ke8J5Ebdfp0hx4Ng-5WA-20">
          <mxGeometry width="40" height="40" as="geometry" />
        </mxCell>
        <mxCell id="ke8J5Ebdfp0hx4Ng-5WA-21" value="Log Persistency" style="swimlane;fontFamily=Helvetica;fontSize=8;fontColor=#ffffff;fillColor=#647687;strokeColor=#314354;labelPosition=center;verticalLabelPosition=middle;align=center;verticalAlign=middle;" vertex="1" parent="1">
          <mxGeometry x="40" y="100" width="720" height="490" as="geometry">
            <mxRectangle x="95" y="40" width="80" height="23" as="alternateBounds" />
          </mxGeometry>
        </mxCell>
        <mxCell id="ke8J5Ebdfp0hx4Ng-5WA-37" style="edgeStyle=orthogonalEdgeStyle;curved=1;rounded=0;orthogonalLoop=1;jettySize=auto;html=1;exitX=0.5;exitY=1;exitDx=0;exitDy=0;entryX=0.5;entryY=0;entryDx=0;entryDy=0;fontFamily=Helvetica;fontSize=9;fontColor=#000000;" edge="1" parent="ke8J5Ebdfp0hx4Ng-5WA-21" source="ke8J5Ebdfp0hx4Ng-5WA-8" target="ke8J5Ebdfp0hx4Ng-5WA-13">
          <mxGeometry relative="1" as="geometry" />
        </mxCell>
        <mxCell id="ke8J5Ebdfp0hx4Ng-5WA-8" value="logging-fluent-bit" style="rounded=1;whiteSpace=wrap;html=1;fillColor=#cce5ff;fontSize=10;labelPosition=center;verticalLabelPosition=top;align=center;verticalAlign=bottom;strokeColor=#36393d;" vertex="1" parent="ke8J5Ebdfp0hx4Ng-5WA-21">
          <mxGeometry x="385" y="100" width="120" height="80" as="geometry" />
        </mxCell>
        <mxCell id="ke8J5Ebdfp0hx4Ng-5WA-3" value="ppdm-component" style="rounded=1;whiteSpace=wrap;html=1;labelPosition=center;verticalLabelPosition=top;align=center;verticalAlign=bottom;" vertex="1" parent="ke8J5Ebdfp0hx4Ng-5WA-21">
          <mxGeometry x="110" y="100" width="120" height="200" as="geometry" />
        </mxCell>
        <mxCell id="ke8J5Ebdfp0hx4Ng-5WA-45" style="edgeStyle=orthogonalEdgeStyle;curved=1;rounded=0;orthogonalLoop=1;jettySize=auto;html=1;exitX=1;exitY=0.5;exitDx=0;exitDy=0;fontFamily=Helvetica;fontSize=9;fontColor=#000000;" edge="1" parent="ke8J5Ebdfp0hx4Ng-5WA-21" source="ke8J5Ebdfp0hx4Ng-5WA-13" target="ke8J5Ebdfp0hx4Ng-5WA-39">
          <mxGeometry relative="1" as="geometry" />
        </mxCell>
        <mxCell id="ke8J5Ebdfp0hx4Ng-5WA-13" value="logging-rsyslog" style="rounded=1;whiteSpace=wrap;html=1;fillColor=#cce5ff;fontSize=10;labelPosition=center;verticalLabelPosition=bottom;align=center;verticalAlign=top;strokeColor=#36393d;" vertex="1" parent="ke8J5Ebdfp0hx4Ng-5WA-21">
          <mxGeometry x="345" y="280" width="200" height="120" as="geometry" />
        </mxCell>
        <mxCell id="ke8J5Ebdfp0hx4Ng-5WA-4" value="" style="shape=image;verticalLabelPosition=top;verticalAlign=bottom;imageAspect=0;aspect=fixed;image=data:image/svg+xml,PHN2ZyB4bWxuczpkYz0iaHR0cDovL3B1cmwub3JnL2RjL2VsZW1lbnRzLzEuMS8iIHhtbG5zOmNjPSJodHRwOi8vY3JlYXRpdmVjb21tb25zLm9yZy9ucyMiIHhtbG5zOnJkZj0iaHR0cDovL3d3dy53My5vcmcvMTk5OS8wMi8yMi1yZGYtc3ludGF4LW5zIyIgeG1sbnM6c3ZnPSJodHRwOi8vd3d3LnczLm9yZy8yMDAwL3N2ZyIgeG1sbnM9Imh0dHA6Ly93d3cudzMub3JnLzIwMDAvc3ZnIiB4bWxuczpzb2RpcG9kaT0iaHR0cDovL3NvZGlwb2RpLnNvdXJjZWZvcmdlLm5ldC9EVEQvc29kaXBvZGktMC5kdGQiIHhtbG5zOmlua3NjYXBlPSJodHRwOi8vd3d3Lmlua3NjYXBlLm9yZy9uYW1lc3BhY2VzL2lua3NjYXBlIiB3aWR0aD0iMTguMDM1MzM0bW0iIGhlaWdodD0iMTcuNTAwMzc4bW0iIHZpZXdCb3g9IjAgMCAxOC4wMzUzMzQgMTcuNTAwMzc4IiB2ZXJzaW9uPSIxLjEiIGlkPSJzdmcxMzgyNiIgaW5rc2NhcGU6dmVyc2lvbj0iMC45MSByMTM3MjUiIHNvZGlwb2RpOmRvY25hbWU9InBvZC5zdmciPiYjeGE7ICA8ZGVmcyBpZD0iZGVmczEzODIwIi8+JiN4YTsgIDxzb2RpcG9kaTpuYW1lZHZpZXcgaWQ9ImJhc2UiIHBhZ2Vjb2xvcj0iI2ZmZmZmZiIgYm9yZGVyY29sb3I9IiM2NjY2NjYiIGJvcmRlcm9wYWNpdHk9IjEuMCIgaW5rc2NhcGU6cGFnZW9wYWNpdHk9IjAuMCIgaW5rc2NhcGU6cGFnZXNoYWRvdz0iMiIgaW5rc2NhcGU6em9vbT0iOCIgaW5rc2NhcGU6Y3g9IjE2Ljg0NzQ5NiIgaW5rc2NhcGU6Y3k9IjMzLjc1MjIzOSIgaW5rc2NhcGU6ZG9jdW1lbnQtdW5pdHM9Im1tIiBpbmtzY2FwZTpjdXJyZW50LWxheWVyPSJsYXllcjEiIHNob3dncmlkPSJmYWxzZSIgaW5rc2NhcGU6d2luZG93LXdpZHRoPSIxNDQwIiBpbmtzY2FwZTp3aW5kb3ctaGVpZ2h0PSI3NzUiIGlua3NjYXBlOndpbmRvdy14PSIwIiBpbmtzY2FwZTp3aW5kb3cteT0iMSIgaW5rc2NhcGU6d2luZG93LW1heGltaXplZD0iMSIgZml0LW1hcmdpbi10b3A9IjAiIGZpdC1tYXJnaW4tbGVmdD0iMCIgZml0LW1hcmdpbi1yaWdodD0iMCIgZml0LW1hcmdpbi1ib3R0b209IjAiLz4mI3hhOyAgPG1ldGFkYXRhIGlkPSJtZXRhZGF0YTEzODIzIj4mI3hhOyAgICA8cmRmOlJERj4mI3hhOyAgICAgIDxjYzpXb3JrIHJkZjphYm91dD0iIj4mI3hhOyAgICAgICAgPGRjOmZvcm1hdD5pbWFnZS9zdmcreG1sPC9kYzpmb3JtYXQ+JiN4YTsgICAgICAgIDxkYzp0eXBlIHJkZjpyZXNvdXJjZT0iaHR0cDovL3B1cmwub3JnL2RjL2RjbWl0eXBlL1N0aWxsSW1hZ2UiLz4mI3hhOyAgICAgICAgPGRjOnRpdGxlLz4mI3hhOyAgICAgIDwvY2M6V29yaz4mI3hhOyAgICA8L3JkZjpSREY+JiN4YTsgIDwvbWV0YWRhdGE+JiN4YTsgIDxnIGlua3NjYXBlOmxhYmVsPSJDYWxxdWUgMSIgaW5rc2NhcGU6Z3JvdXBtb2RlPSJsYXllciIgaWQ9ImxheWVyMSIgdHJhbnNmb3JtPSJ0cmFuc2xhdGUoLTAuOTkyNjI2MzgsLTEuMTc0MTgxKSI+JiN4YTsgICAgPGcgaWQ9Imc3MCIgdHJhbnNmb3JtPSJtYXRyaXgoMS4wMTQ4ODg3LDAsMCwxLjAxNDg4ODcsMTYuOTAyMTQ2LC0yLjY5ODcyNikiPiYjeGE7ICAgICAgPHBhdGggaW5rc2NhcGU6ZXhwb3J0LXlkcGk9IjI1MC41NSIgaW5rc2NhcGU6ZXhwb3J0LXhkcGk9IjI1MC41NSIgaW5rc2NhcGU6ZXhwb3J0LWZpbGVuYW1lPSJuZXcucG5nIiBpbmtzY2FwZTpjb25uZWN0b3ItY3VydmF0dXJlPSIwIiBpZD0icGF0aDMwNTUiIGQ9Im0gLTYuODQ5MjAxNSw0LjI3MjQ2NjggYSAxLjExOTEyNTUsMS4xMDk5NjcxIDAgMCAwIC0wLjQyODg4MTgsMC4xMDg1MzAzIGwgLTUuODUyNDAzNywyLjc5NjMzOTQgYSAxLjExOTEyNTUsMS4xMDk5NjcxIDAgMCAwIC0wLjYwNTUyNCwwLjc1Mjk3NTkgbCAtMS40NDM4MjgsNi4yODEyODQ2IGEgMS4xMTkxMjU1LDEuMTA5OTY3MSAwIDAgMCAwLjE1MTk0MywwLjg1MTAyOCAxLjExOTEyNTUsMS4xMDk5NjcxIDAgMCAwIDAuMDYzNjIsMC4wODgzMiBsIDQuMDUwOCw1LjAzNjU1NSBhIDEuMTE5MTI1NSwxLjEwOTk2NzEgMCAwIDAgMC44NzQ5NzksMC40MTc2NTQgbCA2LjQ5NjEwMTEsLTAuMDAxNSBhIDEuMTE5MTI1NSwxLjEwOTk2NzEgMCAwIDAgMC44NzQ5Nzg4LC0wLjQxNjkwNiBMIDEuMzgxODg3MiwxNS4xNDk0NTMgQSAxLjExOTEyNTUsMS4xMDk5NjcxIDAgMCAwIDEuNTk4MTk4NiwxNC4yMTAxMDQgTCAwLjE1MjEyNjU3LDcuOTI4ODE1NCBBIDEuMTE5MTI1NSwxLjEwOTk2NzEgMCAwIDAgLTAuNDUzMzk3OTQsNy4xNzU4Mzk2IEwgLTYuMzA2NTQ5Niw0LjM4MDk5NzEgQSAxLjExOTEyNTUsMS4xMDk5NjcxIDAgMCAwIC02Ljg0OTIwMTUsNC4yNzI0NjY4IFoiIHN0eWxlPSJmaWxsOiMzMjZjZTU7ZmlsbC1vcGFjaXR5OjE7c3Ryb2tlOm5vbmU7c3Ryb2tlLXdpZHRoOjA7c3Ryb2tlLW1pdGVybGltaXQ6NDtzdHJva2UtZGFzaGFycmF5Om5vbmU7c3Ryb2tlLW9wYWNpdHk6MSIvPiYjeGE7ICAgICAgPHBhdGggaWQ9InBhdGgzMDU0LTItOSIgZD0iTSAtNi44NTIzNDM1LDMuODE3NjM3MiBBIDEuMTgxNDMwNCwxLjE3MTc2MiAwIDAgMCAtNy4zMDQ0Mjg0LDMuOTMyOTA0IGwgLTYuMTc4NzQyNiwyLjk1MTI3NTggYSAxLjE4MTQzMDQsMS4xNzE3NjIgMCAwIDAgLTAuNjM5MjA2LDAuNzk0ODkxIGwgLTEuNTIzOTE1LDYuNjMwODI4MiBhIDEuMTgxNDMwNCwxLjE3MTc2MiAwIDAgMCAwLjE2MDE3NSwwLjg5ODkzIDEuMTgxNDMwNCwxLjE3MTc2MiAwIDAgMCAwLjA2NzM2LDAuMDkyODEgbCA0LjI3NjA5NCw1LjMxNzIzNiBhIDEuMTgxNDMwNCwxLjE3MTc2MiAwIDAgMCAwLjkyMzYzLDAuNDQwODU4IGwgNi44NTc2MTg4LC0wLjAwMTUgYSAxLjE4MTQzMDQsMS4xNzE3NjIgMCAwIDAgMC45MjM2MzA4LC0wLjQ0MDExIGwgNC4yNzQ1OTY2LC01LjMxNzk4NSBhIDEuMTgxNDMwNCwxLjE3MTc2MiAwIDAgMCAwLjIyODI4OCwtMC45OTA5OTMgTCAwLjUzODk0NDM5LDcuNjc3NTczOCBBIDEuMTgxNDMwNCwxLjE3MTc2MiAwIDAgMCAtMC4xMDAyNjEwMSw2Ljg4MzQzMTMgTCAtNi4yNzkwMDM3LDMuOTMyMTU1NSBBIDEuMTgxNDMwNCwxLjE3MTc2MiAwIDAgMCAtNi44NTIzNDM1LDMuODE3NjM3MiBaIG0gMC4wMDI5OSwwLjQ1NTA3ODkgYSAxLjExOTEyNTUsMS4xMDk5NjcxIDAgMCAxIDAuNTQyNjUxNywwLjEwODUzMDMgbCA1Ljg1MzE1MTY5LDIuNzk0ODQyNSBBIDEuMTE5MTI1NSwxLjEwOTk2NzEgMCAwIDEgMC4xNTE5NzgxMSw3LjkyOTA2NDggTCAxLjU5ODA1MSwxNC4yMTAzNSBhIDEuMTE5MTI1NSwxLjEwOTk2NzEgMCAwIDEgLTAuMjE2MzEyMywwLjkzOTM0OCBsIC00LjA0OTMwMzIsNS4wMzczMDQgYSAxLjExOTEyNTUsMS4xMDk5NjcxIDAgMCAxIC0wLjg3NDk3ODksMC40MTY5MDYgbCAtNi40OTYxMDA2LDAuMDAxNSBhIDEuMTE5MTI1NSwxLjEwOTk2NzEgMCAwIDEgLTAuODc0OTc5LC0wLjQxNzY1MiBsIC00LjA1MDgsLTUuMDM2NTU0IGEgMS4xMTkxMjU1LDEuMTA5OTY3MSAwIDAgMSAtMC4wNjM2MiwtMC4wODgzMiAxLjExOTEyNTUsMS4xMDk5NjcxIDAgMCAxIC0wLjE1MTk0MiwtMC44NTEwMjggbCAxLjQ0MzgyNywtNi4yODEyODUzIGEgMS4xMTkxMjU1LDEuMTA5OTY3MSAwIDAgMSAwLjYwNTUyNCwtMC43NTI5NzU4IGwgNS44NTI0MDM2LC0yLjc5NjMzOTUgYSAxLjExOTEyNTUsMS4xMDk5NjcxIDAgMCAxIDAuNDI4ODgxOSwtMC4xMDg1MzAzIHoiIHN0eWxlPSJjb2xvcjojMDAwMDAwO2ZvbnQtc3R5bGU6bm9ybWFsO2ZvbnQtdmFyaWFudDpub3JtYWw7Zm9udC13ZWlnaHQ6bm9ybWFsO2ZvbnQtc3RyZXRjaDpub3JtYWw7Zm9udC1zaXplOm1lZGl1bTtsaW5lLWhlaWdodDpub3JtYWw7Zm9udC1mYW1pbHk6U2FuczstaW5rc2NhcGUtZm9udC1zcGVjaWZpY2F0aW9uOlNhbnM7dGV4dC1pbmRlbnQ6MDt0ZXh0LWFsaWduOnN0YXJ0O3RleHQtZGVjb3JhdGlvbjpub25lO3RleHQtZGVjb3JhdGlvbi1saW5lOm5vbmU7bGV0dGVyLXNwYWNpbmc6bm9ybWFsO3dvcmQtc3BhY2luZzpub3JtYWw7dGV4dC10cmFuc2Zvcm06bm9uZTt3cml0aW5nLW1vZGU6bHItdGI7ZGlyZWN0aW9uOmx0cjtiYXNlbGluZS1zaGlmdDpiYXNlbGluZTt0ZXh0LWFuY2hvcjpzdGFydDtkaXNwbGF5OmlubGluZTtvdmVyZmxvdzp2aXNpYmxlO3Zpc2liaWxpdHk6dmlzaWJsZTtmaWxsOiNmZmZmZmY7ZmlsbC1vcGFjaXR5OjE7ZmlsbC1ydWxlOm5vbnplcm87c3Ryb2tlOm5vbmU7c3Ryb2tlLXdpZHRoOjA7c3Ryb2tlLW1pdGVybGltaXQ6NDtzdHJva2UtZGFzaGFycmF5Om5vbmU7bWFya2VyOm5vbmU7ZW5hYmxlLWJhY2tncm91bmQ6YWNjdW11bGF0ZSIgaW5rc2NhcGU6Y29ubmVjdG9yLWN1cnZhdHVyZT0iMCIvPiYjeGE7ICAgIDwvZz4mI3hhOyAgICA8dGV4dCBpZD0idGV4dDIwNjYiIHk9IjE2LjgxMTc3NSIgeD0iMTAuMDE3MTgzIiBzdHlsZT0iZm9udC1zdHlsZTpub3JtYWw7Zm9udC13ZWlnaHQ6bm9ybWFsO2ZvbnQtc2l6ZToxMC41ODMzMzMwMnB4O2xpbmUtaGVpZ2h0OjYuNjE0NTgzNDlweDtmb250LWZhbWlseTpTYW5zO2xldHRlci1zcGFjaW5nOjBweDt3b3JkLXNwYWNpbmc6MHB4O2ZpbGw6I2ZmZmZmZjtmaWxsLW9wYWNpdHk6MTtzdHJva2U6bm9uZTtzdHJva2Utd2lkdGg6MC4yNjQ1ODMzMnB4O3N0cm9rZS1saW5lY2FwOmJ1dHQ7c3Ryb2tlLWxpbmVqb2luOm1pdGVyO3N0cm9rZS1vcGFjaXR5OjEiIHhtbDpzcGFjZT0icHJlc2VydmUiPjx0c3BhbiBzdHlsZT0iZm9udC1zdHlsZTpub3JtYWw7Zm9udC12YXJpYW50Om5vcm1hbDtmb250LXdlaWdodDpub3JtYWw7Zm9udC1zdHJldGNoOm5vcm1hbDtmb250LXNpemU6Mi44MjIyMjIyM3B4O2ZvbnQtZmFtaWx5OkFyaWFsOy1pbmtzY2FwZS1mb250LXNwZWNpZmljYXRpb246J0FyaWFsLCBOb3JtYWwnO3RleHQtYWxpZ246Y2VudGVyO3dyaXRpbmctbW9kZTpsci10Yjt0ZXh0LWFuY2hvcjptaWRkbGU7ZmlsbDojZmZmZmZmO2ZpbGwtb3BhY2l0eToxO3N0cm9rZS13aWR0aDowLjI2NDU4MzMycHgiIHk9IjE2LjgxMTc3NSIgeD0iMTAuMDE3MTgzIiBpZD0idHNwYW4yMDY0IiBzb2RpcG9kaTpyb2xlPSJsaW5lIj5wb2Q8L3RzcGFuPjwvdGV4dD4mI3hhOyAgICA8ZyBpZD0iZzMzNDEiIHRyYW5zZm9ybT0idHJhbnNsYXRlKDAuMTI3NjY2NjEsMCkiPiYjeGE7ICAgICAgPHBhdGggaW5rc2NhcGU6ZXhwb3J0LXlkcGk9IjM3Ni41Nzk5OSIgaW5rc2NhcGU6ZXhwb3J0LXhkcGk9IjM3Ni41Nzk5OSIgc3R5bGU9ImZpbGw6I2ZmZmZmZjtmaWxsLXJ1bGU6ZXZlbm9kZDtzdHJva2U6bm9uZTtzdHJva2Utd2lkdGg6MC4yNjQ1ODMzMjtzdHJva2UtbGluZWNhcDpzcXVhcmU7c3Ryb2tlLW1pdGVybGltaXQ6MTAiIGlua3NjYXBlOmNvbm5lY3Rvci1jdXJ2YXR1cmU9IjAiIGQ9Ik0gNi4yNjE3OTE0LDcuMDM2MDg2IDkuODgyNjMxNyw1Ljk4NjA4NyAxMy41MDM0NjIsNy4wMzYwODYgOS44ODI2MzE3LDguMDg2MDg3IFoiIGlkPSJwYXRoOTEwIi8+JiN4YTsgICAgICA8cGF0aCBpbmtzY2FwZTpleHBvcnQteWRwaT0iMzc2LjU3OTk5IiBpbmtzY2FwZTpleHBvcnQteGRwaT0iMzc2LjU3OTk5IiBzdHlsZT0iZmlsbDojZmZmZmZmO2ZpbGwtcnVsZTpldmVub2RkO3N0cm9rZTpub25lO3N0cm9rZS13aWR0aDowLjI2NDU4MzMyO3N0cm9rZS1saW5lY2FwOnNxdWFyZTtzdHJva2UtbWl0ZXJsaW1pdDoxMCIgaW5rc2NhcGU6Y29ubmVjdG9yLWN1cnZhdHVyZT0iMCIgZD0ibSA2LjI2MTc5MTQsNy40MzgxNyAwLDMuODUyNzc4IDMuMzczNjEwMywxLjg2ODc0OSAwLjAxNjcsLTQuNzEzMTkzIHoiIGlkPSJwYXRoOTEyIi8+JiN4YTsgICAgICA8cGF0aCBpbmtzY2FwZTpleHBvcnQteWRwaT0iMzc2LjU3OTk5IiBpbmtzY2FwZTpleHBvcnQteGRwaT0iMzc2LjU3OTk5IiBzdHlsZT0iZmlsbDojZmZmZmZmO2ZpbGwtcnVsZTpldmVub2RkO3N0cm9rZTpub25lO3N0cm9rZS13aWR0aDowLjI2NDU4MzMyO3N0cm9rZS1saW5lY2FwOnNxdWFyZTtzdHJva2UtbWl0ZXJsaW1pdDoxMCIgaW5rc2NhcGU6Y29ubmVjdG9yLWN1cnZhdHVyZT0iMCIgZD0ibSAxMy41MDM0NjIsNy40MzgxNyAwLDMuODUyNzc4IC0zLjM3MzYxLDEuODY4NzQ5IC0wLjAxNjcsLTQuNzEzMTkzIHoiIGlkPSJwYXRoOTE0Ii8+JiN4YTsgICAgPC9nPiYjeGE7ICA8L2c+JiN4YTs8L3N2Zz4=;fillColor=none;labelPosition=center;align=center;fontSize=10;" vertex="1" parent="ke8J5Ebdfp0hx4Ng-5WA-21">
          <mxGeometry x="100" y="90" width="40" height="40" as="geometry" />
        </mxCell>
        <mxCell id="ke8J5Ebdfp0hx4Ng-5WA-32" style="edgeStyle=orthogonalEdgeStyle;rounded=0;orthogonalLoop=1;jettySize=auto;html=1;entryX=0;entryY=0.5;entryDx=0;entryDy=0;fontFamily=Helvetica;fontSize=9;fontColor=#000000;curved=1;" edge="1" parent="ke8J5Ebdfp0hx4Ng-5WA-21" source="ke8J5Ebdfp0hx4Ng-5WA-10" target="ke8J5Ebdfp0hx4Ng-5WA-13">
          <mxGeometry relative="1" as="geometry" />
        </mxCell>
        <mxCell id="ke8J5Ebdfp0hx4Ng-5WA-10" value="rsyslog-client&lt;br&gt;(sidecar,&lt;span style=&quot;&quot;&gt;fluent-bit)&lt;/span&gt;&lt;span style=&quot;&quot;&gt;&lt;br&gt;&lt;/span&gt;" style="sketch=0;outlineConnect=0;fillColor=#1ba1e2;strokeColor=#006EAF;dashed=0;verticalLabelPosition=bottom;verticalAlign=top;align=center;html=1;fontSize=8;fontStyle=0;aspect=fixed;pointerEvents=1;shape=mxgraph.aws4.container_1;fontColor=#000000;fontFamily=Helvetica;labelPosition=center;" vertex="1" parent="ke8J5Ebdfp0hx4Ng-5WA-21">
          <mxGeometry x="146" y="230" width="48" height="31" as="geometry" />
        </mxCell>
        <mxCell id="ke8J5Ebdfp0hx4Ng-5WA-42" style="edgeStyle=orthogonalEdgeStyle;curved=1;rounded=0;orthogonalLoop=1;jettySize=auto;html=1;fontFamily=Helvetica;fontSize=9;fontColor=#000000;" edge="1" parent="ke8J5Ebdfp0hx4Ng-5WA-21" source="ke8J5Ebdfp0hx4Ng-5WA-11" target="ke8J5Ebdfp0hx4Ng-5WA-40">
          <mxGeometry relative="1" as="geometry" />
        </mxCell>
        <mxCell id="ke8J5Ebdfp0hx4Ng-5WA-11" value="&lt;span style=&quot;font-weight: normal;&quot;&gt;ppdm-app&lt;/span&gt;" style="sketch=0;outlineConnect=0;fillColor=#1ba1e2;strokeColor=#006EAF;dashed=0;verticalLabelPosition=bottom;verticalAlign=top;align=center;html=1;fontSize=8;fontStyle=1;aspect=fixed;pointerEvents=1;shape=mxgraph.aws4.container_1;fontColor=#000000;fontFamily=Helvetica;labelPosition=center;" vertex="1" parent="ke8J5Ebdfp0hx4Ng-5WA-21">
          <mxGeometry x="146" y="130" width="48" height="31" as="geometry" />
        </mxCell>
        <mxCell id="ke8J5Ebdfp0hx4Ng-5WA-9" value="" style="shape=image;verticalLabelPosition=top;verticalAlign=bottom;imageAspect=0;aspect=fixed;image=data:image/svg+xml,PHN2ZyB4bWxuczpkYz0iaHR0cDovL3B1cmwub3JnL2RjL2VsZW1lbnRzLzEuMS8iIHhtbG5zOmNjPSJodHRwOi8vY3JlYXRpdmVjb21tb25zLm9yZy9ucyMiIHhtbG5zOnJkZj0iaHR0cDovL3d3dy53My5vcmcvMTk5OS8wMi8yMi1yZGYtc3ludGF4LW5zIyIgeG1sbnM6c3ZnPSJodHRwOi8vd3d3LnczLm9yZy8yMDAwL3N2ZyIgeG1sbnM9Imh0dHA6Ly93d3cudzMub3JnLzIwMDAvc3ZnIiB4bWxuczpzb2RpcG9kaT0iaHR0cDovL3NvZGlwb2RpLnNvdXJjZWZvcmdlLm5ldC9EVEQvc29kaXBvZGktMC5kdGQiIHhtbG5zOmlua3NjYXBlPSJodHRwOi8vd3d3Lmlua3NjYXBlLm9yZy9uYW1lc3BhY2VzL2lua3NjYXBlIiB3aWR0aD0iMTguMDM1MzM0bW0iIGhlaWdodD0iMTcuNTAwMzc4bW0iIHZpZXdCb3g9IjAgMCAxOC4wMzUzMzQgMTcuNTAwMzc4IiB2ZXJzaW9uPSIxLjEiIGlkPSJzdmcxMzgyNiIgaW5rc2NhcGU6dmVyc2lvbj0iMC45MSByMTM3MjUiIHNvZGlwb2RpOmRvY25hbWU9InBvZC5zdmciPiYjeGE7ICA8ZGVmcyBpZD0iZGVmczEzODIwIi8+JiN4YTsgIDxzb2RpcG9kaTpuYW1lZHZpZXcgaWQ9ImJhc2UiIHBhZ2Vjb2xvcj0iI2ZmZmZmZiIgYm9yZGVyY29sb3I9IiM2NjY2NjYiIGJvcmRlcm9wYWNpdHk9IjEuMCIgaW5rc2NhcGU6cGFnZW9wYWNpdHk9IjAuMCIgaW5rc2NhcGU6cGFnZXNoYWRvdz0iMiIgaW5rc2NhcGU6em9vbT0iOCIgaW5rc2NhcGU6Y3g9IjE2Ljg0NzQ5NiIgaW5rc2NhcGU6Y3k9IjMzLjc1MjIzOSIgaW5rc2NhcGU6ZG9jdW1lbnQtdW5pdHM9Im1tIiBpbmtzY2FwZTpjdXJyZW50LWxheWVyPSJsYXllcjEiIHNob3dncmlkPSJmYWxzZSIgaW5rc2NhcGU6d2luZG93LXdpZHRoPSIxNDQwIiBpbmtzY2FwZTp3aW5kb3ctaGVpZ2h0PSI3NzUiIGlua3NjYXBlOndpbmRvdy14PSIwIiBpbmtzY2FwZTp3aW5kb3cteT0iMSIgaW5rc2NhcGU6d2luZG93LW1heGltaXplZD0iMSIgZml0LW1hcmdpbi10b3A9IjAiIGZpdC1tYXJnaW4tbGVmdD0iMCIgZml0LW1hcmdpbi1yaWdodD0iMCIgZml0LW1hcmdpbi1ib3R0b209IjAiLz4mI3hhOyAgPG1ldGFkYXRhIGlkPSJtZXRhZGF0YTEzODIzIj4mI3hhOyAgICA8cmRmOlJERj4mI3hhOyAgICAgIDxjYzpXb3JrIHJkZjphYm91dD0iIj4mI3hhOyAgICAgICAgPGRjOmZvcm1hdD5pbWFnZS9zdmcreG1sPC9kYzpmb3JtYXQ+JiN4YTsgICAgICAgIDxkYzp0eXBlIHJkZjpyZXNvdXJjZT0iaHR0cDovL3B1cmwub3JnL2RjL2RjbWl0eXBlL1N0aWxsSW1hZ2UiLz4mI3hhOyAgICAgICAgPGRjOnRpdGxlLz4mI3hhOyAgICAgIDwvY2M6V29yaz4mI3hhOyAgICA8L3JkZjpSREY+JiN4YTsgIDwvbWV0YWRhdGE+JiN4YTsgIDxnIGlua3NjYXBlOmxhYmVsPSJDYWxxdWUgMSIgaW5rc2NhcGU6Z3JvdXBtb2RlPSJsYXllciIgaWQ9ImxheWVyMSIgdHJhbnNmb3JtPSJ0cmFuc2xhdGUoLTAuOTkyNjI2MzgsLTEuMTc0MTgxKSI+JiN4YTsgICAgPGcgaWQ9Imc3MCIgdHJhbnNmb3JtPSJtYXRyaXgoMS4wMTQ4ODg3LDAsMCwxLjAxNDg4ODcsMTYuOTAyMTQ2LC0yLjY5ODcyNikiPiYjeGE7ICAgICAgPHBhdGggaW5rc2NhcGU6ZXhwb3J0LXlkcGk9IjI1MC41NSIgaW5rc2NhcGU6ZXhwb3J0LXhkcGk9IjI1MC41NSIgaW5rc2NhcGU6ZXhwb3J0LWZpbGVuYW1lPSJuZXcucG5nIiBpbmtzY2FwZTpjb25uZWN0b3ItY3VydmF0dXJlPSIwIiBpZD0icGF0aDMwNTUiIGQ9Im0gLTYuODQ5MjAxNSw0LjI3MjQ2NjggYSAxLjExOTEyNTUsMS4xMDk5NjcxIDAgMCAwIC0wLjQyODg4MTgsMC4xMDg1MzAzIGwgLTUuODUyNDAzNywyLjc5NjMzOTQgYSAxLjExOTEyNTUsMS4xMDk5NjcxIDAgMCAwIC0wLjYwNTUyNCwwLjc1Mjk3NTkgbCAtMS40NDM4MjgsNi4yODEyODQ2IGEgMS4xMTkxMjU1LDEuMTA5OTY3MSAwIDAgMCAwLjE1MTk0MywwLjg1MTAyOCAxLjExOTEyNTUsMS4xMDk5NjcxIDAgMCAwIDAuMDYzNjIsMC4wODgzMiBsIDQuMDUwOCw1LjAzNjU1NSBhIDEuMTE5MTI1NSwxLjEwOTk2NzEgMCAwIDAgMC44NzQ5NzksMC40MTc2NTQgbCA2LjQ5NjEwMTEsLTAuMDAxNSBhIDEuMTE5MTI1NSwxLjEwOTk2NzEgMCAwIDAgMC44NzQ5Nzg4LC0wLjQxNjkwNiBMIDEuMzgxODg3MiwxNS4xNDk0NTMgQSAxLjExOTEyNTUsMS4xMDk5NjcxIDAgMCAwIDEuNTk4MTk4NiwxNC4yMTAxMDQgTCAwLjE1MjEyNjU3LDcuOTI4ODE1NCBBIDEuMTE5MTI1NSwxLjEwOTk2NzEgMCAwIDAgLTAuNDUzMzk3OTQsNy4xNzU4Mzk2IEwgLTYuMzA2NTQ5Niw0LjM4MDk5NzEgQSAxLjExOTEyNTUsMS4xMDk5NjcxIDAgMCAwIC02Ljg0OTIwMTUsNC4yNzI0NjY4IFoiIHN0eWxlPSJmaWxsOiMzMjZjZTU7ZmlsbC1vcGFjaXR5OjE7c3Ryb2tlOm5vbmU7c3Ryb2tlLXdpZHRoOjA7c3Ryb2tlLW1pdGVybGltaXQ6NDtzdHJva2UtZGFzaGFycmF5Om5vbmU7c3Ryb2tlLW9wYWNpdHk6MSIvPiYjeGE7ICAgICAgPHBhdGggaWQ9InBhdGgzMDU0LTItOSIgZD0iTSAtNi44NTIzNDM1LDMuODE3NjM3MiBBIDEuMTgxNDMwNCwxLjE3MTc2MiAwIDAgMCAtNy4zMDQ0Mjg0LDMuOTMyOTA0IGwgLTYuMTc4NzQyNiwyLjk1MTI3NTggYSAxLjE4MTQzMDQsMS4xNzE3NjIgMCAwIDAgLTAuNjM5MjA2LDAuNzk0ODkxIGwgLTEuNTIzOTE1LDYuNjMwODI4MiBhIDEuMTgxNDMwNCwxLjE3MTc2MiAwIDAgMCAwLjE2MDE3NSwwLjg5ODkzIDEuMTgxNDMwNCwxLjE3MTc2MiAwIDAgMCAwLjA2NzM2LDAuMDkyODEgbCA0LjI3NjA5NCw1LjMxNzIzNiBhIDEuMTgxNDMwNCwxLjE3MTc2MiAwIDAgMCAwLjkyMzYzLDAuNDQwODU4IGwgNi44NTc2MTg4LC0wLjAwMTUgYSAxLjE4MTQzMDQsMS4xNzE3NjIgMCAwIDAgMC45MjM2MzA4LC0wLjQ0MDExIGwgNC4yNzQ1OTY2LC01LjMxNzk4NSBhIDEuMTgxNDMwNCwxLjE3MTc2MiAwIDAgMCAwLjIyODI4OCwtMC45OTA5OTMgTCAwLjUzODk0NDM5LDcuNjc3NTczOCBBIDEuMTgxNDMwNCwxLjE3MTc2MiAwIDAgMCAtMC4xMDAyNjEwMSw2Ljg4MzQzMTMgTCAtNi4yNzkwMDM3LDMuOTMyMTU1NSBBIDEuMTgxNDMwNCwxLjE3MTc2MiAwIDAgMCAtNi44NTIzNDM1LDMuODE3NjM3MiBaIG0gMC4wMDI5OSwwLjQ1NTA3ODkgYSAxLjExOTEyNTUsMS4xMDk5NjcxIDAgMCAxIDAuNTQyNjUxNywwLjEwODUzMDMgbCA1Ljg1MzE1MTY5LDIuNzk0ODQyNSBBIDEuMTE5MTI1NSwxLjEwOTk2NzEgMCAwIDEgMC4xNTE5NzgxMSw3LjkyOTA2NDggTCAxLjU5ODA1MSwxNC4yMTAzNSBhIDEuMTE5MTI1NSwxLjEwOTk2NzEgMCAwIDEgLTAuMjE2MzEyMywwLjkzOTM0OCBsIC00LjA0OTMwMzIsNS4wMzczMDQgYSAxLjExOTEyNTUsMS4xMDk5NjcxIDAgMCAxIC0wLjg3NDk3ODksMC40MTY5MDYgbCAtNi40OTYxMDA2LDAuMDAxNSBhIDEuMTE5MTI1NSwxLjEwOTk2NzEgMCAwIDEgLTAuODc0OTc5LC0wLjQxNzY1MiBsIC00LjA1MDgsLTUuMDM2NTU0IGEgMS4xMTkxMjU1LDEuMTA5OTY3MSAwIDAgMSAtMC4wNjM2MiwtMC4wODgzMiAxLjExOTEyNTUsMS4xMDk5NjcxIDAgMCAxIC0wLjE1MTk0MiwtMC44NTEwMjggbCAxLjQ0MzgyNywtNi4yODEyODUzIGEgMS4xMTkxMjU1LDEuMTA5OTY3MSAwIDAgMSAwLjYwNTUyNCwtMC43NTI5NzU4IGwgNS44NTI0MDM2LC0yLjc5NjMzOTUgYSAxLjExOTEyNTUsMS4xMDk5NjcxIDAgMCAxIDAuNDI4ODgxOSwtMC4xMDg1MzAzIHoiIHN0eWxlPSJjb2xvcjojMDAwMDAwO2ZvbnQtc3R5bGU6bm9ybWFsO2ZvbnQtdmFyaWFudDpub3JtYWw7Zm9udC13ZWlnaHQ6bm9ybWFsO2ZvbnQtc3RyZXRjaDpub3JtYWw7Zm9udC1zaXplOm1lZGl1bTtsaW5lLWhlaWdodDpub3JtYWw7Zm9udC1mYW1pbHk6U2FuczstaW5rc2NhcGUtZm9udC1zcGVjaWZpY2F0aW9uOlNhbnM7dGV4dC1pbmRlbnQ6MDt0ZXh0LWFsaWduOnN0YXJ0O3RleHQtZGVjb3JhdGlvbjpub25lO3RleHQtZGVjb3JhdGlvbi1saW5lOm5vbmU7bGV0dGVyLXNwYWNpbmc6bm9ybWFsO3dvcmQtc3BhY2luZzpub3JtYWw7dGV4dC10cmFuc2Zvcm06bm9uZTt3cml0aW5nLW1vZGU6bHItdGI7ZGlyZWN0aW9uOmx0cjtiYXNlbGluZS1zaGlmdDpiYXNlbGluZTt0ZXh0LWFuY2hvcjpzdGFydDtkaXNwbGF5OmlubGluZTtvdmVyZmxvdzp2aXNpYmxlO3Zpc2liaWxpdHk6dmlzaWJsZTtmaWxsOiNmZmZmZmY7ZmlsbC1vcGFjaXR5OjE7ZmlsbC1ydWxlOm5vbnplcm87c3Ryb2tlOm5vbmU7c3Ryb2tlLXdpZHRoOjA7c3Ryb2tlLW1pdGVybGltaXQ6NDtzdHJva2UtZGFzaGFycmF5Om5vbmU7bWFya2VyOm5vbmU7ZW5hYmxlLWJhY2tncm91bmQ6YWNjdW11bGF0ZSIgaW5rc2NhcGU6Y29ubmVjdG9yLWN1cnZhdHVyZT0iMCIvPiYjeGE7ICAgIDwvZz4mI3hhOyAgICA8dGV4dCBpZD0idGV4dDIwNjYiIHk9IjE2LjgxMTc3NSIgeD0iMTAuMDE3MTgzIiBzdHlsZT0iZm9udC1zdHlsZTpub3JtYWw7Zm9udC13ZWlnaHQ6bm9ybWFsO2ZvbnQtc2l6ZToxMC41ODMzMzMwMnB4O2xpbmUtaGVpZ2h0OjYuNjE0NTgzNDlweDtmb250LWZhbWlseTpTYW5zO2xldHRlci1zcGFjaW5nOjBweDt3b3JkLXNwYWNpbmc6MHB4O2ZpbGw6I2ZmZmZmZjtmaWxsLW9wYWNpdHk6MTtzdHJva2U6bm9uZTtzdHJva2Utd2lkdGg6MC4yNjQ1ODMzMnB4O3N0cm9rZS1saW5lY2FwOmJ1dHQ7c3Ryb2tlLWxpbmVqb2luOm1pdGVyO3N0cm9rZS1vcGFjaXR5OjEiIHhtbDpzcGFjZT0icHJlc2VydmUiPjx0c3BhbiBzdHlsZT0iZm9udC1zdHlsZTpub3JtYWw7Zm9udC12YXJpYW50Om5vcm1hbDtmb250LXdlaWdodDpub3JtYWw7Zm9udC1zdHJldGNoOm5vcm1hbDtmb250LXNpemU6Mi44MjIyMjIyM3B4O2ZvbnQtZmFtaWx5OkFyaWFsOy1pbmtzY2FwZS1mb250LXNwZWNpZmljYXRpb246J0FyaWFsLCBOb3JtYWwnO3RleHQtYWxpZ246Y2VudGVyO3dyaXRpbmctbW9kZTpsci10Yjt0ZXh0LWFuY2hvcjptaWRkbGU7ZmlsbDojZmZmZmZmO2ZpbGwtb3BhY2l0eToxO3N0cm9rZS13aWR0aDowLjI2NDU4MzMycHgiIHk9IjE2LjgxMTc3NSIgeD0iMTAuMDE3MTgzIiBpZD0idHNwYW4yMDY0IiBzb2RpcG9kaTpyb2xlPSJsaW5lIj5wb2Q8L3RzcGFuPjwvdGV4dD4mI3hhOyAgICA8ZyBpZD0iZzMzNDEiIHRyYW5zZm9ybT0idHJhbnNsYXRlKDAuMTI3NjY2NjEsMCkiPiYjeGE7ICAgICAgPHBhdGggaW5rc2NhcGU6ZXhwb3J0LXlkcGk9IjM3Ni41Nzk5OSIgaW5rc2NhcGU6ZXhwb3J0LXhkcGk9IjM3Ni41Nzk5OSIgc3R5bGU9ImZpbGw6I2ZmZmZmZjtmaWxsLXJ1bGU6ZXZlbm9kZDtzdHJva2U6bm9uZTtzdHJva2Utd2lkdGg6MC4yNjQ1ODMzMjtzdHJva2UtbGluZWNhcDpzcXVhcmU7c3Ryb2tlLW1pdGVybGltaXQ6MTAiIGlua3NjYXBlOmNvbm5lY3Rvci1jdXJ2YXR1cmU9IjAiIGQ9Ik0gNi4yNjE3OTE0LDcuMDM2MDg2IDkuODgyNjMxNyw1Ljk4NjA4NyAxMy41MDM0NjIsNy4wMzYwODYgOS44ODI2MzE3LDguMDg2MDg3IFoiIGlkPSJwYXRoOTEwIi8+JiN4YTsgICAgICA8cGF0aCBpbmtzY2FwZTpleHBvcnQteWRwaT0iMzc2LjU3OTk5IiBpbmtzY2FwZTpleHBvcnQteGRwaT0iMzc2LjU3OTk5IiBzdHlsZT0iZmlsbDojZmZmZmZmO2ZpbGwtcnVsZTpldmVub2RkO3N0cm9rZTpub25lO3N0cm9rZS13aWR0aDowLjI2NDU4MzMyO3N0cm9rZS1saW5lY2FwOnNxdWFyZTtzdHJva2UtbWl0ZXJsaW1pdDoxMCIgaW5rc2NhcGU6Y29ubmVjdG9yLWN1cnZhdHVyZT0iMCIgZD0ibSA2LjI2MTc5MTQsNy40MzgxNyAwLDMuODUyNzc4IDMuMzczNjEwMywxLjg2ODc0OSAwLjAxNjcsLTQuNzEzMTkzIHoiIGlkPSJwYXRoOTEyIi8+JiN4YTsgICAgICA8cGF0aCBpbmtzY2FwZTpleHBvcnQteWRwaT0iMzc2LjU3OTk5IiBpbmtzY2FwZTpleHBvcnQteGRwaT0iMzc2LjU3OTk5IiBzdHlsZT0iZmlsbDojZmZmZmZmO2ZpbGwtcnVsZTpldmVub2RkO3N0cm9rZTpub25lO3N0cm9rZS13aWR0aDowLjI2NDU4MzMyO3N0cm9rZS1saW5lY2FwOnNxdWFyZTtzdHJva2UtbWl0ZXJsaW1pdDoxMCIgaW5rc2NhcGU6Y29ubmVjdG9yLWN1cnZhdHVyZT0iMCIgZD0ibSAxMy41MDM0NjIsNy40MzgxNyAwLDMuODUyNzc4IC0zLjM3MzYxLDEuODY4NzQ5IC0wLjAxNjcsLTQuNzEzMTkzIHoiIGlkPSJwYXRoOTE0Ii8+JiN4YTsgICAgPC9nPiYjeGE7ICA8L2c+JiN4YTs8L3N2Zz4=;fillColor=none;labelPosition=center;align=center;fontSize=10;" vertex="1" parent="ke8J5Ebdfp0hx4Ng-5WA-21">
          <mxGeometry x="375" y="90" width="40" height="40" as="geometry" />
        </mxCell>
        <mxCell id="ke8J5Ebdfp0hx4Ng-5WA-12" value="fluent-bit" style="sketch=0;outlineConnect=0;fillColor=#1ba1e2;strokeColor=#006EAF;dashed=0;verticalLabelPosition=bottom;verticalAlign=top;align=center;html=1;fontSize=8;fontStyle=0;aspect=fixed;pointerEvents=1;shape=mxgraph.aws4.container_1;fontColor=#000000;fontFamily=Helvetica;labelPosition=center;" vertex="1" parent="ke8J5Ebdfp0hx4Ng-5WA-21">
          <mxGeometry x="421" y="124.5" width="48" height="31" as="geometry" />
        </mxCell>
        <mxCell id="ke8J5Ebdfp0hx4Ng-5WA-14" value="" style="shape=image;verticalLabelPosition=top;verticalAlign=bottom;imageAspect=0;aspect=fixed;image=data:image/svg+xml,PHN2ZyB4bWxuczpkYz0iaHR0cDovL3B1cmwub3JnL2RjL2VsZW1lbnRzLzEuMS8iIHhtbG5zOmNjPSJodHRwOi8vY3JlYXRpdmVjb21tb25zLm9yZy9ucyMiIHhtbG5zOnJkZj0iaHR0cDovL3d3dy53My5vcmcvMTk5OS8wMi8yMi1yZGYtc3ludGF4LW5zIyIgeG1sbnM6c3ZnPSJodHRwOi8vd3d3LnczLm9yZy8yMDAwL3N2ZyIgeG1sbnM9Imh0dHA6Ly93d3cudzMub3JnLzIwMDAvc3ZnIiB4bWxuczpzb2RpcG9kaT0iaHR0cDovL3NvZGlwb2RpLnNvdXJjZWZvcmdlLm5ldC9EVEQvc29kaXBvZGktMC5kdGQiIHhtbG5zOmlua3NjYXBlPSJodHRwOi8vd3d3Lmlua3NjYXBlLm9yZy9uYW1lc3BhY2VzL2lua3NjYXBlIiB3aWR0aD0iMTguMDM1MzM0bW0iIGhlaWdodD0iMTcuNTAwMzc4bW0iIHZpZXdCb3g9IjAgMCAxOC4wMzUzMzQgMTcuNTAwMzc4IiB2ZXJzaW9uPSIxLjEiIGlkPSJzdmcxMzgyNiIgaW5rc2NhcGU6dmVyc2lvbj0iMC45MSByMTM3MjUiIHNvZGlwb2RpOmRvY25hbWU9InBvZC5zdmciPiYjeGE7ICA8ZGVmcyBpZD0iZGVmczEzODIwIi8+JiN4YTsgIDxzb2RpcG9kaTpuYW1lZHZpZXcgaWQ9ImJhc2UiIHBhZ2Vjb2xvcj0iI2ZmZmZmZiIgYm9yZGVyY29sb3I9IiM2NjY2NjYiIGJvcmRlcm9wYWNpdHk9IjEuMCIgaW5rc2NhcGU6cGFnZW9wYWNpdHk9IjAuMCIgaW5rc2NhcGU6cGFnZXNoYWRvdz0iMiIgaW5rc2NhcGU6em9vbT0iOCIgaW5rc2NhcGU6Y3g9IjE2Ljg0NzQ5NiIgaW5rc2NhcGU6Y3k9IjMzLjc1MjIzOSIgaW5rc2NhcGU6ZG9jdW1lbnQtdW5pdHM9Im1tIiBpbmtzY2FwZTpjdXJyZW50LWxheWVyPSJsYXllcjEiIHNob3dncmlkPSJmYWxzZSIgaW5rc2NhcGU6d2luZG93LXdpZHRoPSIxNDQwIiBpbmtzY2FwZTp3aW5kb3ctaGVpZ2h0PSI3NzUiIGlua3NjYXBlOndpbmRvdy14PSIwIiBpbmtzY2FwZTp3aW5kb3cteT0iMSIgaW5rc2NhcGU6d2luZG93LW1heGltaXplZD0iMSIgZml0LW1hcmdpbi10b3A9IjAiIGZpdC1tYXJnaW4tbGVmdD0iMCIgZml0LW1hcmdpbi1yaWdodD0iMCIgZml0LW1hcmdpbi1ib3R0b209IjAiLz4mI3hhOyAgPG1ldGFkYXRhIGlkPSJtZXRhZGF0YTEzODIzIj4mI3hhOyAgICA8cmRmOlJERj4mI3hhOyAgICAgIDxjYzpXb3JrIHJkZjphYm91dD0iIj4mI3hhOyAgICAgICAgPGRjOmZvcm1hdD5pbWFnZS9zdmcreG1sPC9kYzpmb3JtYXQ+JiN4YTsgICAgICAgIDxkYzp0eXBlIHJkZjpyZXNvdXJjZT0iaHR0cDovL3B1cmwub3JnL2RjL2RjbWl0eXBlL1N0aWxsSW1hZ2UiLz4mI3hhOyAgICAgICAgPGRjOnRpdGxlLz4mI3hhOyAgICAgIDwvY2M6V29yaz4mI3hhOyAgICA8L3JkZjpSREY+JiN4YTsgIDwvbWV0YWRhdGE+JiN4YTsgIDxnIGlua3NjYXBlOmxhYmVsPSJDYWxxdWUgMSIgaW5rc2NhcGU6Z3JvdXBtb2RlPSJsYXllciIgaWQ9ImxheWVyMSIgdHJhbnNmb3JtPSJ0cmFuc2xhdGUoLTAuOTkyNjI2MzgsLTEuMTc0MTgxKSI+JiN4YTsgICAgPGcgaWQ9Imc3MCIgdHJhbnNmb3JtPSJtYXRyaXgoMS4wMTQ4ODg3LDAsMCwxLjAxNDg4ODcsMTYuOTAyMTQ2LC0yLjY5ODcyNikiPiYjeGE7ICAgICAgPHBhdGggaW5rc2NhcGU6ZXhwb3J0LXlkcGk9IjI1MC41NSIgaW5rc2NhcGU6ZXhwb3J0LXhkcGk9IjI1MC41NSIgaW5rc2NhcGU6ZXhwb3J0LWZpbGVuYW1lPSJuZXcucG5nIiBpbmtzY2FwZTpjb25uZWN0b3ItY3VydmF0dXJlPSIwIiBpZD0icGF0aDMwNTUiIGQ9Im0gLTYuODQ5MjAxNSw0LjI3MjQ2NjggYSAxLjExOTEyNTUsMS4xMDk5NjcxIDAgMCAwIC0wLjQyODg4MTgsMC4xMDg1MzAzIGwgLTUuODUyNDAzNywyLjc5NjMzOTQgYSAxLjExOTEyNTUsMS4xMDk5NjcxIDAgMCAwIC0wLjYwNTUyNCwwLjc1Mjk3NTkgbCAtMS40NDM4MjgsNi4yODEyODQ2IGEgMS4xMTkxMjU1LDEuMTA5OTY3MSAwIDAgMCAwLjE1MTk0MywwLjg1MTAyOCAxLjExOTEyNTUsMS4xMDk5NjcxIDAgMCAwIDAuMDYzNjIsMC4wODgzMiBsIDQuMDUwOCw1LjAzNjU1NSBhIDEuMTE5MTI1NSwxLjEwOTk2NzEgMCAwIDAgMC44NzQ5NzksMC40MTc2NTQgbCA2LjQ5NjEwMTEsLTAuMDAxNSBhIDEuMTE5MTI1NSwxLjEwOTk2NzEgMCAwIDAgMC44NzQ5Nzg4LC0wLjQxNjkwNiBMIDEuMzgxODg3MiwxNS4xNDk0NTMgQSAxLjExOTEyNTUsMS4xMDk5NjcxIDAgMCAwIDEuNTk4MTk4NiwxNC4yMTAxMDQgTCAwLjE1MjEyNjU3LDcuOTI4ODE1NCBBIDEuMTE5MTI1NSwxLjEwOTk2NzEgMCAwIDAgLTAuNDUzMzk3OTQsNy4xNzU4Mzk2IEwgLTYuMzA2NTQ5Niw0LjM4MDk5NzEgQSAxLjExOTEyNTUsMS4xMDk5NjcxIDAgMCAwIC02Ljg0OTIwMTUsNC4yNzI0NjY4IFoiIHN0eWxlPSJmaWxsOiMzMjZjZTU7ZmlsbC1vcGFjaXR5OjE7c3Ryb2tlOm5vbmU7c3Ryb2tlLXdpZHRoOjA7c3Ryb2tlLW1pdGVybGltaXQ6NDtzdHJva2UtZGFzaGFycmF5Om5vbmU7c3Ryb2tlLW9wYWNpdHk6MSIvPiYjeGE7ICAgICAgPHBhdGggaWQ9InBhdGgzMDU0LTItOSIgZD0iTSAtNi44NTIzNDM1LDMuODE3NjM3MiBBIDEuMTgxNDMwNCwxLjE3MTc2MiAwIDAgMCAtNy4zMDQ0Mjg0LDMuOTMyOTA0IGwgLTYuMTc4NzQyNiwyLjk1MTI3NTggYSAxLjE4MTQzMDQsMS4xNzE3NjIgMCAwIDAgLTAuNjM5MjA2LDAuNzk0ODkxIGwgLTEuNTIzOTE1LDYuNjMwODI4MiBhIDEuMTgxNDMwNCwxLjE3MTc2MiAwIDAgMCAwLjE2MDE3NSwwLjg5ODkzIDEuMTgxNDMwNCwxLjE3MTc2MiAwIDAgMCAwLjA2NzM2LDAuMDkyODEgbCA0LjI3NjA5NCw1LjMxNzIzNiBhIDEuMTgxNDMwNCwxLjE3MTc2MiAwIDAgMCAwLjkyMzYzLDAuNDQwODU4IGwgNi44NTc2MTg4LC0wLjAwMTUgYSAxLjE4MTQzMDQsMS4xNzE3NjIgMCAwIDAgMC45MjM2MzA4LC0wLjQ0MDExIGwgNC4yNzQ1OTY2LC01LjMxNzk4NSBhIDEuMTgxNDMwNCwxLjE3MTc2MiAwIDAgMCAwLjIyODI4OCwtMC45OTA5OTMgTCAwLjUzODk0NDM5LDcuNjc3NTczOCBBIDEuMTgxNDMwNCwxLjE3MTc2MiAwIDAgMCAtMC4xMDAyNjEwMSw2Ljg4MzQzMTMgTCAtNi4yNzkwMDM3LDMuOTMyMTU1NSBBIDEuMTgxNDMwNCwxLjE3MTc2MiAwIDAgMCAtNi44NTIzNDM1LDMuODE3NjM3MiBaIG0gMC4wMDI5OSwwLjQ1NTA3ODkgYSAxLjExOTEyNTUsMS4xMDk5NjcxIDAgMCAxIDAuNTQyNjUxNywwLjEwODUzMDMgbCA1Ljg1MzE1MTY5LDIuNzk0ODQyNSBBIDEuMTE5MTI1NSwxLjEwOTk2NzEgMCAwIDEgMC4xNTE5NzgxMSw3LjkyOTA2NDggTCAxLjU5ODA1MSwxNC4yMTAzNSBhIDEuMTE5MTI1NSwxLjEwOTk2NzEgMCAwIDEgLTAuMjE2MzEyMywwLjkzOTM0OCBsIC00LjA0OTMwMzIsNS4wMzczMDQgYSAxLjExOTEyNTUsMS4xMDk5NjcxIDAgMCAxIC0wLjg3NDk3ODksMC40MTY5MDYgbCAtNi40OTYxMDA2LDAuMDAxNSBhIDEuMTE5MTI1NSwxLjEwOTk2NzEgMCAwIDEgLTAuODc0OTc5LC0wLjQxNzY1MiBsIC00LjA1MDgsLTUuMDM2NTU0IGEgMS4xMTkxMjU1LDEuMTA5OTY3MSAwIDAgMSAtMC4wNjM2MiwtMC4wODgzMiAxLjExOTEyNTUsMS4xMDk5NjcxIDAgMCAxIC0wLjE1MTk0MiwtMC44NTEwMjggbCAxLjQ0MzgyNywtNi4yODEyODUzIGEgMS4xMTkxMjU1LDEuMTA5OTY3MSAwIDAgMSAwLjYwNTUyNCwtMC43NTI5NzU4IGwgNS44NTI0MDM2LC0yLjc5NjMzOTUgYSAxLjExOTEyNTUsMS4xMDk5NjcxIDAgMCAxIDAuNDI4ODgxOSwtMC4xMDg1MzAzIHoiIHN0eWxlPSJjb2xvcjojMDAwMDAwO2ZvbnQtc3R5bGU6bm9ybWFsO2ZvbnQtdmFyaWFudDpub3JtYWw7Zm9udC13ZWlnaHQ6bm9ybWFsO2ZvbnQtc3RyZXRjaDpub3JtYWw7Zm9udC1zaXplOm1lZGl1bTtsaW5lLWhlaWdodDpub3JtYWw7Zm9udC1mYW1pbHk6U2FuczstaW5rc2NhcGUtZm9udC1zcGVjaWZpY2F0aW9uOlNhbnM7dGV4dC1pbmRlbnQ6MDt0ZXh0LWFsaWduOnN0YXJ0O3RleHQtZGVjb3JhdGlvbjpub25lO3RleHQtZGVjb3JhdGlvbi1saW5lOm5vbmU7bGV0dGVyLXNwYWNpbmc6bm9ybWFsO3dvcmQtc3BhY2luZzpub3JtYWw7dGV4dC10cmFuc2Zvcm06bm9uZTt3cml0aW5nLW1vZGU6bHItdGI7ZGlyZWN0aW9uOmx0cjtiYXNlbGluZS1zaGlmdDpiYXNlbGluZTt0ZXh0LWFuY2hvcjpzdGFydDtkaXNwbGF5OmlubGluZTtvdmVyZmxvdzp2aXNpYmxlO3Zpc2liaWxpdHk6dmlzaWJsZTtmaWxsOiNmZmZmZmY7ZmlsbC1vcGFjaXR5OjE7ZmlsbC1ydWxlOm5vbnplcm87c3Ryb2tlOm5vbmU7c3Ryb2tlLXdpZHRoOjA7c3Ryb2tlLW1pdGVybGltaXQ6NDtzdHJva2UtZGFzaGFycmF5Om5vbmU7bWFya2VyOm5vbmU7ZW5hYmxlLWJhY2tncm91bmQ6YWNjdW11bGF0ZSIgaW5rc2NhcGU6Y29ubmVjdG9yLWN1cnZhdHVyZT0iMCIvPiYjeGE7ICAgIDwvZz4mI3hhOyAgICA8dGV4dCBpZD0idGV4dDIwNjYiIHk9IjE2LjgxMTc3NSIgeD0iMTAuMDE3MTgzIiBzdHlsZT0iZm9udC1zdHlsZTpub3JtYWw7Zm9udC13ZWlnaHQ6bm9ybWFsO2ZvbnQtc2l6ZToxMC41ODMzMzMwMnB4O2xpbmUtaGVpZ2h0OjYuNjE0NTgzNDlweDtmb250LWZhbWlseTpTYW5zO2xldHRlci1zcGFjaW5nOjBweDt3b3JkLXNwYWNpbmc6MHB4O2ZpbGw6I2ZmZmZmZjtmaWxsLW9wYWNpdHk6MTtzdHJva2U6bm9uZTtzdHJva2Utd2lkdGg6MC4yNjQ1ODMzMnB4O3N0cm9rZS1saW5lY2FwOmJ1dHQ7c3Ryb2tlLWxpbmVqb2luOm1pdGVyO3N0cm9rZS1vcGFjaXR5OjEiIHhtbDpzcGFjZT0icHJlc2VydmUiPjx0c3BhbiBzdHlsZT0iZm9udC1zdHlsZTpub3JtYWw7Zm9udC12YXJpYW50Om5vcm1hbDtmb250LXdlaWdodDpub3JtYWw7Zm9udC1zdHJldGNoOm5vcm1hbDtmb250LXNpemU6Mi44MjIyMjIyM3B4O2ZvbnQtZmFtaWx5OkFyaWFsOy1pbmtzY2FwZS1mb250LXNwZWNpZmljYXRpb246J0FyaWFsLCBOb3JtYWwnO3RleHQtYWxpZ246Y2VudGVyO3dyaXRpbmctbW9kZTpsci10Yjt0ZXh0LWFuY2hvcjptaWRkbGU7ZmlsbDojZmZmZmZmO2ZpbGwtb3BhY2l0eToxO3N0cm9rZS13aWR0aDowLjI2NDU4MzMycHgiIHk9IjE2LjgxMTc3NSIgeD0iMTAuMDE3MTgzIiBpZD0idHNwYW4yMDY0IiBzb2RpcG9kaTpyb2xlPSJsaW5lIj5wb2Q8L3RzcGFuPjwvdGV4dD4mI3hhOyAgICA8ZyBpZD0iZzMzNDEiIHRyYW5zZm9ybT0idHJhbnNsYXRlKDAuMTI3NjY2NjEsMCkiPiYjeGE7ICAgICAgPHBhdGggaW5rc2NhcGU6ZXhwb3J0LXlkcGk9IjM3Ni41Nzk5OSIgaW5rc2NhcGU6ZXhwb3J0LXhkcGk9IjM3Ni41Nzk5OSIgc3R5bGU9ImZpbGw6I2ZmZmZmZjtmaWxsLXJ1bGU6ZXZlbm9kZDtzdHJva2U6bm9uZTtzdHJva2Utd2lkdGg6MC4yNjQ1ODMzMjtzdHJva2UtbGluZWNhcDpzcXVhcmU7c3Ryb2tlLW1pdGVybGltaXQ6MTAiIGlua3NjYXBlOmNvbm5lY3Rvci1jdXJ2YXR1cmU9IjAiIGQ9Ik0gNi4yNjE3OTE0LDcuMDM2MDg2IDkuODgyNjMxNyw1Ljk4NjA4NyAxMy41MDM0NjIsNy4wMzYwODYgOS44ODI2MzE3LDguMDg2MDg3IFoiIGlkPSJwYXRoOTEwIi8+JiN4YTsgICAgICA8cGF0aCBpbmtzY2FwZTpleHBvcnQteWRwaT0iMzc2LjU3OTk5IiBpbmtzY2FwZTpleHBvcnQteGRwaT0iMzc2LjU3OTk5IiBzdHlsZT0iZmlsbDojZmZmZmZmO2ZpbGwtcnVsZTpldmVub2RkO3N0cm9rZTpub25lO3N0cm9rZS13aWR0aDowLjI2NDU4MzMyO3N0cm9rZS1saW5lY2FwOnNxdWFyZTtzdHJva2UtbWl0ZXJsaW1pdDoxMCIgaW5rc2NhcGU6Y29ubmVjdG9yLWN1cnZhdHVyZT0iMCIgZD0ibSA2LjI2MTc5MTQsNy40MzgxNyAwLDMuODUyNzc4IDMuMzczNjEwMywxLjg2ODc0OSAwLjAxNjcsLTQuNzEzMTkzIHoiIGlkPSJwYXRoOTEyIi8+JiN4YTsgICAgICA8cGF0aCBpbmtzY2FwZTpleHBvcnQteWRwaT0iMzc2LjU3OTk5IiBpbmtzY2FwZTpleHBvcnQteGRwaT0iMzc2LjU3OTk5IiBzdHlsZT0iZmlsbDojZmZmZmZmO2ZpbGwtcnVsZTpldmVub2RkO3N0cm9rZTpub25lO3N0cm9rZS13aWR0aDowLjI2NDU4MzMyO3N0cm9rZS1saW5lY2FwOnNxdWFyZTtzdHJva2UtbWl0ZXJsaW1pdDoxMCIgaW5rc2NhcGU6Y29ubmVjdG9yLWN1cnZhdHVyZT0iMCIgZD0ibSAxMy41MDM0NjIsNy40MzgxNyAwLDMuODUyNzc4IC0zLjM3MzYxLDEuODY4NzQ5IC0wLjAxNjcsLTQuNzEzMTkzIHoiIGlkPSJwYXRoOTE0Ii8+JiN4YTsgICAgPC9nPiYjeGE7ICA8L2c+JiN4YTs8L3N2Zz4=;fillColor=none;labelPosition=center;align=center;fontSize=10;" vertex="1" parent="ke8J5Ebdfp0hx4Ng-5WA-21">
          <mxGeometry x="335" y="270" width="40" height="40" as="geometry" />
        </mxCell>
        <mxCell id="ke8J5Ebdfp0hx4Ng-5WA-15" value="rsyslog" style="sketch=0;outlineConnect=0;fillColor=#1ba1e2;strokeColor=#006EAF;dashed=0;verticalLabelPosition=bottom;verticalAlign=top;align=center;html=1;fontSize=8;fontStyle=0;aspect=fixed;pointerEvents=1;shape=mxgraph.aws4.container_1;fontColor=#000000;fontFamily=Helvetica;labelPosition=center;" vertex="1" parent="ke8J5Ebdfp0hx4Ng-5WA-21">
          <mxGeometry x="417" y="300" width="48" height="31" as="geometry" />
        </mxCell>
        <mxCell id="ke8J5Ebdfp0hx4Ng-5WA-16" value="logrotate" style="sketch=0;outlineConnect=0;fillColor=#1ba1e2;strokeColor=#006EAF;dashed=0;verticalLabelPosition=bottom;verticalAlign=top;align=center;html=1;fontSize=8;fontStyle=0;aspect=fixed;pointerEvents=1;shape=mxgraph.aws4.container_1;fontColor=#000000;fontFamily=Helvetica;labelPosition=center;" vertex="1" parent="ke8J5Ebdfp0hx4Ng-5WA-21">
          <mxGeometry x="375" y="350" width="48" height="31" as="geometry" />
        </mxCell>
        <mxCell id="ke8J5Ebdfp0hx4Ng-5WA-17" value="telegraf" style="sketch=0;outlineConnect=0;fillColor=#1ba1e2;strokeColor=#006EAF;dashed=0;verticalLabelPosition=bottom;verticalAlign=top;align=center;html=1;fontSize=8;fontStyle=0;aspect=fixed;pointerEvents=1;shape=mxgraph.aws4.container_1;fontColor=#000000;fontFamily=Helvetica;labelPosition=center;" vertex="1" parent="ke8J5Ebdfp0hx4Ng-5WA-21">
          <mxGeometry x="465" y="350" width="48" height="31" as="geometry" />
        </mxCell>
        <mxCell id="ke8J5Ebdfp0hx4Ng-5WA-38" style="edgeStyle=orthogonalEdgeStyle;curved=1;rounded=0;orthogonalLoop=1;jettySize=auto;html=1;exitX=0.5;exitY=0;exitDx=0;exitDy=0;fontFamily=Helvetica;fontSize=9;fontColor=#000000;" edge="1" parent="ke8J5Ebdfp0hx4Ng-5WA-21" source="ke8J5Ebdfp0hx4Ng-5WA-33" target="ke8J5Ebdfp0hx4Ng-5WA-10">
          <mxGeometry relative="1" as="geometry" />
        </mxCell>
        <mxCell id="ke8J5Ebdfp0hx4Ng-5WA-33" value="logging-injector" style="rounded=1;whiteSpace=wrap;html=1;fillColor=#cce5ff;fontSize=10;labelPosition=center;verticalLabelPosition=bottom;align=center;verticalAlign=top;strokeColor=#36393d;" vertex="1" parent="ke8J5Ebdfp0hx4Ng-5WA-21">
          <mxGeometry x="110" y="320" width="120" height="80" as="geometry" />
        </mxCell>
        <mxCell id="ke8J5Ebdfp0hx4Ng-5WA-34" value="" style="shape=image;verticalLabelPosition=top;verticalAlign=bottom;imageAspect=0;aspect=fixed;image=data:image/svg+xml,PHN2ZyB4bWxuczpkYz0iaHR0cDovL3B1cmwub3JnL2RjL2VsZW1lbnRzLzEuMS8iIHhtbG5zOmNjPSJodHRwOi8vY3JlYXRpdmVjb21tb25zLm9yZy9ucyMiIHhtbG5zOnJkZj0iaHR0cDovL3d3dy53My5vcmcvMTk5OS8wMi8yMi1yZGYtc3ludGF4LW5zIyIgeG1sbnM6c3ZnPSJodHRwOi8vd3d3LnczLm9yZy8yMDAwL3N2ZyIgeG1sbnM9Imh0dHA6Ly93d3cudzMub3JnLzIwMDAvc3ZnIiB4bWxuczpzb2RpcG9kaT0iaHR0cDovL3NvZGlwb2RpLnNvdXJjZWZvcmdlLm5ldC9EVEQvc29kaXBvZGktMC5kdGQiIHhtbG5zOmlua3NjYXBlPSJodHRwOi8vd3d3Lmlua3NjYXBlLm9yZy9uYW1lc3BhY2VzL2lua3NjYXBlIiB3aWR0aD0iMTguMDM1MzM0bW0iIGhlaWdodD0iMTcuNTAwMzc4bW0iIHZpZXdCb3g9IjAgMCAxOC4wMzUzMzQgMTcuNTAwMzc4IiB2ZXJzaW9uPSIxLjEiIGlkPSJzdmcxMzgyNiIgaW5rc2NhcGU6dmVyc2lvbj0iMC45MSByMTM3MjUiIHNvZGlwb2RpOmRvY25hbWU9InBvZC5zdmciPiYjeGE7ICA8ZGVmcyBpZD0iZGVmczEzODIwIi8+JiN4YTsgIDxzb2RpcG9kaTpuYW1lZHZpZXcgaWQ9ImJhc2UiIHBhZ2Vjb2xvcj0iI2ZmZmZmZiIgYm9yZGVyY29sb3I9IiM2NjY2NjYiIGJvcmRlcm9wYWNpdHk9IjEuMCIgaW5rc2NhcGU6cGFnZW9wYWNpdHk9IjAuMCIgaW5rc2NhcGU6cGFnZXNoYWRvdz0iMiIgaW5rc2NhcGU6em9vbT0iOCIgaW5rc2NhcGU6Y3g9IjE2Ljg0NzQ5NiIgaW5rc2NhcGU6Y3k9IjMzLjc1MjIzOSIgaW5rc2NhcGU6ZG9jdW1lbnQtdW5pdHM9Im1tIiBpbmtzY2FwZTpjdXJyZW50LWxheWVyPSJsYXllcjEiIHNob3dncmlkPSJmYWxzZSIgaW5rc2NhcGU6d2luZG93LXdpZHRoPSIxNDQwIiBpbmtzY2FwZTp3aW5kb3ctaGVpZ2h0PSI3NzUiIGlua3NjYXBlOndpbmRvdy14PSIwIiBpbmtzY2FwZTp3aW5kb3cteT0iMSIgaW5rc2NhcGU6d2luZG93LW1heGltaXplZD0iMSIgZml0LW1hcmdpbi10b3A9IjAiIGZpdC1tYXJnaW4tbGVmdD0iMCIgZml0LW1hcmdpbi1yaWdodD0iMCIgZml0LW1hcmdpbi1ib3R0b209IjAiLz4mI3hhOyAgPG1ldGFkYXRhIGlkPSJtZXRhZGF0YTEzODIzIj4mI3hhOyAgICA8cmRmOlJERj4mI3hhOyAgICAgIDxjYzpXb3JrIHJkZjphYm91dD0iIj4mI3hhOyAgICAgICAgPGRjOmZvcm1hdD5pbWFnZS9zdmcreG1sPC9kYzpmb3JtYXQ+JiN4YTsgICAgICAgIDxkYzp0eXBlIHJkZjpyZXNvdXJjZT0iaHR0cDovL3B1cmwub3JnL2RjL2RjbWl0eXBlL1N0aWxsSW1hZ2UiLz4mI3hhOyAgICAgICAgPGRjOnRpdGxlLz4mI3hhOyAgICAgIDwvY2M6V29yaz4mI3hhOyAgICA8L3JkZjpSREY+JiN4YTsgIDwvbWV0YWRhdGE+JiN4YTsgIDxnIGlua3NjYXBlOmxhYmVsPSJDYWxxdWUgMSIgaW5rc2NhcGU6Z3JvdXBtb2RlPSJsYXllciIgaWQ9ImxheWVyMSIgdHJhbnNmb3JtPSJ0cmFuc2xhdGUoLTAuOTkyNjI2MzgsLTEuMTc0MTgxKSI+JiN4YTsgICAgPGcgaWQ9Imc3MCIgdHJhbnNmb3JtPSJtYXRyaXgoMS4wMTQ4ODg3LDAsMCwxLjAxNDg4ODcsMTYuOTAyMTQ2LC0yLjY5ODcyNikiPiYjeGE7ICAgICAgPHBhdGggaW5rc2NhcGU6ZXhwb3J0LXlkcGk9IjI1MC41NSIgaW5rc2NhcGU6ZXhwb3J0LXhkcGk9IjI1MC41NSIgaW5rc2NhcGU6ZXhwb3J0LWZpbGVuYW1lPSJuZXcucG5nIiBpbmtzY2FwZTpjb25uZWN0b3ItY3VydmF0dXJlPSIwIiBpZD0icGF0aDMwNTUiIGQ9Im0gLTYuODQ5MjAxNSw0LjI3MjQ2NjggYSAxLjExOTEyNTUsMS4xMDk5NjcxIDAgMCAwIC0wLjQyODg4MTgsMC4xMDg1MzAzIGwgLTUuODUyNDAzNywyLjc5NjMzOTQgYSAxLjExOTEyNTUsMS4xMDk5NjcxIDAgMCAwIC0wLjYwNTUyNCwwLjc1Mjk3NTkgbCAtMS40NDM4MjgsNi4yODEyODQ2IGEgMS4xMTkxMjU1LDEuMTA5OTY3MSAwIDAgMCAwLjE1MTk0MywwLjg1MTAyOCAxLjExOTEyNTUsMS4xMDk5NjcxIDAgMCAwIDAuMDYzNjIsMC4wODgzMiBsIDQuMDUwOCw1LjAzNjU1NSBhIDEuMTE5MTI1NSwxLjEwOTk2NzEgMCAwIDAgMC44NzQ5NzksMC40MTc2NTQgbCA2LjQ5NjEwMTEsLTAuMDAxNSBhIDEuMTE5MTI1NSwxLjEwOTk2NzEgMCAwIDAgMC44NzQ5Nzg4LC0wLjQxNjkwNiBMIDEuMzgxODg3MiwxNS4xNDk0NTMgQSAxLjExOTEyNTUsMS4xMDk5NjcxIDAgMCAwIDEuNTk4MTk4NiwxNC4yMTAxMDQgTCAwLjE1MjEyNjU3LDcuOTI4ODE1NCBBIDEuMTE5MTI1NSwxLjEwOTk2NzEgMCAwIDAgLTAuNDUzMzk3OTQsNy4xNzU4Mzk2IEwgLTYuMzA2NTQ5Niw0LjM4MDk5NzEgQSAxLjExOTEyNTUsMS4xMDk5NjcxIDAgMCAwIC02Ljg0OTIwMTUsNC4yNzI0NjY4IFoiIHN0eWxlPSJmaWxsOiMzMjZjZTU7ZmlsbC1vcGFjaXR5OjE7c3Ryb2tlOm5vbmU7c3Ryb2tlLXdpZHRoOjA7c3Ryb2tlLW1pdGVybGltaXQ6NDtzdHJva2UtZGFzaGFycmF5Om5vbmU7c3Ryb2tlLW9wYWNpdHk6MSIvPiYjeGE7ICAgICAgPHBhdGggaWQ9InBhdGgzMDU0LTItOSIgZD0iTSAtNi44NTIzNDM1LDMuODE3NjM3MiBBIDEuMTgxNDMwNCwxLjE3MTc2MiAwIDAgMCAtNy4zMDQ0Mjg0LDMuOTMyOTA0IGwgLTYuMTc4NzQyNiwyLjk1MTI3NTggYSAxLjE4MTQzMDQsMS4xNzE3NjIgMCAwIDAgLTAuNjM5MjA2LDAuNzk0ODkxIGwgLTEuNTIzOTE1LDYuNjMwODI4MiBhIDEuMTgxNDMwNCwxLjE3MTc2MiAwIDAgMCAwLjE2MDE3NSwwLjg5ODkzIDEuMTgxNDMwNCwxLjE3MTc2MiAwIDAgMCAwLjA2NzM2LDAuMDkyODEgbCA0LjI3NjA5NCw1LjMxNzIzNiBhIDEuMTgxNDMwNCwxLjE3MTc2MiAwIDAgMCAwLjkyMzYzLDAuNDQwODU4IGwgNi44NTc2MTg4LC0wLjAwMTUgYSAxLjE4MTQzMDQsMS4xNzE3NjIgMCAwIDAgMC45MjM2MzA4LC0wLjQ0MDExIGwgNC4yNzQ1OTY2LC01LjMxNzk4NSBhIDEuMTgxNDMwNCwxLjE3MTc2MiAwIDAgMCAwLjIyODI4OCwtMC45OTA5OTMgTCAwLjUzODk0NDM5LDcuNjc3NTczOCBBIDEuMTgxNDMwNCwxLjE3MTc2MiAwIDAgMCAtMC4xMDAyNjEwMSw2Ljg4MzQzMTMgTCAtNi4yNzkwMDM3LDMuOTMyMTU1NSBBIDEuMTgxNDMwNCwxLjE3MTc2MiAwIDAgMCAtNi44NTIzNDM1LDMuODE3NjM3MiBaIG0gMC4wMDI5OSwwLjQ1NTA3ODkgYSAxLjExOTEyNTUsMS4xMDk5NjcxIDAgMCAxIDAuNTQyNjUxNywwLjEwODUzMDMgbCA1Ljg1MzE1MTY5LDIuNzk0ODQyNSBBIDEuMTE5MTI1NSwxLjEwOTk2NzEgMCAwIDEgMC4xNTE5NzgxMSw3LjkyOTA2NDggTCAxLjU5ODA1MSwxNC4yMTAzNSBhIDEuMTE5MTI1NSwxLjEwOTk2NzEgMCAwIDEgLTAuMjE2MzEyMywwLjkzOTM0OCBsIC00LjA0OTMwMzIsNS4wMzczMDQgYSAxLjExOTEyNTUsMS4xMDk5NjcxIDAgMCAxIC0wLjg3NDk3ODksMC40MTY5MDYgbCAtNi40OTYxMDA2LDAuMDAxNSBhIDEuMTE5MTI1NSwxLjEwOTk2NzEgMCAwIDEgLTAuODc0OTc5LC0wLjQxNzY1MiBsIC00LjA1MDgsLTUuMDM2NTU0IGEgMS4xMTkxMjU1LDEuMTA5OTY3MSAwIDAgMSAtMC4wNjM2MiwtMC4wODgzMiAxLjExOTEyNTUsMS4xMDk5NjcxIDAgMCAxIC0wLjE1MTk0MiwtMC44NTEwMjggbCAxLjQ0MzgyNywtNi4yODEyODUzIGEgMS4xMTkxMjU1LDEuMTA5OTY3MSAwIDAgMSAwLjYwNTUyNCwtMC43NTI5NzU4IGwgNS44NTI0MDM2LC0yLjc5NjMzOTUgYSAxLjExOTEyNTUsMS4xMDk5NjcxIDAgMCAxIDAuNDI4ODgxOSwtMC4xMDg1MzAzIHoiIHN0eWxlPSJjb2xvcjojMDAwMDAwO2ZvbnQtc3R5bGU6bm9ybWFsO2ZvbnQtdmFyaWFudDpub3JtYWw7Zm9udC13ZWlnaHQ6bm9ybWFsO2ZvbnQtc3RyZXRjaDpub3JtYWw7Zm9udC1zaXplOm1lZGl1bTtsaW5lLWhlaWdodDpub3JtYWw7Zm9udC1mYW1pbHk6U2FuczstaW5rc2NhcGUtZm9udC1zcGVjaWZpY2F0aW9uOlNhbnM7dGV4dC1pbmRlbnQ6MDt0ZXh0LWFsaWduOnN0YXJ0O3RleHQtZGVjb3JhdGlvbjpub25lO3RleHQtZGVjb3JhdGlvbi1saW5lOm5vbmU7bGV0dGVyLXNwYWNpbmc6bm9ybWFsO3dvcmQtc3BhY2luZzpub3JtYWw7dGV4dC10cmFuc2Zvcm06bm9uZTt3cml0aW5nLW1vZGU6bHItdGI7ZGlyZWN0aW9uOmx0cjtiYXNlbGluZS1zaGlmdDpiYXNlbGluZTt0ZXh0LWFuY2hvcjpzdGFydDtkaXNwbGF5OmlubGluZTtvdmVyZmxvdzp2aXNpYmxlO3Zpc2liaWxpdHk6dmlzaWJsZTtmaWxsOiNmZmZmZmY7ZmlsbC1vcGFjaXR5OjE7ZmlsbC1ydWxlOm5vbnplcm87c3Ryb2tlOm5vbmU7c3Ryb2tlLXdpZHRoOjA7c3Ryb2tlLW1pdGVybGltaXQ6NDtzdHJva2UtZGFzaGFycmF5Om5vbmU7bWFya2VyOm5vbmU7ZW5hYmxlLWJhY2tncm91bmQ6YWNjdW11bGF0ZSIgaW5rc2NhcGU6Y29ubmVjdG9yLWN1cnZhdHVyZT0iMCIvPiYjeGE7ICAgIDwvZz4mI3hhOyAgICA8dGV4dCBpZD0idGV4dDIwNjYiIHk9IjE2LjgxMTc3NSIgeD0iMTAuMDE3MTgzIiBzdHlsZT0iZm9udC1zdHlsZTpub3JtYWw7Zm9udC13ZWlnaHQ6bm9ybWFsO2ZvbnQtc2l6ZToxMC41ODMzMzMwMnB4O2xpbmUtaGVpZ2h0OjYuNjE0NTgzNDlweDtmb250LWZhbWlseTpTYW5zO2xldHRlci1zcGFjaW5nOjBweDt3b3JkLXNwYWNpbmc6MHB4O2ZpbGw6I2ZmZmZmZjtmaWxsLW9wYWNpdHk6MTtzdHJva2U6bm9uZTtzdHJva2Utd2lkdGg6MC4yNjQ1ODMzMnB4O3N0cm9rZS1saW5lY2FwOmJ1dHQ7c3Ryb2tlLWxpbmVqb2luOm1pdGVyO3N0cm9rZS1vcGFjaXR5OjEiIHhtbDpzcGFjZT0icHJlc2VydmUiPjx0c3BhbiBzdHlsZT0iZm9udC1zdHlsZTpub3JtYWw7Zm9udC12YXJpYW50Om5vcm1hbDtmb250LXdlaWdodDpub3JtYWw7Zm9udC1zdHJldGNoOm5vcm1hbDtmb250LXNpemU6Mi44MjIyMjIyM3B4O2ZvbnQtZmFtaWx5OkFyaWFsOy1pbmtzY2FwZS1mb250LXNwZWNpZmljYXRpb246J0FyaWFsLCBOb3JtYWwnO3RleHQtYWxpZ246Y2VudGVyO3dyaXRpbmctbW9kZTpsci10Yjt0ZXh0LWFuY2hvcjptaWRkbGU7ZmlsbDojZmZmZmZmO2ZpbGwtb3BhY2l0eToxO3N0cm9rZS13aWR0aDowLjI2NDU4MzMycHgiIHk9IjE2LjgxMTc3NSIgeD0iMTAuMDE3MTgzIiBpZD0idHNwYW4yMDY0IiBzb2RpcG9kaTpyb2xlPSJsaW5lIj5wb2Q8L3RzcGFuPjwvdGV4dD4mI3hhOyAgICA8ZyBpZD0iZzMzNDEiIHRyYW5zZm9ybT0idHJhbnNsYXRlKDAuMTI3NjY2NjEsMCkiPiYjeGE7ICAgICAgPHBhdGggaW5rc2NhcGU6ZXhwb3J0LXlkcGk9IjM3Ni41Nzk5OSIgaW5rc2NhcGU6ZXhwb3J0LXhkcGk9IjM3Ni41Nzk5OSIgc3R5bGU9ImZpbGw6I2ZmZmZmZjtmaWxsLXJ1bGU6ZXZlbm9kZDtzdHJva2U6bm9uZTtzdHJva2Utd2lkdGg6MC4yNjQ1ODMzMjtzdHJva2UtbGluZWNhcDpzcXVhcmU7c3Ryb2tlLW1pdGVybGltaXQ6MTAiIGlua3NjYXBlOmNvbm5lY3Rvci1jdXJ2YXR1cmU9IjAiIGQ9Ik0gNi4yNjE3OTE0LDcuMDM2MDg2IDkuODgyNjMxNyw1Ljk4NjA4NyAxMy41MDM0NjIsNy4wMzYwODYgOS44ODI2MzE3LDguMDg2MDg3IFoiIGlkPSJwYXRoOTEwIi8+JiN4YTsgICAgICA8cGF0aCBpbmtzY2FwZTpleHBvcnQteWRwaT0iMzc2LjU3OTk5IiBpbmtzY2FwZTpleHBvcnQteGRwaT0iMzc2LjU3OTk5IiBzdHlsZT0iZmlsbDojZmZmZmZmO2ZpbGwtcnVsZTpldmVub2RkO3N0cm9rZTpub25lO3N0cm9rZS13aWR0aDowLjI2NDU4MzMyO3N0cm9rZS1saW5lY2FwOnNxdWFyZTtzdHJva2UtbWl0ZXJsaW1pdDoxMCIgaW5rc2NhcGU6Y29ubmVjdG9yLWN1cnZhdHVyZT0iMCIgZD0ibSA2LjI2MTc5MTQsNy40MzgxNyAwLDMuODUyNzc4IDMuMzczNjEwMywxLjg2ODc0OSAwLjAxNjcsLTQuNzEzMTkzIHoiIGlkPSJwYXRoOTEyIi8+JiN4YTsgICAgICA8cGF0aCBpbmtzY2FwZTpleHBvcnQteWRwaT0iMzc2LjU3OTk5IiBpbmtzY2FwZTpleHBvcnQteGRwaT0iMzc2LjU3OTk5IiBzdHlsZT0iZmlsbDojZmZmZmZmO2ZpbGwtcnVsZTpldmVub2RkO3N0cm9rZTpub25lO3N0cm9rZS13aWR0aDowLjI2NDU4MzMyO3N0cm9rZS1saW5lY2FwOnNxdWFyZTtzdHJva2UtbWl0ZXJsaW1pdDoxMCIgaW5rc2NhcGU6Y29ubmVjdG9yLWN1cnZhdHVyZT0iMCIgZD0ibSAxMy41MDM0NjIsNy40MzgxNyAwLDMuODUyNzc4IC0zLjM3MzYxLDEuODY4NzQ5IC0wLjAxNjcsLTQuNzEzMTkzIHoiIGlkPSJwYXRoOTE0Ii8+JiN4YTsgICAgPC9nPiYjeGE7ICA8L2c+JiN4YTs8L3N2Zz4=;fillColor=none;labelPosition=center;align=center;fontSize=10;" vertex="1" parent="ke8J5Ebdfp0hx4Ng-5WA-21">
          <mxGeometry x="100" y="310" width="40" height="40" as="geometry" />
        </mxCell>
        <mxCell id="ke8J5Ebdfp0hx4Ng-5WA-35" value="logging-injector" style="sketch=0;outlineConnect=0;fillColor=#1ba1e2;strokeColor=#006EAF;dashed=0;verticalLabelPosition=bottom;verticalAlign=top;align=center;html=1;fontSize=8;fontStyle=0;aspect=fixed;pointerEvents=1;shape=mxgraph.aws4.container_1;fontColor=#000000;fontFamily=Helvetica;labelPosition=center;" vertex="1" parent="ke8J5Ebdfp0hx4Ng-5WA-21">
          <mxGeometry x="146" y="344.5" width="48" height="31" as="geometry" />
        </mxCell>
        <mxCell id="ke8J5Ebdfp0hx4Ng-5WA-31" value="std" style="edgeStyle=orthogonalEdgeStyle;rounded=0;orthogonalLoop=1;jettySize=auto;html=1;fontFamily=Helvetica;fontSize=9;fontColor=#000000;curved=1;" edge="1" parent="ke8J5Ebdfp0hx4Ng-5WA-21" source="ke8J5Ebdfp0hx4Ng-5WA-11" target="ke8J5Ebdfp0hx4Ng-5WA-46">
          <mxGeometry relative="1" as="geometry">
            <mxPoint x="275" y="140" as="targetPoint" />
          </mxGeometry>
        </mxCell>
        <mxCell id="ke8J5Ebdfp0hx4Ng-5WA-39" value="" style="shadow=0;dashed=0;html=1;labelPosition=center;verticalLabelPosition=bottom;verticalAlign=top;align=center;outlineConnect=0;shape=mxgraph.veeam.3d.datastore_volume;fontFamily=Helvetica;fontSize=9;fontColor=#000000;fillColor=none;" vertex="1" parent="ke8J5Ebdfp0hx4Ng-5WA-21">
          <mxGeometry x="575" y="321.5" width="90" height="37" as="geometry" />
        </mxCell>
        <mxCell id="ke8J5Ebdfp0hx4Ng-5WA-44" style="edgeStyle=orthogonalEdgeStyle;curved=1;rounded=0;orthogonalLoop=1;jettySize=auto;html=1;fontFamily=Helvetica;fontSize=9;fontColor=#000000;" edge="1" parent="ke8J5Ebdfp0hx4Ng-5WA-21" source="ke8J5Ebdfp0hx4Ng-5WA-40" target="ke8J5Ebdfp0hx4Ng-5WA-10">
          <mxGeometry relative="1" as="geometry" />
        </mxCell>
        <mxCell id="ke8J5Ebdfp0hx4Ng-5WA-40" value="" style="shadow=0;dashed=0;html=1;labelPosition=center;verticalLabelPosition=bottom;verticalAlign=top;align=center;outlineConnect=0;shape=mxgraph.veeam.3d.datastore_volume;fontFamily=Helvetica;fontSize=9;fontColor=#000000;fillColor=none;" vertex="1" parent="ke8J5Ebdfp0hx4Ng-5WA-21">
          <mxGeometry x="144" y="186.5" width="52" height="27" as="geometry" />
        </mxCell>
        <mxCell id="ke8J5Ebdfp0hx4Ng-5WA-47" style="edgeStyle=orthogonalEdgeStyle;curved=1;rounded=0;orthogonalLoop=1;jettySize=auto;html=1;fontFamily=Helvetica;fontSize=9;fontColor=#000000;" edge="1" parent="ke8J5Ebdfp0hx4Ng-5WA-21" source="ke8J5Ebdfp0hx4Ng-5WA-46" target="ke8J5Ebdfp0hx4Ng-5WA-8">
          <mxGeometry relative="1" as="geometry" />
        </mxCell>
        <mxCell id="ke8J5Ebdfp0hx4Ng-5WA-46" value="" style="shadow=0;dashed=0;html=1;labelPosition=center;verticalLabelPosition=bottom;verticalAlign=top;align=center;outlineConnect=0;shape=mxgraph.veeam.3d.datastore_volume;fontFamily=Helvetica;fontSize=9;fontColor=#000000;fillColor=none;" vertex="1" parent="ke8J5Ebdfp0hx4Ng-5WA-21">
          <mxGeometry x="285" y="129.5" width="50" height="26" as="geometry" />
        </mxCell>
        <mxCell id="ke8J5Ebdfp0hx4Ng-5WA-52" style="edgeStyle=orthogonalEdgeStyle;curved=1;rounded=0;orthogonalLoop=1;jettySize=auto;html=1;exitX=1;exitY=0.5;exitDx=0;exitDy=0;fontFamily=Helvetica;fontSize=3;fontColor=#000000;" edge="1" parent="ke8J5Ebdfp0hx4Ng-5WA-21" source="ke8J5Ebdfp0hx4Ng-5WA-49" target="ke8J5Ebdfp0hx4Ng-5WA-11">
          <mxGeometry relative="1" as="geometry" />
        </mxCell>
        <mxCell id="ke8J5Ebdfp0hx4Ng-5WA-49" value="logback" style="rounded=1;whiteSpace=wrap;html=1;fillColor=#cce5ff;fontSize=10;labelPosition=center;verticalLabelPosition=middle;align=center;verticalAlign=middle;strokeColor=#36393d;" vertex="1" parent="ke8J5Ebdfp0hx4Ng-5WA-21">
          <mxGeometry x="20" y="140" width="80" height="40" as="geometry" />
        </mxCell>
        <mxCell id="ke8J5Ebdfp0hx4Ng-5WA-50" value="" style="shape=image;verticalLabelPosition=bottom;verticalAlign=top;imageAspect=0;aspect=fixed;image=data:image/svg+xml,PHN2ZyB4bWxuczpkYz0iaHR0cDovL3B1cmwub3JnL2RjL2VsZW1lbnRzLzEuMS8iIHhtbG5zOmNjPSJodHRwOi8vY3JlYXRpdmVjb21tb25zLm9yZy9ucyMiIHhtbG5zOnJkZj0iaHR0cDovL3d3dy53My5vcmcvMTk5OS8wMi8yMi1yZGYtc3ludGF4LW5zIyIgeG1sbnM6c3ZnPSJodHRwOi8vd3d3LnczLm9yZy8yMDAwL3N2ZyIgeG1sbnM9Imh0dHA6Ly93d3cudzMub3JnLzIwMDAvc3ZnIiB4bWxuczpzb2RpcG9kaT0iaHR0cDovL3NvZGlwb2RpLnNvdXJjZWZvcmdlLm5ldC9EVEQvc29kaXBvZGktMC5kdGQiIHhtbG5zOmlua3NjYXBlPSJodHRwOi8vd3d3Lmlua3NjYXBlLm9yZy9uYW1lc3BhY2VzL2lua3NjYXBlIiB3aWR0aD0iMTguMDM1MzM0bW0iIGhlaWdodD0iMTcuNTAwMzc4bW0iIHZpZXdCb3g9IjAgMCAxOC4wMzUzMzQgMTcuNTAwMzc4IiB2ZXJzaW9uPSIxLjEiIGlkPSJzdmcxMTUzMSIgaW5rc2NhcGU6dmVyc2lvbj0iMC45MSByMTM3MjUiIHNvZGlwb2RpOmRvY25hbWU9ImMtbS5zdmciPiYjeGE7ICA8ZGVmcyBpZD0iZGVmczExNTI1Ii8+JiN4YTsgIDxzb2RpcG9kaTpuYW1lZHZpZXcgaWQ9ImJhc2UiIHBhZ2Vjb2xvcj0iI2ZmZmZmZiIgYm9yZGVyY29sb3I9IiM2NjY2NjYiIGJvcmRlcm9wYWNpdHk9IjEuMCIgaW5rc2NhcGU6cGFnZW9wYWNpdHk9IjAuMCIgaW5rc2NhcGU6cGFnZXNoYWRvdz0iMiIgaW5rc2NhcGU6em9vbT0iOCIgaW5rc2NhcGU6Y3g9IjE2Ljk2ODYyMSIgaW5rc2NhcGU6Y3k9IjMzLjUwOTA4MSIgaW5rc2NhcGU6ZG9jdW1lbnQtdW5pdHM9Im1tIiBpbmtzY2FwZTpjdXJyZW50LWxheWVyPSJsYXllcjEiIHNob3dncmlkPSJmYWxzZSIgaW5rc2NhcGU6d2luZG93LXdpZHRoPSIxNDQwIiBpbmtzY2FwZTp3aW5kb3ctaGVpZ2h0PSI3NzEiIGlua3NjYXBlOndpbmRvdy14PSI1NSIgaW5rc2NhcGU6d2luZG93LXk9IjAiIGlua3NjYXBlOndpbmRvdy1tYXhpbWl6ZWQ9IjAiIGZpdC1tYXJnaW4tdG9wPSIwIiBmaXQtbWFyZ2luLWxlZnQ9IjAiIGZpdC1tYXJnaW4tcmlnaHQ9IjAiIGZpdC1tYXJnaW4tYm90dG9tPSIwIi8+JiN4YTsgIDxtZXRhZGF0YSBpZD0ibWV0YWRhdGExMTUyOCI+JiN4YTsgICAgPHJkZjpSREY+JiN4YTsgICAgICA8Y2M6V29yayByZGY6YWJvdXQ9IiI+JiN4YTsgICAgICAgIDxkYzpmb3JtYXQ+aW1hZ2Uvc3ZnK3htbDwvZGM6Zm9ybWF0PiYjeGE7ICAgICAgICA8ZGM6dHlwZSByZGY6cmVzb3VyY2U9Imh0dHA6Ly9wdXJsLm9yZy9kYy9kY21pdHlwZS9TdGlsbEltYWdlIi8+JiN4YTsgICAgICAgIDxkYzp0aXRsZS8+JiN4YTsgICAgICA8L2NjOldvcms+JiN4YTsgICAgPC9yZGY6UkRGPiYjeGE7ICA8L21ldGFkYXRhPiYjeGE7ICA8ZyBpbmtzY2FwZTpsYWJlbD0iQ2FscXVlIDEiIGlua3NjYXBlOmdyb3VwbW9kZT0ibGF5ZXIiIGlkPSJsYXllcjEiIHRyYW5zZm9ybT0idHJhbnNsYXRlKC0wLjk5MjYyNjM4LC0xLjE3NDE4MSkiPiYjeGE7ICAgIDxnIGlkPSJnNzAiIHRyYW5zZm9ybT0ibWF0cml4KDEuMDE0ODg4NywwLDAsMS4wMTQ4ODg3LDE2LjkwMjE0NiwtMi42OTg3MjYpIj4mI3hhOyAgICAgIDxwYXRoIGlua3NjYXBlOmV4cG9ydC15ZHBpPSIyNTAuNTUiIGlua3NjYXBlOmV4cG9ydC14ZHBpPSIyNTAuNTUiIGlua3NjYXBlOmV4cG9ydC1maWxlbmFtZT0ibmV3LnBuZyIgaW5rc2NhcGU6Y29ubmVjdG9yLWN1cnZhdHVyZT0iMCIgaWQ9InBhdGgzMDU1IiBkPSJtIC02Ljg0OTIwMTUsNC4yNzI0NjY4IGEgMS4xMTkxMjU1LDEuMTA5OTY3MSAwIDAgMCAtMC40Mjg4ODE4LDAuMTA4NTMwMyBsIC01Ljg1MjQwMzcsMi43OTYzMzk0IGEgMS4xMTkxMjU1LDEuMTA5OTY3MSAwIDAgMCAtMC42MDU1MjQsMC43NTI5NzU5IGwgLTEuNDQzODI4LDYuMjgxMjg0NiBhIDEuMTE5MTI1NSwxLjEwOTk2NzEgMCAwIDAgMC4xNTE5NDMsMC44NTEwMjggMS4xMTkxMjU1LDEuMTA5OTY3MSAwIDAgMCAwLjA2MzYyLDAuMDg4MzIgbCA0LjA1MDgsNS4wMzY1NTUgYSAxLjExOTEyNTUsMS4xMDk5NjcxIDAgMCAwIDAuODc0OTc5LDAuNDE3NjU0IGwgNi40OTYxMDExLC0wLjAwMTUgYSAxLjExOTEyNTUsMS4xMDk5NjcxIDAgMCAwIDAuODc0OTc4OCwtMC40MTY5MDYgTCAxLjM4MTg4NzIsMTUuMTQ5NDUzIEEgMS4xMTkxMjU1LDEuMTA5OTY3MSAwIDAgMCAxLjU5ODE5ODYsMTQuMjEwMTA0IEwgMC4xNTIxMjY1Nyw3LjkyODgxNTQgQSAxLjExOTEyNTUsMS4xMDk5NjcxIDAgMCAwIC0wLjQ1MzM5Nzk0LDcuMTc1ODM5NiBMIC02LjMwNjU0OTYsNC4zODA5OTcxIEEgMS4xMTkxMjU1LDEuMTA5OTY3MSAwIDAgMCAtNi44NDkyMDE1LDQuMjcyNDY2OCBaIiBzdHlsZT0iZmlsbDojMzI2Y2U1O2ZpbGwtb3BhY2l0eToxO3N0cm9rZTpub25lO3N0cm9rZS13aWR0aDowO3N0cm9rZS1taXRlcmxpbWl0OjQ7c3Ryb2tlLWRhc2hhcnJheTpub25lO3N0cm9rZS1vcGFjaXR5OjEiLz4mI3hhOyAgICAgIDxwYXRoIGlkPSJwYXRoMzA1NC0yLTkiIGQ9Ik0gLTYuODUyMzQzNSwzLjgxNzYzNzIgQSAxLjE4MTQzMDQsMS4xNzE3NjIgMCAwIDAgLTcuMzA0NDI4NCwzLjkzMjkwNCBsIC02LjE3ODc0MjYsMi45NTEyNzU4IGEgMS4xODE0MzA0LDEuMTcxNzYyIDAgMCAwIC0wLjYzOTIwNiwwLjc5NDg5MSBsIC0xLjUyMzkxNSw2LjYzMDgyODIgYSAxLjE4MTQzMDQsMS4xNzE3NjIgMCAwIDAgMC4xNjAxNzUsMC44OTg5MyAxLjE4MTQzMDQsMS4xNzE3NjIgMCAwIDAgMC4wNjczNiwwLjA5MjgxIGwgNC4yNzYwOTQsNS4zMTcyMzYgYSAxLjE4MTQzMDQsMS4xNzE3NjIgMCAwIDAgMC45MjM2MywwLjQ0MDg1OCBsIDYuODU3NjE4OCwtMC4wMDE1IGEgMS4xODE0MzA0LDEuMTcxNzYyIDAgMCAwIDAuOTIzNjMwOCwtMC40NDAxMSBsIDQuMjc0NTk2NiwtNS4zMTc5ODUgYSAxLjE4MTQzMDQsMS4xNzE3NjIgMCAwIDAgMC4yMjgyODgsLTAuOTkwOTkzIEwgMC41Mzg5NDQzOSw3LjY3NzU3MzggQSAxLjE4MTQzMDQsMS4xNzE3NjIgMCAwIDAgLTAuMTAwMjYxMDEsNi44ODM0MzEzIEwgLTYuMjc5MDAzNywzLjkzMjE1NTUgQSAxLjE4MTQzMDQsMS4xNzE3NjIgMCAwIDAgLTYuODUyMzQzNSwzLjgxNzYzNzIgWiBtIDAuMDAyOTksMC40NTUwNzg5IGEgMS4xMTkxMjU1LDEuMTA5OTY3MSAwIDAgMSAwLjU0MjY1MTcsMC4xMDg1MzAzIGwgNS44NTMxNTE2OSwyLjc5NDg0MjUgQSAxLjExOTEyNTUsMS4xMDk5NjcxIDAgMCAxIDAuMTUxOTc4MTEsNy45MjkwNjQ4IEwgMS41OTgwNTEsMTQuMjEwMzUgYSAxLjExOTEyNTUsMS4xMDk5NjcxIDAgMCAxIC0wLjIxNjMxMjMsMC45MzkzNDggbCAtNC4wNDkzMDMyLDUuMDM3MzA0IGEgMS4xMTkxMjU1LDEuMTA5OTY3MSAwIDAgMSAtMC44NzQ5Nzg5LDAuNDE2OTA2IGwgLTYuNDk2MTAwNiwwLjAwMTUgYSAxLjExOTEyNTUsMS4xMDk5NjcxIDAgMCAxIC0wLjg3NDk3OSwtMC40MTc2NTIgbCAtNC4wNTA4LC01LjAzNjU1NCBhIDEuMTE5MTI1NSwxLjEwOTk2NzEgMCAwIDEgLTAuMDYzNjIsLTAuMDg4MzIgMS4xMTkxMjU1LDEuMTA5OTY3MSAwIDAgMSAtMC4xNTE5NDIsLTAuODUxMDI4IGwgMS40NDM4MjcsLTYuMjgxMjg1MyBhIDEuMTE5MTI1NSwxLjEwOTk2NzEgMCAwIDEgMC42MDU1MjQsLTAuNzUyOTc1OCBsIDUuODUyNDAzNiwtMi43OTYzMzk1IGEgMS4xMTkxMjU1LDEuMTA5OTY3MSAwIDAgMSAwLjQyODg4MTksLTAuMTA4NTMwMyB6IiBzdHlsZT0iY29sb3I6IzAwMDAwMDtmb250LXN0eWxlOm5vcm1hbDtmb250LXZhcmlhbnQ6bm9ybWFsO2ZvbnQtd2VpZ2h0Om5vcm1hbDtmb250LXN0cmV0Y2g6bm9ybWFsO2ZvbnQtc2l6ZTptZWRpdW07bGluZS1oZWlnaHQ6bm9ybWFsO2ZvbnQtZmFtaWx5OlNhbnM7LWlua3NjYXBlLWZvbnQtc3BlY2lmaWNhdGlvbjpTYW5zO3RleHQtaW5kZW50OjA7dGV4dC1hbGlnbjpzdGFydDt0ZXh0LWRlY29yYXRpb246bm9uZTt0ZXh0LWRlY29yYXRpb24tbGluZTpub25lO2xldHRlci1zcGFjaW5nOm5vcm1hbDt3b3JkLXNwYWNpbmc6bm9ybWFsO3RleHQtdHJhbnNmb3JtOm5vbmU7d3JpdGluZy1tb2RlOmxyLXRiO2RpcmVjdGlvbjpsdHI7YmFzZWxpbmUtc2hpZnQ6YmFzZWxpbmU7dGV4dC1hbmNob3I6c3RhcnQ7ZGlzcGxheTppbmxpbmU7b3ZlcmZsb3c6dmlzaWJsZTt2aXNpYmlsaXR5OnZpc2libGU7ZmlsbDojZmZmZmZmO2ZpbGwtb3BhY2l0eToxO2ZpbGwtcnVsZTpub256ZXJvO3N0cm9rZTpub25lO3N0cm9rZS13aWR0aDowO3N0cm9rZS1taXRlcmxpbWl0OjQ7c3Ryb2tlLWRhc2hhcnJheTpub25lO21hcmtlcjpub25lO2VuYWJsZS1iYWNrZ3JvdW5kOmFjY3VtdWxhdGUiIGlua3NjYXBlOmNvbm5lY3Rvci1jdXJ2YXR1cmU9IjAiLz4mI3hhOyAgICA8L2c+JiN4YTsgICAgPHRleHQgaWQ9InRleHQyMDY2IiB5PSIxNi44MTE3NzUiIHg9IjEwLjA0NzUwMSIgc3R5bGU9ImZvbnQtc3R5bGU6bm9ybWFsO2ZvbnQtd2VpZ2h0Om5vcm1hbDtmb250LXNpemU6MTAuNTgzMzMzMDJweDtsaW5lLWhlaWdodDo2LjYxNDU4MzQ5cHg7Zm9udC1mYW1pbHk6U2FucztsZXR0ZXItc3BhY2luZzowcHg7d29yZC1zcGFjaW5nOjBweDtmaWxsOiNmZmZmZmY7ZmlsbC1vcGFjaXR5OjE7c3Ryb2tlOm5vbmU7c3Ryb2tlLXdpZHRoOjAuMjY0NTgzMzJweDtzdHJva2UtbGluZWNhcDpidXR0O3N0cm9rZS1saW5lam9pbjptaXRlcjtzdHJva2Utb3BhY2l0eToxIiB4bWw6c3BhY2U9InByZXNlcnZlIj48dHNwYW4gc3R5bGU9ImZvbnQtc3R5bGU6bm9ybWFsO2ZvbnQtdmFyaWFudDpub3JtYWw7Zm9udC13ZWlnaHQ6bm9ybWFsO2ZvbnQtc3RyZXRjaDpub3JtYWw7Zm9udC1zaXplOjIuODIyMjIyMjNweDtmb250LWZhbWlseTpBcmlhbDstaW5rc2NhcGUtZm9udC1zcGVjaWZpY2F0aW9uOidBcmlhbCwgTm9ybWFsJzt0ZXh0LWFsaWduOmNlbnRlcjt3cml0aW5nLW1vZGU6bHItdGI7dGV4dC1hbmNob3I6bWlkZGxlO2ZpbGw6I2ZmZmZmZjtmaWxsLW9wYWNpdHk6MTtzdHJva2Utd2lkdGg6MC4yNjQ1ODMzMnB4IiB5PSIxNi44MTE3NzUiIHg9IjEwLjA0NzUwMSIgaWQ9InRzcGFuMjA2NCIgc29kaXBvZGk6cm9sZT0ibGluZSI+Yy1tPC90c3Bhbj48L3RleHQ+JiN4YTsgICAgPHBhdGggaWQ9InBhdGgxOTg0IiBkPSJtIDkuOTkyMjU3NCw0LjQ0Njk5MjUgYyAtMC4xMzgzMjM0LC0wLjAwNDQgLTMuOTk1MzEzOSwxLjg5MTc3OTEgLTQuMDQ1NzQyOSwxLjk4OTAyNDEgLTAuMTIxMTUzLDAuMjMzNjgyIC0wLjk5ODgwMiw0LjI4MTQ3ODQgLTAuOTQ3MjM1LDQuMzY4NzI0NCAwLjAzLDAuMDUwNjUgMC42NjIxOTksMC44NTIzMDUgMS40MDQ1NjcsMS43ODA3NzEgbCAxLjM0OTc5OCwxLjY4Nzc1NCAyLjIyMTU3NDMsMC4wMDExIDIuMjIxNTcyMiwwLjAwMTEgMS40MTI4MTksLTEuNzY1Nzg0IDEuNDEzODgsLTEuNzY1MjY1IC0wLjQ5NDU2LC0yLjE2ODg2MDcgQyAxNC4yNTY3Myw3LjM4MjgxNTUgMTQuMDEzMjksNi4zODcyNzU2IDEzLjk4ODQyLDYuMzYzMjg1NiAxMy45MTg5Miw2LjI5NjQwNTYgMTAuMDY3MjQsNC40NDk1NDY1IDkuOTkyMjU3NCw0LjQ0NzEyNTUgWiBtIDAuMjM2MTY2NiwxLjk4MjgyNDEgYyAwLjE4NjYzNywwLjAwOCAwLjIwNTc5MiwwLjI5MTU3MSAwLjYwNTEyOCwwLjMyMTQyNyAwLjUyMTYsMC4wMzkgMC40NjU1MDgsLTAuNDQ2NjUxIDAuODY0NTUzLC0wLjEwODUyMiAwLjM5OTA0NCwwLjMzODEyNSAtMC4wODg5LDAuMzYyNjQxIDAuMDM1MTQsMC44NzA3NDkgMC4xMjQwOSwwLjUwODEwNDEgMC41Njg4MDEsMC4zMDUwOTkxIDAuMzcwNTIzLDAuNzg5MDk4NyAtMC4xOTgyNzksMC40ODQwMDIgLTAuMzcyNjEzLDAuMDI3MjggLTAuODE3NTEsMC4zMDIzMDggLTAuNDQ0ODk3LDAuMjc1MDIzIC0wLjExNDU2NCwwLjYzNTM0NiAtMC42MzYxMzgsMC41OTYzNDcgLTAuNTIxNjUyLC0wLjAzOSAtMC4xNDA0NjcsLTAuMzQ2MDY1IC0wLjUzOTUxLC0wLjY4NDE5NyBDIDkuNzExNTY2LDguMTc4ODk1NSA5LjQ3MDM3MTgsOC42MDQ0ODczIDkuMzQ2MzA4OCw4LjA5NjM3OTcgOS4yMjIyMTg4LDcuNTg4MjcxNiA5LjYzMjI0NCw3Ljg1NTM2MjUgOS44MzA1MjMsNy4zNzEzNjA3IDEwLjAyOTIyNCw2Ljg4NzMxMzYgOS41NDk0Mjg4LDYuNzkwMTA3NiA5Ljk5NDM1MjQsNi41MTUwODE2IGMgMC4wNTU2NCwtMC4wMzQzNCAwLjEwMTg5MDYsLTAuMDU2ODggMC4xNDIxMDU2LC0wLjA3MDI4IDAuMDM1MDgsLTAuMDExNjcgMC4wNjUzMywtMC4wMTYxNCAwLjA5MTk3LC0wLjAxNDk3IHogbSAwLjUyMTQ5MywwLjU3MjA1OSBjIC0wLjA3NTc4LC01LjMwNmUtNCAtMC4xNTEyMDksMC4wMTAyMSAtMC4yMjM3NTgsMC4wMzIwNCAtMC40MDAzOTMsMC4xMjA3MzIgLTAuNjI2OTU0LDAuNTQzMzIxOSAtMC41MDU5MDksMC45NDM2MTMgMC4xMjA5NCwwLjM5OTkxOTcgMC41NDMxMSwwLjYyNjE0ODcgMC45NDMxMDcsMC41MDUzOTM3IDAuMzk5ODM4LC0wLjEyMDc0NiAwLjYyNjI2OCwtMC41NDI2MTA3IDAuNTA1OTA5LC0wLjk0MjU3ODggQyAxMS4zNzM1MTYsNy4yMjI1MjM2IDExLjA4MTgzNyw3LjAwNDE4OTYgMTAuNzQ5OTE3LDcuMDAxODc3NiBaIE0gNy43NTcyNjk1LDguMzAzNjAzMyBjIDAuMDM5NjksNy45ZS00IDAuMDg4MzIsMC4wMDkgMC4xNDgyOTkxLDAuMDI3MzkgMC40Nzk5Mjc5LDAuMTQ3MTM4IC0wLjAwNzcsMC4zOTk1MDMgMC4zMzQzNTQsMC43NjY4NzkgMC4zNDIwNTMxLDAuMzY3Mzc3IDAuNjI4NTE4MiwtMC4xMDEwODYgMC43NDEwNDUyLDAuMzg4MDkxIDAuMTEyNTI3LDAuNDg5MTc3NyAtMC4zNDk5OTEzLDAuMTkyOTIxIC0wLjQ5NzEyNjEsMC42NzI4Mjc3IC0wLjE0NzE2MTIsMC40Nzk5MDQgMC40MDE0NzkxLDAuNDk0MDgzIDAuMDM0MTEsMC44MzYxMjMgLTAuMzY3Mzc0LDAuMzQyMDQxIC0wLjM0MTgxNTEsLTAuMjA2MDYgLTAuODMwOTUwMSwtMC4wOTM1MyAtMC40ODkxODgsMC4xMTI1MjcgLTAuMjI3MDM5LDAuNTk0NjU0IC0wLjcwNjk0LDAuNDQ3NTE2IC0wLjQ3OTkyOCwtMC4xNDcxMzcgMC4wMDc3LC0wLjM5OTUgLTAuMzM0MzU0LC0wLjc2Njg3NiAtMC4zNDIwNTQsLTAuMzY3Mzc5IC0wLjYyODUxOCwwLjEwMDU3MSAtMC43NDEwNDUsLTAuMzg4NjA3IC0wLjExMjUyOCwtMC40ODkxOCAwLjM0OTk5MSwtMC4xOTI5MjQgMC40OTcxMjUsLTAuNjcyODI2NyAwLjE0NzE2MiwtMC40Nzk5MDcgLTAuNDAxOTgxLC0wLjQ5MzU3IC0wLjAzNDYxLC0wLjgzNTYxIDAuMzY3Mzc0LC0wLjM0MjA0MyAwLjM0MjI5MSwwLjIwNjA2NSAwLjgzMTQ1MywwLjA5MzU0IDAuNDI4MDQzLC0wLjA5ODQ2IDAuMjgwNjQzLC0wLjQ3OTYwNyAwLjU1ODY0MSwtMC40NzQ5MDYgeiBtIDMuNTY3MjE2NSwwLjUyNDUxNiBjIDAuMDQ1NTEsNS4zNmUtNCAwLjEwMDgwNywwLjAxMjQzIDAuMTcwMDIyLDAuMDM5MjcgMC41NTMyNywwLjIxNDczOSAtMC4xNzUyMzQsMC41NDU4OTQgMC4yNTM3MzUsMC45NTYwMTM3IDAuNDI4OTY5LDAuNDEwMTE4IDAuNzI3NDcyLC0wLjMzMjc0MTcgMC45NjY4NjcsMC4yMTAzMjMgMC4yMzkzNjksMC41NDMwNjUgLTAuNTEwNDM0LDAuMjYyNDMyIC0wLjQ5NzEyNiwwLjg1NTc2MyAwLjAxMzIzLDAuNTkzMzMxIDAuNzQ5NTkxLDAuMjc4NzIgMC41MzQ4MjksMC44MzE5OSAtMC4yMTQ3MDksMC41NTMyNjggLTAuNTQ1ODg4LC0wLjE3NTI0NyAtMC45NTU5OTIsMC4yNTM3MyAtMC40MTAxMzEsMC40Mjg5NzcgMC4zMzIyMSwwLjcyNjk3MiAtMC4yMTA4NDcsMC45NjYzNDggLTAuNTQzMDU3LDAuMjM5MzggLTAuMjYxMzgyLC0wLjUwOTkzOSAtMC44NTQ3MzYsLTAuNDk2NjA5IC0wLjU5MzMyOCwwLjAxMzMzIC0wLjI3OTIxNSwwLjc0OTA3MiAtMC44MzI1MSwwLjUzNDMzNCBDIDkuMzQ1NDg0OCwxMi43NjQ1NDMgMTAuMDczOTg3LDEyLjQzMzM4OCA5LjY0NDk5MywxMi4wMjMyNjggOS4yMTYwMjM4LDExLjYxMzE0OCA4LjkxODAyMzgsMTIuMzU2MDA4IDguNjc4NjU0NiwxMS44MTI5NDUgOC40MzkyODY3LDExLjI2OTg4IDkuMTg4NTU5OCwxMS41NTEwMzIgOS4xNzUyNzc4LDEwLjk1NzcwMSA5LjE2MTc4NzgsMTAuMzY0MzcgOC40MjU2ODY3LDEwLjY3ODQ2MiA4LjY0MDQyMjUsMTAuMTI1MTkyIDguODU1MTU4OCw5LjU3MTkyMjMgOS4xODY4MTM4LDEwLjMwMDk1NSA5LjU5Njk0NSw5Ljg3MTk3OCAxMC4wMDcwNDgsOS40NDMwMDEzIDkuMjY0MTc3OCw5LjE0NDQ5MDMgOS44MDcyNjIsOC45MDUxMTQzIGMgMC41NDMwNTUsLTAuMjM5Mzc3IDAuMjYxOTEsMC41MDk5MzkgMC44NTUyMzcsMC40OTY2MDkgMC41MTkxOTIsLTAuMDExNjcgMC4zNDM0MjksLTAuNTc2NDA4IDAuNjYxOTg3LC0wLjU3MzYwOCB6IG0gLTMuODgxNDA5NSwwLjI1NTI4IGMgLTAuNDE3OTg4LC0xLjU4ZS00IC0wLjc1Njk0NiwwLjMzODU2NCAtMC43NTcwNzgsMC43NTY1NDQ3IC0xLjU5ZS00LDAuNDE4MTgyIDAuMzM4OTA1LDAuNzU3MjE5IDAuNzU3MDc4LDAuNzU3MDYgMC40MTc5NjMxLC0xLjQ4ZS00IDAuNzU2NjgyLC0wLjMzOTA5NSAwLjc1NjUyMzksLTAuNzU3MDYgQyA4LjE5OTQ2NzUsOS40MjIxODAzIDcuODYwODI3Niw5LjA4MzU0NzMgNy40NDMwNzY1LDkuMDgzMzk5MyBaIE0gMTAuNjk2NjMsOS44MDg0MjEgYyAtMC42MTU2ODQsNC4yZS01IC0xLjExNDg0NiwwLjQ5ODk4MyAtMS4xMTUxOSwxLjExNDY2MSAtMi4zOGUtNCwwLjYxNjA4MiAwLjQ5OTEwOSwxLjExNTY1IDEuMTE1MTksMS4xMTU2OTIgMC42MTYyNjgsMi4yMmUtNCAxLjExNTkwNywtMC40OTk0MjUgMS4xMTU2NjksLTEuMTE1NjkyIDAsLTAuNjE1ODY2IC0wLjQ5OTc5OCwtMS4xMTQ4ODMgLTEuMTE1NjY5LC0xLjExNDY2MSB6IiBzdHlsZT0ib3BhY2l0eToxO2ZpbGw6I2ZmZmZmZjtmaWxsLW9wYWNpdHk6MTtzdHJva2U6I2VlZWVlZTtzdHJva2Utd2lkdGg6MDtzdHJva2UtbWl0ZXJsaW1pdDoxMDtzdHJva2UtZGFzaGFycmF5Om5vbmU7c3Ryb2tlLWRhc2hvZmZzZXQ6MTEuMjM2NDIzNDk7c3Ryb2tlLW9wYWNpdHk6MSIgaW5rc2NhcGU6Y29ubmVjdG9yLWN1cnZhdHVyZT0iMCIgc29kaXBvZGk6bm9kZXR5cGVzPSJjY2NjY2NjY2NjY2Njc2NjY2Njc2NjY2NjY2NjY2NjY2Njc2NzY2NjY2NjY2NjY2NjY2NjY2NjY2Njc2NjY2NjY2NjY2NjY2NjIi8+JiN4YTsgIDwvZz4mI3hhOzwvc3ZnPg==;fontFamily=Helvetica;fontSize=3;fontColor=#000000;fillColor=none;" vertex="1" parent="ke8J5Ebdfp0hx4Ng-5WA-21">
          <mxGeometry x="10" y="120" width="40" height="40" as="geometry" />
        </mxCell>
        <mxCell id="ke8J5Ebdfp0hx4Ng-5WA-53" value="" style="sketch=0;pointerEvents=1;shadow=0;dashed=0;html=1;strokeColor=none;fillColor=#647687;aspect=fixed;labelPosition=center;verticalLabelPosition=bottom;verticalAlign=top;align=center;outlineConnect=0;shape=mxgraph.vvd.log_files;fontFamily=Helvetica;fontSize=3;fontColor=#ffffff;" vertex="1" parent="ke8J5Ebdfp0hx4Ng-5WA-21">
          <mxGeometry x="164.6" y="188.25" width="10.8" height="13.5" as="geometry" />
        </mxCell>
        <mxCell id="ke8J5Ebdfp0hx4Ng-5WA-54" value="" style="sketch=0;pointerEvents=1;shadow=0;dashed=0;html=1;strokeColor=none;fillColor=#647687;aspect=fixed;labelPosition=center;verticalLabelPosition=bottom;verticalAlign=top;align=center;outlineConnect=0;shape=mxgraph.vvd.log_files;fontFamily=Helvetica;fontSize=3;fontColor=#ffffff;" vertex="1" parent="ke8J5Ebdfp0hx4Ng-5WA-21">
          <mxGeometry x="304.6" y="130" width="10.8" height="13.5" as="geometry" />
        </mxCell>
        <mxCell id="ke8J5Ebdfp0hx4Ng-5WA-56" value="" style="sketch=0;outlineConnect=0;fontColor=#ffffff;fillColor=#647687;strokeColor=#314354;dashed=0;verticalLabelPosition=bottom;verticalAlign=top;align=center;html=1;fontSize=12;fontStyle=0;aspect=fixed;pointerEvents=1;shape=mxgraph.aws4.logs;fontFamily=Helvetica;" vertex="1" parent="ke8J5Ebdfp0hx4Ng-5WA-21">
          <mxGeometry x="607.23" y="325.5" width="25.55" height="19" as="geometry" />
        </mxCell>
      </root>
    </mxGraphModel>
  </diagram>
</mxfile>
